<svg xmlns="http://www.w3.org/2000/svg" xmlns:xlink="http://www.w3.org/1999/xlink" contentStyleType="text/css" data-diagram-type="CLASS" height="1354px" preserveAspectRatio="none" style="width:1846px;height:1354px;background:#FFFFFF;" version="1.1" viewBox="0 0 1846 1354" width="1846px" zoomAndPan="magnify"><title>WebGL Water - Go Backend Code-Karte</title><defs/><g><g class="title" data-source-line="3"><text fill="#000000" font-family="Verdana" font-size="22" font-weight="bold" lengthAdjust="spacing" textLength="487.8672" x="674.5664" y="35.4209">WebGL Water - Go Backend Code-Karte</text></g><!--cluster Server Package--><g class="cluster" data-entity="Server Package" data-source-line="5" data-uid="ent0002" id="cluster_Server Package"><path d="M576.5,132.3594 L700.6631,132.3594 A3.75,3.75 0 0 1 703.1631,134.8594 L710.1631,154.6563 L1079.5,154.6563 A2.5,2.5 0 0 1 1082,157.1563 L1082,931.8394 A2.5,2.5 0 0 1 1079.5,934.3394 L576.5,934.3394 A2.5,2.5 0 0 1 574,931.8394 L574,134.8594 A2.5,2.5 0 0 1 576.5,132.3594" fill="#FFFFFF" style="stroke:#000000;stroke-width:1;"/><line style="stroke:#000000;stroke-width:1;" x1="574" x2="710.1631" y1="154.6563" y2="154.6563"/><text fill="#000000" font-family="Verdana" font-size="14" font-weight="bold" lengthAdjust="spacing" textLength="123.1631" x="578" y="147.3545">Server Package</text></g><!--cluster State Package--><g class="cluster" data-entity="State Package" data-source-line="61" data-uid="ent0006" id="cluster_State Package"><path d="M13.5,643.7794 L128.0654,643.7794 A3.75,3.75 0 0 1 130.5654,646.2794 L137.5654,666.0762 L547.5,666.0762 A2.5,2.5 0 0 1 550,668.5762 L550,1345.4794 A2.5,2.5 0 0 1 547.5,1347.9794 L13.5,1347.9794 A2.5,2.5 0 0 1 11,1345.4794 L11,646.2794 A2.5,2.5 0 0 1 13.5,643.7794" fill="#FFFFFF" style="stroke:#000000;stroke-width:1;"/><line style="stroke:#000000;stroke-width:1;" x1="11" x2="137.5654" y1="666.0762" y2="666.0762"/><text fill="#000000" font-family="Verdana" font-size="14" font-weight="bold" lengthAdjust="spacing" textLength="113.5654" x="15" y="658.7745">State Package</text></g><!--cluster HTTP Strukturen--><g class="cluster" data-entity="HTTP Strukturen" data-source-line="111" data-uid="ent0010" id="cluster_HTTP Strukturen"><path d="M1359.5,295.3194 L1492.4336,295.3194 A3.75,3.75 0 0 1 1494.9336,297.8194 L1501.9336,317.6162 L1836.5,317.6162 A2.5,2.5 0 0 1 1839,320.1162 L1839,469.3094 A2.5,2.5 0 0 1 1836.5,471.8094 L1359.5,471.8094 A2.5,2.5 0 0 1 1357,469.3094 L1357,297.8194 A2.5,2.5 0 0 1 1359.5,295.3194" fill="#FFFFFF" style="stroke:#000000;stroke-width:1;"/><line style="stroke:#000000;stroke-width:1;" x1="1357" x2="1501.9336" y1="317.6162" y2="317.6162"/><text fill="#000000" font-family="Verdana" font-size="14" font-weight="bold" lengthAdjust="spacing" textLength="131.9336" x="1361" y="310.3145">HTTP Strukturen</text></g><!--class Server--><g class="entity" data-entity="Server" data-source-line="7" data-uid="ent0003" id="entity_Server"><rect fill="#FFFFFF" height="451.4219" rx="2.5" ry="2.5" style="stroke:#000000;stroke-width:1;" width="273.1016" x="590.45" y="167.3594"/><ellipse cx="700.2957" cy="181.3594" fill="#FFFFFF" rx="9" ry="9" style="stroke:#000000;stroke-width:1;"/><path d="M703.2645,187 Q702.6863,187.2969 702.0457,187.4375 Q701.4051,187.5938 700.702,187.5938 Q698.202,187.5938 696.8738,185.9531 Q695.5613,184.2969 695.5613,181.1719 Q695.5613,178.0469 696.8738,176.3906 Q698.202,174.7344 700.702,174.7344 Q701.4051,174.7344 702.0457,174.8906 Q702.702,175.0469 703.2645,175.3438 L703.2645,178.0625 Q702.6395,177.4844 702.0457,177.2188 Q701.452,176.9375 700.827,176.9375 Q699.4832,176.9375 698.7957,178.0156 Q698.1082,179.0781 698.1082,181.1719 Q698.1082,183.2656 698.7957,184.3438 Q699.4832,185.4063 700.827,185.4063 Q701.452,185.4063 702.0457,185.1406 Q702.6395,184.8594 703.2645,184.2813 L703.2645,187 Z " fill="#000000"/><text fill="#000000" font-family="Verdana" font-size="14" lengthAdjust="spacing" textLength="45.9102" x="717.7957" y="186.2061">Server</text><line style="stroke:#000000;stroke-width:1;" x1="591.45" x2="862.5516" y1="195.3594" y2="195.3594"/><text fill="#000000" font-family="Verdana" font-size="14" font-weight="bold" lengthAdjust="spacing" textLength="55.877" x="608.45" y="212.3545">Felder:</text><rect fill="none" height="6" style="stroke:#000000;stroke-width:1;" width="6" x="598.45" y="222.3047"/><text fill="#000000" font-family="Verdana" font-size="14" lengthAdjust="spacing" textLength="141.4902" x="608.45" y="228.6514">router: *mux.Router</text><rect fill="none" height="6" style="stroke:#000000;stroke-width:1;" width="6" x="598.45" y="238.6016"/><text fill="#000000" font-family="Verdana" font-size="14" lengthAdjust="spacing" textLength="106.292" x="608.45" y="244.9482">assets: *Assets</text><rect fill="none" height="6" style="stroke:#000000;stroke-width:1;" width="6" x="598.45" y="254.8984"/><text fill="#000000" font-family="Verdana" font-size="14" lengthAdjust="spacing" textLength="116.6348" x="608.45" y="261.2451">appState: *State</text><rect fill="none" height="6" style="stroke:#000000;stroke-width:1;" width="6" x="598.45" y="271.1953"/><text fill="#000000" font-family="Verdana" font-size="14" lengthAdjust="spacing" textLength="218.1826" x="608.45" y="277.542">upgrader: websocket.Upgrader</text><rect fill="none" height="6" style="stroke:#000000;stroke-width:1;" width="6" x="598.45" y="287.4922"/><text fill="#000000" font-family="Verdana" font-size="14" lengthAdjust="spacing" textLength="249.1016" x="608.45" y="293.8389">clients: map[*websocket.Conn]bool</text><rect fill="none" height="6" style="stroke:#000000;stroke-width:1;" width="6" x="598.45" y="303.7891"/><text fill="#000000" font-family="Verdana" font-size="14" lengthAdjust="spacing" textLength="119.1777" x="608.45" y="310.1357">staticPath: string</text><rect fill="none" height="6" style="stroke:#000000;stroke-width:1;" width="6" x="598.45" y="320.0859"/><text fill="#000000" font-family="Verdana" font-size="14" lengthAdjust="spacing" textLength="56.1162" x="608.45" y="326.4326">port: int</text><text fill="#000000" font-family="Verdana" font-size="14" lengthAdjust="spacing" textLength="4.4502" x="608.45" y="342.7295">&#160;</text><text fill="#000000" font-family="Verdana" font-size="14" font-weight="bold" lengthAdjust="spacing" textLength="113.9004" x="608.45" y="359.0264">HTTP Handler:</text><text fill="#000000" font-family="Verdana" font-size="14" lengthAdjust="spacing" textLength="4.4502" x="608.45" y="375.3232">&#160;</text><text fill="#000000" font-family="Verdana" font-size="14" font-weight="bold" lengthAdjust="spacing" textLength="108.6504" x="608.45" y="391.6201">Management:</text><line style="stroke:#000000;stroke-width:1;" x1="591.45" x2="862.5516" y1="398.9219" y2="398.9219"/><ellipse cx="601.45" cy="412.5703" fill="#FFFFFF" rx="3" ry="3" style="stroke:#000000;stroke-width:1;"/><text fill="#000000" font-family="Verdana" font-size="14" lengthAdjust="spacing" textLength="97.4258" x="608.45" y="415.917">handleIndex()</text><ellipse cx="601.45" cy="428.8672" fill="#FFFFFF" rx="3" ry="3" style="stroke:#000000;stroke-width:1;"/><text fill="#000000" font-family="Verdana" font-size="14" lengthAdjust="spacing" textLength="121.3516" x="608.45" y="432.2139">handleAssetFile()</text><ellipse cx="601.45" cy="445.1641" fill="#FFFFFF" rx="3" ry="3" style="stroke:#000000;stroke-width:1;"/><text fill="#000000" font-family="Verdana" font-size="14" lengthAdjust="spacing" textLength="108.2334" x="608.45" y="448.5107">handleShader()</text><ellipse cx="601.45" cy="461.4609" fill="#FFFFFF" rx="3" ry="3" style="stroke:#000000;stroke-width:1;"/><text fill="#000000" font-family="Verdana" font-size="14" lengthAdjust="spacing" textLength="136.3564" x="608.45" y="464.8076">handleGetMeshes()</text><ellipse cx="601.45" cy="477.7578" fill="#FFFFFF" rx="3" ry="3" style="stroke:#000000;stroke-width:1;"/><text fill="#000000" font-family="Verdana" font-size="14" lengthAdjust="spacing" textLength="120.4492" x="608.45" y="481.1045">handleGetMesh()</text><ellipse cx="601.45" cy="494.0547" fill="#FFFFFF" rx="3" ry="3" style="stroke:#000000;stroke-width:1;"/><text fill="#000000" font-family="Verdana" font-size="14" lengthAdjust="spacing" textLength="120.6475" x="608.45" y="497.4014">handleGetState()</text><ellipse cx="601.45" cy="510.3516" fill="#FFFFFF" rx="3" ry="3" style="stroke:#000000;stroke-width:1;"/><text fill="#000000" font-family="Verdana" font-size="14" lengthAdjust="spacing" textLength="151.6211" x="608.45" y="513.6982">handleUpdateWater()</text><ellipse cx="601.45" cy="526.6484" fill="#FFFFFF" rx="3" ry="3" style="stroke:#000000;stroke-width:1;"/><text fill="#000000" font-family="Verdana" font-size="14" lengthAdjust="spacing" textLength="164.2813" x="608.45" y="529.9951">handleUpdateCamera()</text><ellipse cx="601.45" cy="542.9453" fill="#FFFFFF" rx="3" ry="3" style="stroke:#000000;stroke-width:1;"/><text fill="#000000" font-family="Verdana" font-size="14" lengthAdjust="spacing" textLength="137.3408" x="608.45" y="546.292">handleWebSocket()</text><ellipse cx="601.45" cy="559.2422" fill="#FFFFFF" rx="3" ry="3" style="stroke:#000000;stroke-width:1;"/><text fill="#000000" font-family="Verdana" font-size="14" lengthAdjust="spacing" textLength="149.4473" x="608.45" y="562.5889">NewServer(): *Server</text><ellipse cx="601.45" cy="575.5391" fill="#FFFFFF" rx="3" ry="3" style="stroke:#000000;stroke-width:1;"/><text fill="#000000" font-family="Verdana" font-size="14" lengthAdjust="spacing" textLength="88.7373" x="608.45" y="578.8857">Start(): error</text><ellipse cx="601.45" cy="591.8359" fill="#FFFFFF" rx="3" ry="3" style="stroke:#000000;stroke-width:1;"/><text fill="#000000" font-family="Verdana" font-size="14" lengthAdjust="spacing" textLength="98.6426" x="608.45" y="595.1826">setupRoutes()</text><ellipse cx="601.45" cy="608.1328" fill="#FFFFFF" rx="3" ry="3" style="stroke:#000000;stroke-width:1;"/><text fill="#000000" font-family="Verdana" font-size="14" lengthAdjust="spacing" textLength="138.585" x="608.45" y="611.4795">startStateUpdates()</text></g><!--class Assets--><g class="entity" data-entity="Assets" data-source-line="35" data-uid="ent0004" id="entity_Assets"><rect fill="#FFFFFF" height="223.2656" rx="2.5" ry="2.5" style="stroke:#000000;stroke-width:1;" width="379.9268" x="590.04" y="695.0694"/><ellipse cx="753.4726" cy="709.0694" fill="#FFFFFF" rx="9" ry="9" style="stroke:#000000;stroke-width:1;"/><path d="M756.4414,714.71 Q755.8632,715.0069 755.2226,715.1475 Q754.582,715.3037 753.8789,715.3037 Q751.3789,715.3037 750.0507,713.6631 Q748.7382,712.0069 748.7382,708.8819 Q748.7382,705.7569 750.0507,704.1006 Q751.3789,702.4444 753.8789,702.4444 Q754.582,702.4444 755.2226,702.6006 Q755.8789,702.7569 756.4414,703.0537 L756.4414,705.7725 Q755.8164,705.1944 755.2226,704.9287 Q754.6289,704.6475 754.0039,704.6475 Q752.6601,704.6475 751.9726,705.7256 Q751.2851,706.7881 751.2851,708.8819 Q751.2851,710.9756 751.9726,712.0537 Q752.6601,713.1162 754.0039,713.1162 Q754.6289,713.1162 755.2226,712.8506 Q755.8164,712.5694 756.4414,711.9912 L756.4414,714.71 Z " fill="#000000"/><text fill="#000000" font-family="Verdana" font-size="14" lengthAdjust="spacing" textLength="45.5615" x="770.9726" y="713.9161">Assets</text><line style="stroke:#000000;stroke-width:1;" x1="591.04" x2="968.9668" y1="723.0694" y2="723.0694"/><text fill="#000000" font-family="Verdana" font-size="14" font-weight="bold" lengthAdjust="spacing" textLength="52.8213" x="608.04" y="740.0645">Daten:</text><rect fill="none" height="6" style="stroke:#000000;stroke-width:1;" width="6" x="598.04" y="750.0147"/><text fill="#000000" font-family="Verdana" font-size="14" lengthAdjust="spacing" textLength="189.5674" x="608.04" y="756.3614">meshes: map[string]*Mesh</text><rect fill="none" height="6" style="stroke:#000000;stroke-width:1;" width="6" x="598.04" y="766.3116"/><text fill="#000000" font-family="Verdana" font-size="14" lengthAdjust="spacing" textLength="210.9775" x="608.04" y="772.6582">textures: map[string]*Texture</text><rect fill="none" height="6" style="stroke:#000000;stroke-width:1;" width="6" x="598.04" y="782.6084"/><text fill="#000000" font-family="Verdana" font-size="14" lengthAdjust="spacing" textLength="114.1123" x="608.04" y="788.9551">basePath: string</text><text fill="#000000" font-family="Verdana" font-size="14" lengthAdjust="spacing" textLength="4.4502" x="608.04" y="805.252">&#160;</text><text fill="#000000" font-family="Verdana" font-size="14" font-weight="bold" lengthAdjust="spacing" textLength="84.7861" x="608.04" y="821.5489">Methoden:</text><line style="stroke:#000000;stroke-width:1;" x1="591.04" x2="968.9668" y1="828.8506" y2="828.8506"/><ellipse cx="601.04" cy="842.4991" fill="#FFFFFF" rx="3" ry="3" style="stroke:#000000;stroke-width:1;"/><text fill="#000000" font-family="Verdana" font-size="14" lengthAdjust="spacing" textLength="113.1279" x="608.04" y="845.8457">Initialize(): error</text><ellipse cx="601.04" cy="858.7959" fill="#FFFFFF" rx="3" ry="3" style="stroke:#000000;stroke-width:1;"/><text fill="#000000" font-family="Verdana" font-size="14" lengthAdjust="spacing" textLength="219.7344" x="608.04" y="862.1426">GetMesh(name): (*Mesh, error)</text><ellipse cx="601.04" cy="875.0928" fill="#FFFFFF" rx="3" ry="3" style="stroke:#000000;stroke-width:1;"/><text fill="#000000" font-family="Verdana" font-size="14" lengthAdjust="spacing" textLength="148.4424" x="608.04" y="878.4395">ListMeshes(): []string</text><ellipse cx="601.04" cy="891.3897" fill="#FFFFFF" rx="3" ry="3" style="stroke:#000000;stroke-width:1;"/><text fill="#000000" font-family="Verdana" font-size="14" lengthAdjust="spacing" textLength="294.6631" x="608.04" y="894.7364">CreateWaterMesh(size, segments): *Mesh</text><ellipse cx="601.04" cy="907.6866" fill="#FFFFFF" rx="3" ry="3" style="stroke:#000000;stroke-width:1;"/><text fill="#000000" font-family="Verdana" font-size="14" lengthAdjust="spacing" textLength="355.9268" x="608.04" y="911.0332">CreateTerrainMesh(size, segments, height): *Mesh</text></g><!--class Mesh--><g class="entity" data-entity="Mesh" data-source-line="49" data-uid="ent0005" id="entity_Mesh"><rect fill="#FFFFFF" height="158.0781" rx="2.5" ry="2.5" style="stroke:#000000;stroke-width:1;" width="167.6504" x="898.17" y="314.0294"/><ellipse cx="959.8155" cy="328.0294" fill="#FFFFFF" rx="9" ry="9" style="stroke:#000000;stroke-width:1;"/><path d="M962.7843,333.67 Q962.2061,333.9669 961.5655,334.1075 Q960.9249,334.2637 960.2218,334.2637 Q957.7218,334.2637 956.3936,332.6231 Q955.0811,330.9669 955.0811,327.8419 Q955.0811,324.7169 956.3936,323.0606 Q957.7218,321.4044 960.2218,321.4044 Q960.9249,321.4044 961.5655,321.5606 Q962.2218,321.7169 962.7843,322.0137 L962.7843,324.7325 Q962.1593,324.1544 961.5655,323.8887 Q960.9718,323.6075 960.3468,323.6075 Q959.003,323.6075 958.3155,324.6856 Q957.628,325.7481 957.628,327.8419 Q957.628,329.9356 958.3155,331.0137 Q959.003,332.0762 960.3468,332.0762 Q960.9718,332.0762 961.5655,331.8106 Q962.1593,331.5294 962.7843,330.9512 L962.7843,333.67 Z " fill="#000000"/><text fill="#000000" font-family="Verdana" font-size="14" lengthAdjust="spacing" textLength="36.8594" x="977.3155" y="332.8761">Mesh</text><line style="stroke:#000000;stroke-width:1;" x1="899.17" x2="1064.8204" y1="342.0294" y2="342.0294"/><ellipse cx="909.17" cy="355.6778" fill="none" rx="3" ry="3" style="stroke:#000000;stroke-width:1;"/><text fill="#000000" font-family="Verdana" font-size="14" lengthAdjust="spacing" textLength="90.6582" x="916.17" y="359.0245">Name: string</text><ellipse cx="909.17" cy="371.9747" fill="none" rx="3" ry="3" style="stroke:#000000;stroke-width:1;"/><text fill="#000000" font-family="Verdana" font-size="14" lengthAdjust="spacing" textLength="126.2871" x="916.17" y="375.3214">Vertices: []float32</text><ellipse cx="909.17" cy="388.2716" fill="none" rx="3" ry="3" style="stroke:#000000;stroke-width:1;"/><text fill="#000000" font-family="Verdana" font-size="14" lengthAdjust="spacing" textLength="127.5518" x="916.17" y="391.6182">Normals: []float32</text><ellipse cx="909.17" cy="404.5684" fill="none" rx="3" ry="3" style="stroke:#000000;stroke-width:1;"/><text fill="#000000" font-family="Verdana" font-size="14" lengthAdjust="spacing" textLength="143.6504" x="916.17" y="407.9151">TexCoords: []float32</text><ellipse cx="909.17" cy="420.8653" fill="none" rx="3" ry="3" style="stroke:#000000;stroke-width:1;"/><text fill="#000000" font-family="Verdana" font-size="14" lengthAdjust="spacing" textLength="114.4131" x="916.17" y="424.212">Indices: []uint16</text><ellipse cx="909.17" cy="437.1622" fill="none" rx="3" ry="3" style="stroke:#000000;stroke-width:1;"/><text fill="#000000" font-family="Verdana" font-size="14" lengthAdjust="spacing" textLength="115.3291" x="916.17" y="440.5089">VertexCount: int</text><ellipse cx="909.17" cy="453.4591" fill="none" rx="3" ry="3" style="stroke:#000000;stroke-width:1;"/><text fill="#000000" font-family="Verdana" font-size="14" lengthAdjust="spacing" textLength="126.0342" x="916.17" y="456.8057">TriangleCount: int</text><line style="stroke:#000000;stroke-width:1;" x1="899.17" x2="1064.8204" y1="464.1075" y2="464.1075"/></g><!--class State--><g class="entity" data-entity="State" data-source-line="63" data-uid="ent0007" id="entity_State"><rect fill="#FFFFFF" height="255.8594" rx="2.5" ry="2.5" style="stroke:#000000;stroke-width:1;" width="185.9707" x="322.01" y="678.7794"/><ellipse cx="392.7165" cy="692.7794" fill="#FFFFFF" rx="9" ry="9" style="stroke:#000000;stroke-width:1;"/><path d="M395.6853,698.42 Q395.1072,698.7169 394.4665,698.8575 Q393.8259,699.0137 393.1228,699.0137 Q390.6228,699.0137 389.2947,697.3731 Q387.9822,695.7169 387.9822,692.5919 Q387.9822,689.4669 389.2947,687.8106 Q390.6228,686.1544 393.1228,686.1544 Q393.8259,686.1544 394.4665,686.3106 Q395.1228,686.4669 395.6853,686.7637 L395.6853,689.4825 Q395.0603,688.9044 394.4665,688.6387 Q393.8728,688.3575 393.2478,688.3575 Q391.904,688.3575 391.2165,689.4356 Q390.529,690.4981 390.529,692.5919 Q390.529,694.6856 391.2165,695.7637 Q391.904,696.8262 393.2478,696.8262 Q393.8728,696.8262 394.4665,696.5606 Q395.0603,696.2794 395.6853,695.7012 L395.6853,698.42 Z " fill="#000000"/><text fill="#000000" font-family="Verdana" font-size="14" lengthAdjust="spacing" textLength="37.0576" x="410.2165" y="697.6261">State</text><line style="stroke:#000000;stroke-width:1;" x1="323.01" x2="506.9807" y1="706.7794" y2="706.7794"/><text fill="#000000" font-family="Verdana" font-size="14" font-weight="bold" lengthAdjust="spacing" textLength="55.877" x="340.01" y="723.7745">Felder:</text><rect fill="none" height="6" style="stroke:#000000;stroke-width:1;" width="6" x="330.01" y="733.7247"/><text fill="#000000" font-family="Verdana" font-size="14" lengthAdjust="spacing" textLength="135.1875" x="340.01" y="740.0714">mu: sync.RWMutex</text><rect fill="none" height="6" style="stroke:#000000;stroke-width:1;" width="6" x="330.01" y="750.0216"/><text fill="#000000" font-family="Verdana" font-size="14" lengthAdjust="spacing" textLength="94.3906" x="340.01" y="756.3682">clock: float32</text><rect fill="none" height="6" style="stroke:#000000;stroke-width:1;" width="6" x="330.01" y="766.3184"/><text fill="#000000" font-family="Verdana" font-size="14" lengthAdjust="spacing" textLength="123.9697" x="340.01" y="772.6651">camera: *Camera</text><rect fill="none" height="6" style="stroke:#000000;stroke-width:1;" width="6" x="330.01" y="782.6153"/><text fill="#000000" font-family="Verdana" font-size="14" lengthAdjust="spacing" textLength="98.335" x="340.01" y="788.962">water: *Water</text><rect fill="none" height="6" style="stroke:#000000;stroke-width:1;" width="6" x="330.01" y="798.9122"/><text fill="#000000" font-family="Verdana" font-size="14" lengthAdjust="spacing" textLength="108.5752" x="340.01" y="805.2589">mouse: *Mouse</text><rect fill="none" height="6" style="stroke:#000000;stroke-width:1;" width="6" x="330.01" y="815.2091"/><text fill="#000000" font-family="Verdana" font-size="14" lengthAdjust="spacing" textLength="94.2061" x="340.01" y="821.5557">scenery: bool</text><text fill="#000000" font-family="Verdana" font-size="14" lengthAdjust="spacing" textLength="4.4502" x="340.01" y="837.8526">&#160;</text><text fill="#000000" font-family="Verdana" font-size="14" font-weight="bold" lengthAdjust="spacing" textLength="84.7861" x="340.01" y="854.1495">Methoden:</text><line style="stroke:#000000;stroke-width:1;" x1="323.01" x2="506.9807" y1="861.4512" y2="861.4512"/><ellipse cx="333.01" cy="875.0997" fill="#FFFFFF" rx="3" ry="3" style="stroke:#000000;stroke-width:1;"/><text fill="#000000" font-family="Verdana" font-size="14" lengthAdjust="spacing" textLength="161.9707" x="340.01" y="878.4464">Update(msg: Message)</text><ellipse cx="333.01" cy="891.3966" fill="#FFFFFF" rx="3" ry="3" style="stroke:#000000;stroke-width:1;"/><text fill="#000000" font-family="Verdana" font-size="14" lengthAdjust="spacing" textLength="132.3438" x="340.01" y="894.7432">GetClock(): float32</text><ellipse cx="333.01" cy="907.6934" fill="#FFFFFF" rx="3" ry="3" style="stroke:#000000;stroke-width:1;"/><text fill="#000000" font-family="Verdana" font-size="14" lengthAdjust="spacing" textLength="154.9229" x="340.01" y="911.0401">GetCamera(): Camera</text><ellipse cx="333.01" cy="923.9903" fill="#FFFFFF" rx="3" ry="3" style="stroke:#000000;stroke-width:1;"/><text fill="#000000" font-family="Verdana" font-size="14" lengthAdjust="spacing" textLength="129.6025" x="340.01" y="927.337">GetWater(): Water</text></g><!--class Camera--><g class="entity" data-entity="Camera" data-source-line="79" data-uid="ent0008" id="entity_Camera"><rect fill="#FFFFFF" height="337.3438" rx="2.5" ry="2.5" style="stroke:#000000;stroke-width:1;" width="234.8613" x="26.57" y="994.6394"/><ellipse cx="112.7804" cy="1008.6394" fill="#FFFFFF" rx="9" ry="9" style="stroke:#000000;stroke-width:1;"/><path d="M115.7492,1014.28 Q115.1711,1014.5769 114.5304,1014.7175 Q113.8898,1014.8738 113.1867,1014.8738 Q110.6867,1014.8738 109.3586,1013.2331 Q108.0461,1011.5769 108.0461,1008.4519 Q108.0461,1005.3269 109.3586,1003.6706 Q110.6867,1002.0144 113.1867,1002.0144 Q113.8898,1002.0144 114.5304,1002.1706 Q115.1867,1002.3269 115.7492,1002.6238 L115.7492,1005.3425 Q115.1242,1004.7644 114.5304,1004.4988 Q113.9367,1004.2175 113.3117,1004.2175 Q111.9679,1004.2175 111.2804,1005.2956 Q110.5929,1006.3581 110.5929,1008.4519 Q110.5929,1010.5456 111.2804,1011.6238 Q111.9679,1012.6863 113.3117,1012.6863 Q113.9367,1012.6863 114.5304,1012.4206 Q115.1242,1012.1394 115.7492,1011.5613 L115.7492,1014.28 Z " fill="#000000"/><text fill="#000000" font-family="Verdana" font-size="14" lengthAdjust="spacing" textLength="54.9404" x="130.2804" y="1013.4861">Camera</text><line style="stroke:#000000;stroke-width:1;" x1="27.57" x2="260.4313" y1="1022.6394" y2="1022.6394"/><text fill="#000000" font-family="Verdana" font-size="14" font-weight="bold" lengthAdjust="spacing" textLength="69.6855" x="44.57" y="1039.6345">Position:</text><rect fill="none" height="6" style="stroke:#000000;stroke-width:1;" width="6" x="34.57" y="1049.5847"/><text fill="#000000" font-family="Verdana" font-size="14" lengthAdjust="spacing" textLength="99.415" x="44.57" y="1055.9314">position: Vec3</text><rect fill="none" height="6" style="stroke:#000000;stroke-width:1;" width="6" x="34.57" y="1065.8816"/><text fill="#000000" font-family="Verdana" font-size="14" lengthAdjust="spacing" textLength="86.7754" x="44.57" y="1072.2282">target: Vec3</text><rect fill="none" height="6" style="stroke:#000000;stroke-width:1;" width="6" x="34.57" y="1082.1784"/><text fill="#000000" font-family="Verdana" font-size="14" lengthAdjust="spacing" textLength="117.7559" x="44.57" y="1088.5251">distance: float32</text><rect fill="none" height="6" style="stroke:#000000;stroke-width:1;" width="6" x="34.57" y="1098.4753"/><text fill="#000000" font-family="Verdana" font-size="14" lengthAdjust="spacing" textLength="86.748" x="44.57" y="1104.822">yaw: float32</text><rect fill="none" height="6" style="stroke:#000000;stroke-width:1;" width="6" x="34.57" y="1114.7722"/><text fill="#000000" font-family="Verdana" font-size="14" lengthAdjust="spacing" textLength="93.2695" x="44.57" y="1121.1189">pitch: float32</text><text fill="#000000" font-family="Verdana" font-size="14" lengthAdjust="spacing" textLength="4.4502" x="44.57" y="1137.4157">&#160;</text><text fill="#000000" font-family="Verdana" font-size="14" font-weight="bold" lengthAdjust="spacing" textLength="71.0664" x="44.57" y="1153.7126">Grenzen:</text><rect fill="none" height="6" style="stroke:#000000;stroke-width:1;" width="6" x="34.57" y="1163.6628"/><text fill="#000000" font-family="Verdana" font-size="14" lengthAdjust="spacing" textLength="188.9453" x="44.57" y="1170.0095">minDistance: float32 = 5.0</text><rect fill="none" height="6" style="stroke:#000000;stroke-width:1;" width="6" x="34.57" y="1179.9597"/><text fill="#000000" font-family="Verdana" font-size="14" lengthAdjust="spacing" textLength="210.8613" x="44.57" y="1186.3064">maxDistance: float32 = 150.0</text><rect fill="none" height="6" style="stroke:#000000;stroke-width:1;" width="6" x="34.57" y="1196.2566"/><text fill="#000000" font-family="Verdana" font-size="14" lengthAdjust="spacing" textLength="167.1729" x="44.57" y="1202.6032">minPitch: float32 = -1.5</text><rect fill="none" height="6" style="stroke:#000000;stroke-width:1;" width="6" x="34.57" y="1212.5534"/><text fill="#000000" font-family="Verdana" font-size="14" lengthAdjust="spacing" textLength="166.2227" x="44.57" y="1218.9001">maxPitch: float32 = 1.5</text><text fill="#000000" font-family="Verdana" font-size="14" lengthAdjust="spacing" textLength="4.4502" x="44.57" y="1235.197">&#160;</text><text fill="#000000" font-family="Verdana" font-size="14" font-weight="bold" lengthAdjust="spacing" textLength="88.1904" x="44.57" y="1251.4939">Steuerung:</text><line style="stroke:#000000;stroke-width:1;" x1="27.57" x2="260.4313" y1="1258.7956" y2="1258.7956"/><ellipse cx="37.57" cy="1272.4441" fill="#FFFFFF" rx="3" ry="3" style="stroke:#000000;stroke-width:1;"/><text fill="#000000" font-family="Verdana" font-size="14" lengthAdjust="spacing" textLength="145.1201" x="44.57" y="1275.7907">OrbitLeftRight(delta)</text><ellipse cx="37.57" cy="1288.7409" fill="#FFFFFF" rx="3" ry="3" style="stroke:#000000;stroke-width:1;"/><text fill="#000000" font-family="Verdana" font-size="14" lengthAdjust="spacing" textLength="140.2256" x="44.57" y="1292.0876">OrbitUpDown(delta)</text><ellipse cx="37.57" cy="1305.0378" fill="#FFFFFF" rx="3" ry="3" style="stroke:#000000;stroke-width:1;"/><text fill="#000000" font-family="Verdana" font-size="14" lengthAdjust="spacing" textLength="86.7412" x="44.57" y="1308.3845">Zoom(delta)</text><ellipse cx="37.57" cy="1321.3347" fill="#FFFFFF" rx="3" ry="3" style="stroke:#000000;stroke-width:1;"/><text fill="#000000" font-family="Verdana" font-size="14" lengthAdjust="spacing" textLength="157.7051" x="44.57" y="1324.6814">GetViewMatrix(): Mat4</text></g><!--class Water--><g class="entity" data-entity="Water" data-source-line="100" data-uid="ent0009" id="entity_Water"><rect fill="#FFFFFF" height="141.7813" rx="2.5" ry="2.5" style="stroke:#000000;stroke-width:1;" width="237.2881" x="296.36" y="1092.4194"/><ellipse cx="390.1139" cy="1106.4194" fill="#FFFFFF" rx="9" ry="9" style="stroke:#000000;stroke-width:1;"/><path d="M393.0827,1112.06 Q392.5045,1112.3569 391.8639,1112.4975 Q391.2233,1112.6538 390.5202,1112.6538 Q388.0202,1112.6538 386.692,1111.0131 Q385.3795,1109.3569 385.3795,1106.2319 Q385.3795,1103.1069 386.692,1101.4506 Q388.0202,1099.7944 390.5202,1099.7944 Q391.2233,1099.7944 391.8639,1099.9506 Q392.5202,1100.1069 393.0827,1100.4038 L393.0827,1103.1225 Q392.4577,1102.5444 391.8639,1102.2788 Q391.2702,1101.9975 390.6452,1101.9975 Q389.3014,1101.9975 388.6139,1103.0756 Q387.9264,1104.1381 387.9264,1106.2319 Q387.9264,1108.3256 388.6139,1109.4038 Q389.3014,1110.4663 390.6452,1110.4663 Q391.2702,1110.4663 391.8639,1110.2006 Q392.4577,1109.9194 393.0827,1109.3413 L393.0827,1112.06 Z " fill="#000000"/><text fill="#000000" font-family="Verdana" font-size="14" lengthAdjust="spacing" textLength="42.2803" x="407.6139" y="1111.2661">Water</text><line style="stroke:#000000;stroke-width:1;" x1="297.36" x2="532.6481" y1="1120.4194" y2="1120.4194"/><ellipse cx="307.36" cy="1134.0678" fill="none" rx="3" ry="3" style="stroke:#000000;stroke-width:1;"/><text fill="#000000" font-family="Verdana" font-size="14" lengthAdjust="spacing" textLength="180.127" x="314.36" y="1137.4145">Reflectivity: float32 = 0.6</text><ellipse cx="307.36" cy="1150.3647" fill="none" rx="3" ry="3" style="stroke:#000000;stroke-width:1;"/><text fill="#000000" font-family="Verdana" font-size="14" lengthAdjust="spacing" textLength="213.2881" x="314.36" y="1153.7114">FresnelStrength: float32 = 2.0</text><ellipse cx="307.36" cy="1166.6616" fill="none" rx="3" ry="3" style="stroke:#000000;stroke-width:1;"/><text fill="#000000" font-family="Verdana" font-size="14" lengthAdjust="spacing" textLength="193.4434" x="314.36" y="1170.0082">WaveSpeed: float32 = 0.03</text><ellipse cx="307.36" cy="1182.9584" fill="none" rx="3" ry="3" style="stroke:#000000;stroke-width:1;"/><text fill="#000000" font-family="Verdana" font-size="14" lengthAdjust="spacing" textLength="184.8779" x="314.36" y="1186.3051">UseReflection: bool = true</text><ellipse cx="307.36" cy="1199.2553" fill="none" rx="3" ry="3" style="stroke:#000000;stroke-width:1;"/><text fill="#000000" font-family="Verdana" font-size="14" lengthAdjust="spacing" textLength="186.71" x="314.36" y="1202.602">UseRefraction: bool = true</text><line style="stroke:#000000;stroke-width:1;" x1="297.36" x2="532.6481" y1="1209.9038" y2="1209.9038"/><ellipse cx="307.36" cy="1223.5522" fill="#FFFFFF" rx="3" ry="3" style="stroke:#000000;stroke-width:1;"/><text fill="#000000" font-family="Verdana" font-size="14" lengthAdjust="spacing" textLength="205.0371" x="314.36" y="1226.8989">GetDudvOffset(time): float32</text></g><!--class WaterUpdateRequest--><g class="entity" data-entity="WaterUpdateRequest" data-source-line="113" data-uid="ent0011" id="entity_WaterUpdateRequest"><rect fill="#FFFFFF" height="125.4844" rx="2.5" ry="2.5" style="stroke:#000000;stroke-width:1;" width="198.2686" x="1372.87" y="330.3194"/><ellipse cx="1394.7751" cy="344.3194" fill="#FFFFFF" rx="9" ry="9" style="stroke:#000000;stroke-width:1;"/><path d="M1397.7438,349.96 Q1397.1657,350.2569 1396.5251,350.3975 Q1395.8845,350.5537 1395.1813,350.5537 Q1392.6813,350.5537 1391.3532,348.9131 Q1390.0407,347.2569 1390.0407,344.1319 Q1390.0407,341.0069 1391.3532,339.3506 Q1392.6813,337.6944 1395.1813,337.6944 Q1395.8845,337.6944 1396.5251,337.8506 Q1397.1813,338.0069 1397.7438,338.3037 L1397.7438,341.0225 Q1397.1188,340.4444 1396.5251,340.1787 Q1395.9313,339.8975 1395.3063,339.8975 Q1393.9626,339.8975 1393.2751,340.9756 Q1392.5876,342.0381 1392.5876,344.1319 Q1392.5876,346.2256 1393.2751,347.3037 Q1393.9626,348.3662 1395.3063,348.3662 Q1395.9313,348.3662 1396.5251,348.1006 Q1397.1188,347.8194 1397.7438,347.2412 L1397.7438,349.96 Z " fill="#000000"/><text fill="#000000" font-family="Verdana" font-size="14" lengthAdjust="spacing" textLength="150.4795" x="1408.754" y="349.1661">WaterUpdateRequest</text><line style="stroke:#000000;stroke-width:1;" x1="1373.87" x2="1570.1386" y1="358.3194" y2="358.3194"/><ellipse cx="1383.87" cy="371.9678" fill="none" rx="3" ry="3" style="stroke:#000000;stroke-width:1;"/><text fill="#000000" font-family="Verdana" font-size="14" lengthAdjust="spacing" textLength="140.2598" x="1390.87" y="375.3145">reflectivity: *float32</text><ellipse cx="1383.87" cy="388.2647" fill="none" rx="3" ry="3" style="stroke:#000000;stroke-width:1;"/><text fill="#000000" font-family="Verdana" font-size="14" lengthAdjust="spacing" textLength="174.2686" x="1390.87" y="391.6114">fresnelStrength: *float32</text><ellipse cx="1383.87" cy="404.5616" fill="none" rx="3" ry="3" style="stroke:#000000;stroke-width:1;"/><text fill="#000000" font-family="Verdana" font-size="14" lengthAdjust="spacing" textLength="146.248" x="1390.87" y="407.9082">waveSpeed: *float32</text><ellipse cx="1383.87" cy="420.8584" fill="none" rx="3" ry="3" style="stroke:#000000;stroke-width:1;"/><text fill="#000000" font-family="Verdana" font-size="14" lengthAdjust="spacing" textLength="141.1416" x="1390.87" y="424.2051">useReflection: *bool</text><ellipse cx="1383.87" cy="437.1553" fill="none" rx="3" ry="3" style="stroke:#000000;stroke-width:1;"/><text fill="#000000" font-family="Verdana" font-size="14" lengthAdjust="spacing" textLength="142.9736" x="1390.87" y="440.502">useRefraction: *bool</text><line style="stroke:#000000;stroke-width:1;" x1="1373.87" x2="1570.1386" y1="447.8037" y2="447.8037"/></g><!--class CameraUpdateRequest--><g class="entity" data-entity="CameraUpdateRequest" data-source-line="121" data-uid="ent0012" id="entity_CameraUpdateRequest"><rect fill="#FFFFFF" height="109.1875" rx="2.5" ry="2.5" style="stroke:#000000;stroke-width:1;" width="216.9102" x="1606.54" y="338.4694"/><ellipse cx="1631.1367" cy="352.4694" fill="#FFFFFF" rx="9" ry="9" style="stroke:#000000;stroke-width:1;"/><path d="M1634.1055,358.11 Q1633.5274,358.4069 1632.8867,358.5475 Q1632.2461,358.7037 1631.543,358.7037 Q1629.043,358.7037 1627.7149,357.0631 Q1626.4024,355.4069 1626.4024,352.2819 Q1626.4024,349.1569 1627.7149,347.5006 Q1629.043,345.8444 1631.543,345.8444 Q1632.2461,345.8444 1632.8867,346.0006 Q1633.543,346.1569 1634.1055,346.4537 L1634.1055,349.1725 Q1633.4805,348.5944 1632.8867,348.3287 Q1632.293,348.0475 1631.668,348.0475 Q1630.3242,348.0475 1629.6367,349.1256 Q1628.9492,350.1881 1628.9492,352.2819 Q1628.9492,354.3756 1629.6367,355.4537 Q1630.3242,356.5162 1631.668,356.5162 Q1632.293,356.5162 1632.8867,356.2506 Q1633.4805,355.9694 1634.1055,355.3912 L1634.1055,358.11 Z " fill="#000000"/><text fill="#000000" font-family="Verdana" font-size="14" lengthAdjust="spacing" textLength="163.1396" x="1645.7138" y="357.3161">CameraUpdateRequest</text><line style="stroke:#000000;stroke-width:1;" x1="1607.54" x2="1822.4502" y1="366.4694" y2="366.4694"/><ellipse cx="1617.54" cy="380.1178" fill="none" rx="3" ry="3" style="stroke:#000000;stroke-width:1;"/><text fill="#000000" font-family="Verdana" font-size="14" lengthAdjust="spacing" textLength="192.9102" x="1624.54" y="383.4645">mouseDown: *{X, Y: int32}</text><ellipse cx="1617.54" cy="396.4147" fill="none" rx="3" ry="3" style="stroke:#000000;stroke-width:1;"/><text fill="#000000" font-family="Verdana" font-size="14" lengthAdjust="spacing" textLength="112.1914" x="1624.54" y="399.7614">mouseUp: *bool</text><ellipse cx="1617.54" cy="412.7116" fill="none" rx="3" ry="3" style="stroke:#000000;stroke-width:1;"/><text fill="#000000" font-family="Verdana" font-size="14" lengthAdjust="spacing" textLength="190.7842" x="1624.54" y="416.0582">mouseMove: *{X, Y: int32}</text><ellipse cx="1617.54" cy="429.0084" fill="none" rx="3" ry="3" style="stroke:#000000;stroke-width:1;"/><text fill="#000000" font-family="Verdana" font-size="14" lengthAdjust="spacing" textLength="103.5508" x="1624.54" y="432.3551">zoom: *float32</text><line style="stroke:#000000;stroke-width:1;" x1="1607.54" x2="1822.4502" y1="439.6569" y2="439.6569"/></g><g class="entity" data-entity="GMN17" data-source-line="136" data-uid="ent0018" id="entity_GMN17"><path d="M1100.39,335.0994 L1100.39,451.0291 L1337.6166,451.0291 L1337.6166,345.0994 L1327.6166,335.0994 L1100.39,335.0994" fill="#FFFFFF" style="stroke:#000000;stroke-width:1;"/><path d="M1327.6166,335.0994 L1327.6166,345.0994 L1337.6166,345.0994 L1327.6166,335.0994" fill="#FFFFFF" style="stroke:#000000;stroke-width:1;"/><text fill="#000000" font-family="Verdana" font-size="13" font-weight="bold" lengthAdjust="spacing" textLength="100.3501" x="1106.39" y="352.1663">HTTP Routen:</text><text fill="#000000" font-family="Verdana" font-size="13" lengthAdjust="spacing" textLength="179.1436" x="1106.39" y="367.2991">/static/* - Statische Dateien</text><text fill="#000000" font-family="Verdana" font-size="13" lengthAdjust="spacing" textLength="194.854" x="1106.39" y="382.4319">/assets/{filename} - Texturen</text><text fill="#000000" font-family="Verdana" font-size="13" lengthAdjust="spacing" textLength="214.335" x="1106.39" y="397.5647">/shaders/{name} - GLSL Dateien</text><text fill="#000000" font-family="Verdana" font-size="13" lengthAdjust="spacing" textLength="161.0718" x="1106.39" y="412.6975">/api/meshes - Mesh Liste</text><text fill="#000000" font-family="Verdana" font-size="13" lengthAdjust="spacing" textLength="178.3564" x="1106.39" y="427.8303">/api/state - Aktueller Status</text><text fill="#000000" font-family="Verdana" font-size="13" lengthAdjust="spacing" textLength="216.2266" x="1106.39" y="442.9631">/ws - WebSocket Updates (60fps)</text></g><g class="entity" data-entity="GMN20" data-source-line="146" data-uid="ent0021" id="entity_GMN20"><path d="M628.52,1135.6094 L628.52,1191.0078 A0,0 0 0 0 628.52,1191.0078 L931.4765,1191.0078 A0,0 0 0 0 931.4765,1191.0078 L931.4765,1145.6094 L921.4765,1135.6094 L784,1135.6094 L780,918.4494 L776,1135.6094 L628.52,1135.6094 A0,0 0 0 0 628.52,1135.6094" fill="#FFFFFF" style="stroke:#000000;stroke-width:1;"/><path d="M921.4765,1135.6094 L921.4765,1145.6094 L931.4765,1145.6094 L921.4765,1135.6094" fill="#FFFFFF" style="stroke:#000000;stroke-width:1;"/><text fill="#000000" font-family="Verdana" font-size="13" font-weight="bold" lengthAdjust="spacing" textLength="143.7109" x="634.52" y="1152.6763">Generierte Meshes:</text><text fill="#000000" font-family="Verdana" font-size="13" lengthAdjust="spacing" textLength="281.9565" x="634.52" y="1167.8091">water_plane: 20x20 units, 64x64 segments</text><text fill="#000000" font-family="Verdana" font-size="13" lengthAdjust="spacing" textLength="245.9526" x="634.52" y="1182.9419">terrain: 50x50 units, 32x32 segments</text></g><!--link Server to Assets--><g class="link" data-entity-1="Server" data-entity-2="Assets" data-source-line="130" data-uid="lnk13" id="link_Server_Assets"><path codeLine="130" d="M755.98,619.1594 C759.35,645.3394 761.9044,665.1484 764.9444,688.7784" fill="none" id="Server-to-Assets" style="stroke:#000000;stroke-width:1;"/><polygon fill="#000000" points="765.71,694.7294,768.5289,685.2925,765.072,689.7702,760.5943,686.3133,765.71,694.7294" style="stroke:#000000;stroke-width:1;"/></g><!--link Server to State--><g class="link" data-entity-1="Server" data-entity-2="State" data-source-line="131" data-uid="lnk14" id="link_Server_State"><path codeLine="131" d="M590.15,574.6194 C562.56,611.0194 537.7846,643.7079 512.0946,677.5979" fill="none" id="Server-to-State" style="stroke:#000000;stroke-width:1;"/><polygon fill="#000000" points="508.47,682.3794,517.0945,677.6235,511.4905,678.3948,510.7192,672.7908,508.47,682.3794" style="stroke:#000000;stroke-width:1;"/></g><!--link State to Camera--><g class="link" data-entity-1="State" data-entity-2="Camera" data-source-line="132" data-uid="lnk15" id="link_State_Camera"><path codeLine="132" d="M321.74,929.7394 C302.45,954.9794 285.5344,977.123 265.4944,1003.333" fill="none" id="State-to-Camera" style="stroke:#000000;stroke-width:1;"/><polygon fill="#000000" points="261.85,1008.0994,270.4941,1003.3793,264.887,1004.1274,264.1389,998.5202,261.85,1008.0994" style="stroke:#000000;stroke-width:1;"/></g><!--link State to Water--><g class="link" data-entity-1="State" data-entity-2="Water" data-source-line="133" data-uid="lnk16" id="link_State_Water"><path codeLine="133" d="M415,934.9694 C415,987.9094 415,1041.3294 415,1086.1394" fill="none" id="State-to-Water" style="stroke:#000000;stroke-width:1;"/><polygon fill="#000000" points="415,1092.1394,419,1083.1394,415,1087.1394,411,1083.1394,415,1092.1394" style="stroke:#000000;stroke-width:1;"/></g><!--link Server to GMN17--><g class="link" data-entity-1="Server" data-entity-2="GMN17" data-source-line="136" data-uid="lnk19" id="link_Server_GMN17"><path d="M820.21,166.9494 C841.65,137.9094 867.52,112.1494 898.5,94.3594 C962.48,57.6094 1000.52,57.6094 1064.5,94.3594 C1151.96,144.5894 1191.74,263.0494 1208.36,334.7794" fill="none" id="Server-GMN17" style="stroke:#000000;stroke-width:1;stroke-dasharray:7,7;"/></g><!--SRC=[TLPPJ-D847xth-YTfn38GJWUBCrAiq4meqrs485XPn5QTUnAqXgxszlT9W74Vz_gonVXoVRtbQlhhlvDRo07KcIKyIZIJ6T0xc5vDIFtL8Ca0t8bo1yq-GKy9LEHmk1FAZL4KO4ONGFvj03vX8BNxliJUOqYGfACAaKyzOe08Vt-9MGfoBZVjzy38aM9HyIadvUxuOtzy0p-35eXyyM-1BGe5XgjGjm-FLmMQqcDOhA5fH9egXxUUSoB91a3RXJcj7Zers9JmVdZKeZCoobKov9hgZSnlal6rvueXDGnOLn7tfUljxVNv2lbQLPxT4Ws5lZ6KzZr3bgOTUIIPT315njZPWUy0Zq7jG6r7t-Fsd1quBiYHT1cSIypfJb8sg4mzGiR6iIzftFACQyvng_syo_Okjps3amoxAkdq1If3GnIYW2YxsLXCroxf8oWDTpPuvYtkdfSxglgkK0PNXTFRWFaCkfIzTWtmV6qXfqkPLVWrg5UPaaLj78TF0QzmKhdjR_VEDECPkm5kfw5b72C9b8zQyEH4mcUpfYgyXcJXyT6PHsIgOIG9gj8uI576B2rYRWouQsy2iAtg1tRTO_u4Ta0MszquxT6G0tYmuafH8DRHNv8Ve34wZSnUtXSPOBgaqaG5ZAdsHu20peLGgPxAEo2eAp4nZa-RvnY_YgvxoYlIJBArncq23J-hJbgJBNidpIM-MZGv2Lw-ioJuStz76jmLqq5BFMODCr6qBO5ni_rXqUtr4qgcwUWLPJApAAvUOO1aW07-HmJErG-h2TNyRrShMEJ5ONk7DG5DJLscL9f1zGmlcTZqh3EChxFOn8iREJToLRHkHOAgraqUga822OdEGaTHEKQT0jAiP0fJw0RisUwxK85qycc1ltHLnBuIwkB6R_eAYMVoTbm70JeRf_0yTcu5c7ykdKQyeFZuLcjuHrjM6_IGaC9ikJhEZlVvPBf6QpqZUcbNWgPfWTDxgwu45lU9luH8cyZc9KV3BPpYZssCwd1jzDsPjoE3Irv0wiC4isUc7vkMZiUXjwvn8d68LjeZEDQjroQ-7WSej8dM1G0QLl7-2GKdu9maacvgLGKqBA4be2a7mgWPnTb-lHzjS89tTFCZhuw_vskjQiIJIv_cTdBMtrh0-2wuGR-Aq7fAXgo5Or-knTMtK1q-6qTWmvJjhtlLzi_K9NVWNhNIVljjUF0r0N- -Vht4VbfXzZ9vAt9tnNj8oqu5q_mmKylM5Kj5rni_SLgCFZTRyacukv6RYAQRpygQi2DY8WB_9Qcn8bO-RjQv6ysTbVRFXsvEz6eZwraL32LR82OPOnNgcZaRcgZrnLURSmEV4CnlsMHLVPsWtIWhcQBMUFdWetS7aVARYUpAi4HojbBlc3PG8RNB7jygQBHreXNDnK_J1NfdOzNXJg8p4tL-EOzN0gjHMvSzA72CMI6D3DxYBYzR1or8_vVl0XpJCPal9kCIObh7tVg-Udk_BJQiP5swpScP-FTMILqCjbXerL2mOZ_0G00]--></g></svg>