<svg xmlns="http://www.w3.org/2000/svg" xmlns:xlink="http://www.w3.org/1999/xlink" contentStyleType="text/css" data-diagram-type="DESCRIPTION" height="690px" preserveAspectRatio="none" style="width:2583px;height:690px;background:#FFFFFF;" version="1.1" viewBox="0 0 2583 690" width="2583px" zoomAndPan="magnify"><title>WebGL Water Tutorial - System Architektur</title><defs/><g><g class="title" data-source-line="5"><text fill="#000000" font-family="Verdana" font-size="22" font-weight="bold" lengthAdjust="spacing" textLength="539.7734" x="1017.1133" y="35.4209">WebGL Water Tutorial - System Architektur</text></g><!--cluster Frontend (Browser)--><g class="cluster" data-entity="Frontend .Browser." data-source-line="7" data-uid="ent0002" id="cluster_Frontend .Browser."><path d="M13.5,57.6094 L169.2588,57.6094 A3.75,3.75 0 0 1 171.7588,60.1094 L178.7588,79.9063 L905.5,79.9063 A2.5,2.5 0 0 1 908,82.4063 L908,308.8194 A2.5,2.5 0 0 1 905.5,311.3194 L13.5,311.3194 A2.5,2.5 0 0 1 11,308.8194 L11,60.1094 A2.5,2.5 0 0 1 13.5,57.6094" fill="#FFFFFF" style="stroke:#000000;stroke-width:1;"/><line style="stroke:#000000;stroke-width:1;" x1="11" x2="178.7588" y1="79.9063" y2="79.9063"/><text fill="#000000" font-family="Verdana" font-size="14" font-weight="bold" lengthAdjust="spacing" textLength="154.7588" x="15" y="72.6045">Frontend (Browser)</text></g><!--cluster Backend (Go Server)--><g class="cluster" data-entity="Backend .Go Server." data-source-line="24" data-uid="ent0016" id="cluster_Backend .Go Server."><path d="M934.5,214.0294 L1098.373,214.0294 A3.75,3.75 0 0 1 1100.873,216.5294 L1107.873,236.3263 L1752.5,236.3263 A2.5,2.5 0 0 1 1755,238.8263 L1755,680.8294 A2.5,2.5 0 0 1 1752.5,683.3294 L934.5,683.3294 A2.5,2.5 0 0 1 932,680.8294 L932,216.5294 A2.5,2.5 0 0 1 934.5,214.0294" fill="#FFFFFF" style="stroke:#000000;stroke-width:1;"/><line style="stroke:#000000;stroke-width:1;" x1="932" x2="1107.873" y1="236.3263" y2="236.3263"/><text fill="#000000" font-family="Verdana" font-size="14" font-weight="bold" lengthAdjust="spacing" textLength="162.873" x="936" y="229.0245">Backend (Go Server)</text></g><!--cluster Dateisystem--><g class="cluster" data-entity="Dateisystem" data-source-line="41" data-uid="ent0030" id="cluster_Dateisystem"><path d="M64.1746,493.401 C83.3519,461.4299 103.8995,467.1938 124.778,491.5713 C137.4842,464.6722 166.3737,455.9823 184.8634,485.4009 C210.2949,459.5324 231.4359,455.0706 250.8478,491.7511 C265.0315,461.7871 289.4734,461.2341 307.3671,488.0588 C324.4926,462.0987 346.5586,463.0739 362.36,489.4501 C380.9447,455.9484 409.7106,459.1446 429.6248,488.0164 C447.4089,465.313 466.8394,464.2581 481.5876,491.1944 C492.097,459.1556 519.9433,457.3273 539.4267,482.0501 C560.0233,455.4964 582.7911,457.8291 598.4594,487.2479 C615.6049,452.4754 646.7182,452.0487 666.2332,484.8721 C682.6137,462.5274 706.4157,461.0377 718.5649,489.2518 C736.2634,461.3033 764.3671,456.2322 784.5338,486.4527 C802.647,466.0189 825.5733,465.8169 837.1973,493.5481 C849.9633,459.663 874.3399,456.7792 895.6613,485.5673 C907.4751,489.398 908.563,498.8275 898.7755,505.9575 C910.9321,511.1126 913.3843,518.7137 905.1922,529.4312 C913.0584,536.8731 912.4177,543.1889 901.7082,546.9329 C914.1942,556.6329 915.2838,568.3088 899.6568,576.0266 C880.5433,605.0858 854.3393,604.0918 837.627,573.5284 C819.5135,599.416 796.4495,598.2274 784.5134,567.7114 C769.1653,600.9422 736.7697,599.2386 718.9987,570.263 C705.3247,597.6847 688.3866,597.0266 667.8375,577.804 C648.7193,606.9255 619.8081,612.8362 600.821,577.6672 C582.2044,607.4918 559.931,605.3993 544.1578,574.9922 C526.7983,610.5047 505.8036,606.491 482.7741,580.6664 C464.2216,609.6766 444.0482,602.5621 428.1903,577.9247 C405.3013,605.4932 383.8839,607.5553 363.0094,575.7144 C344.5588,607.9111 322.9735,606.6512 304.1738,576.0415 C285.883,605.3778 259.9794,605.149 244.3798,573.407 C230.5163,602.1224 206.7711,604.4233 189.0665,577.2055 C167.0345,600.2657 148.8365,603.9425 130.8342,572.8705 C109.9058,604.9483 82.2302,597.8997 66.8818,567.1872 C56.5094,563.7942 54.7255,554.8072 62.1246,547.187 C52.2651,542.9133 51.5544,533.2011 59.2595,526.4953 C50.7998,521.1554 53.3038,512.9199 60.9639,509.1655 C55.5066,502.6627 54.4791,496.8176 64.1746,493.401" fill="#FFFFFF" style="stroke:#000000;stroke-width:1;"/><text fill="#000000" font-family="Verdana" font-size="14" font-weight="bold" lengthAdjust="spacing" textLength="98.6221" x="429.689" y="502.7345">Dateisystem</text></g><!--cluster Laufzeit Daten--><g class="cluster" data-entity="Laufzeit Daten" data-source-line="48" data-uid="ent0035" id="cluster_Laufzeit Daten"><path d="M1779,471.7394 C1779,461.7394 2172.5,461.7394 2172.5,461.7394 C2172.5,461.7394 2566,461.7394 2566,471.7394 L2566,564.0294 C2566,574.0294 2172.5,574.0294 2172.5,574.0294 C2172.5,574.0294 1779,574.0294 1779,564.0294 L1779,471.7394" fill="#FFFFFF" style="stroke:#000000;stroke-width:1;"/><path d="M1779,471.7394 C1779,481.7394 2172.5,481.7394 2172.5,481.7394 C2172.5,481.7394 2566,481.7394 2566,471.7394" fill="none" style="stroke:#000000;stroke-width:1;"/><text fill="#000000" font-family="Verdana" font-size="14" font-weight="bold" lengthAdjust="spacing" textLength="115.6572" x="2114.6714" y="496.7345">Laufzeit Daten</text></g><!--entity Canvas--><g class="entity" data-entity="Canvas" data-source-line="8" data-uid="ent0003" id="entity_Canvas"><rect fill="#FFFFFF" height="46.2969" rx="2.5" ry="2.5" style="stroke:#000000;stroke-width:1;" width="134.7939" x="33.6" y="92.6094"/><rect fill="#FFFFFF" height="10" style="stroke:#000000;stroke-width:1;" width="15" x="148.3939" y="97.6094"/><rect fill="#FFFFFF" height="2" style="stroke:#000000;stroke-width:1;" width="4" x="146.3939" y="99.6094"/><rect fill="#FFFFFF" height="2" style="stroke:#000000;stroke-width:1;" width="4" x="146.3939" y="103.6094"/><text fill="#000000" font-family="Verdana" font-size="14" lengthAdjust="spacing" textLength="94.7939" x="48.6" y="125.6045">HTML Canvas</text></g><!--entity WebGL--><g class="entity" data-entity="WebGL" data-source-line="9" data-uid="ent0004" id="entity_WebGL"><rect fill="#FFFFFF" height="46.2969" rx="2.5" ry="2.5" style="stroke:#000000;stroke-width:1;" width="148.9375" x="26.53" y="249.0294"/><rect fill="#FFFFFF" height="10" style="stroke:#000000;stroke-width:1;" width="15" x="155.4675" y="254.0294"/><rect fill="#FFFFFF" height="2" style="stroke:#000000;stroke-width:1;" width="4" x="153.4675" y="256.0294"/><rect fill="#FFFFFF" height="2" style="stroke:#000000;stroke-width:1;" width="4" x="153.4675" y="260.0294"/><text fill="#000000" font-family="Verdana" font-size="14" lengthAdjust="spacing" textLength="108.9375" x="41.53" y="282.0245">WebGL Kontext</text></g><!--entity JSApp--><g class="entity" data-entity="JSApp" data-source-line="10" data-uid="ent0005" id="entity_JSApp"><rect fill="#FFFFFF" height="46.2969" rx="2.5" ry="2.5" style="stroke:#000000;stroke-width:1;" width="197.5342" x="634.23" y="92.6094"/><rect fill="#FFFFFF" height="10" style="stroke:#000000;stroke-width:1;" width="15" x="811.7642" y="97.6094"/><rect fill="#FFFFFF" height="2" style="stroke:#000000;stroke-width:1;" width="4" x="809.7642" y="99.6094"/><rect fill="#FFFFFF" height="2" style="stroke:#000000;stroke-width:1;" width="4" x="809.7642" y="103.6094"/><text fill="#000000" font-family="Verdana" font-size="14" lengthAdjust="spacing" textLength="157.5342" x="649.23" y="125.6045">JavaScript Anwendung</text></g><!--entity Shaders--><g class="entity" data-entity="Shaders" data-source-line="11" data-uid="ent0006" id="entity_Shaders"><rect fill="#FFFFFF" height="46.2969" rx="2.5" ry="2.5" style="stroke:#000000;stroke-width:1;" width="175.9189" x="210.04" y="249.0294"/><rect fill="#FFFFFF" height="10" style="stroke:#000000;stroke-width:1;" width="15" x="365.9589" y="254.0294"/><rect fill="#FFFFFF" height="2" style="stroke:#000000;stroke-width:1;" width="4" x="363.9589" y="256.0294"/><rect fill="#FFFFFF" height="2" style="stroke:#000000;stroke-width:1;" width="4" x="363.9589" y="260.0294"/><text fill="#000000" font-family="Verdana" font-size="14" lengthAdjust="spacing" textLength="135.9189" x="225.04" y="282.0245">Shader Programme</text></g><!--entity Textures--><g class="entity" data-entity="Textures" data-source-line="12" data-uid="ent0007" id="entity_Textures"><rect fill="#FFFFFF" height="46.2969" rx="2.5" ry="2.5" style="stroke:#000000;stroke-width:1;" width="151.3848" x="421.31" y="249.0294"/><rect fill="#FFFFFF" height="10" style="stroke:#000000;stroke-width:1;" width="15" x="552.6948" y="254.0294"/><rect fill="#FFFFFF" height="2" style="stroke:#000000;stroke-width:1;" width="4" x="550.6948" y="256.0294"/><rect fill="#FFFFFF" height="2" style="stroke:#000000;stroke-width:1;" width="4" x="550.6948" y="260.0294"/><text fill="#000000" font-family="Verdana" font-size="14" lengthAdjust="spacing" textLength="111.3848" x="436.31" y="282.0245">Textur Manager</text></g><!--entity Meshes--><g class="entity" data-entity="Meshes" data-source-line="13" data-uid="ent0008" id="entity_Meshes"><rect fill="#FFFFFF" height="46.2969" rx="2.5" ry="2.5" style="stroke:#000000;stroke-width:1;" width="122.8516" x="607.57" y="249.0294"/><rect fill="#FFFFFF" height="10" style="stroke:#000000;stroke-width:1;" width="15" x="710.4216" y="254.0294"/><rect fill="#FFFFFF" height="2" style="stroke:#000000;stroke-width:1;" width="4" x="708.4216" y="256.0294"/><rect fill="#FFFFFF" height="2" style="stroke:#000000;stroke-width:1;" width="4" x="708.4216" y="260.0294"/><text fill="#000000" font-family="Verdana" font-size="14" lengthAdjust="spacing" textLength="82.8516" x="622.57" y="282.0245">Mesh Puffer</text></g><!--entity FBs--><g class="entity" data-entity="FBs" data-source-line="14" data-uid="ent0009" id="entity_FBs"><rect fill="#FFFFFF" height="46.2969" rx="2.5" ry="2.5" style="stroke:#000000;stroke-width:1;" width="126.625" x="765.69" y="249.0294"/><rect fill="#FFFFFF" height="10" style="stroke:#000000;stroke-width:1;" width="15" x="872.315" y="254.0294"/><rect fill="#FFFFFF" height="2" style="stroke:#000000;stroke-width:1;" width="4" x="870.315" y="256.0294"/><rect fill="#FFFFFF" height="2" style="stroke:#000000;stroke-width:1;" width="4" x="870.315" y="260.0294"/><text fill="#000000" font-family="Verdana" font-size="14" lengthAdjust="spacing" textLength="86.625" x="780.69" y="282.0245">Framebuffer</text></g><!--entity HTTPServer--><g class="entity" data-entity="HTTPServer" data-source-line="25" data-uid="ent0017" id="entity_HTTPServer"><rect fill="#FFFFFF" height="46.2969" rx="2.5" ry="2.5" style="stroke:#000000;stroke-width:1;" width="126.4336" x="958.78" y="249.0294"/><rect fill="#FFFFFF" height="10" style="stroke:#000000;stroke-width:1;" width="15" x="1065.2136" y="254.0294"/><rect fill="#FFFFFF" height="2" style="stroke:#000000;stroke-width:1;" width="4" x="1063.2136" y="256.0294"/><rect fill="#FFFFFF" height="2" style="stroke:#000000;stroke-width:1;" width="4" x="1063.2136" y="260.0294"/><text fill="#000000" font-family="Verdana" font-size="14" lengthAdjust="spacing" textLength="86.4336" x="973.78" y="282.0245">HTTP Server</text></g><!--entity StaticFS--><g class="entity" data-entity="StaticFS" data-source-line="26" data-uid="ent0018" id="entity_StaticFS"><rect fill="#FFFFFF" height="46.2969" rx="2.5" ry="2.5" style="stroke:#000000;stroke-width:1;" width="214.46" x="947.77" y="368.4394"/><rect fill="#FFFFFF" height="10" style="stroke:#000000;stroke-width:1;" width="15" x="1142.23" y="373.4394"/><rect fill="#FFFFFF" height="2" style="stroke:#000000;stroke-width:1;" width="4" x="1140.23" y="375.4394"/><rect fill="#FFFFFF" height="2" style="stroke:#000000;stroke-width:1;" width="4" x="1140.23" y="379.4394"/><text fill="#000000" font-family="Verdana" font-size="14" lengthAdjust="spacing" textLength="174.46" x="962.77" y="401.4345">Statische Dateien Server</text></g><!--entity AssetMgr--><g class="entity" data-entity="AssetMgr" data-source-line="27" data-uid="ent0019" id="entity_AssetMgr"><rect fill="#FFFFFF" height="46.2969" rx="2.5" ry="2.5" style="stroke:#000000;stroke-width:1;" width="144.084" x="1196.96" y="368.4394"/><rect fill="#FFFFFF" height="10" style="stroke:#000000;stroke-width:1;" width="15" x="1321.044" y="373.4394"/><rect fill="#FFFFFF" height="2" style="stroke:#000000;stroke-width:1;" width="4" x="1319.044" y="375.4394"/><rect fill="#FFFFFF" height="2" style="stroke:#000000;stroke-width:1;" width="4" x="1319.044" y="379.4394"/><text fill="#000000" font-family="Verdana" font-size="14" lengthAdjust="spacing" textLength="104.084" x="1211.96" y="401.4345">Asset Manager</text></g><!--entity StateMgr--><g class="entity" data-entity="StateMgr" data-source-line="28" data-uid="ent0020" id="entity_StateMgr"><rect fill="#FFFFFF" height="46.2969" rx="2.5" ry="2.5" style="stroke:#000000;stroke-width:1;" width="150.4277" x="1375.79" y="368.4394"/><rect fill="#FFFFFF" height="10" style="stroke:#000000;stroke-width:1;" width="15" x="1506.2177" y="373.4394"/><rect fill="#FFFFFF" height="2" style="stroke:#000000;stroke-width:1;" width="4" x="1504.2177" y="375.4394"/><rect fill="#FFFFFF" height="2" style="stroke:#000000;stroke-width:1;" width="4" x="1504.2177" y="379.4394"/><text fill="#000000" font-family="Verdana" font-size="14" lengthAdjust="spacing" textLength="110.4277" x="1390.79" y="401.4345">Status Manager</text></g><!--entity WSHandler--><g class="entity" data-entity="WSHandler" data-source-line="29" data-uid="ent0021" id="entity_WSHandler"><rect fill="#FFFFFF" height="46.2969" rx="2.5" ry="2.5" style="stroke:#000000;stroke-width:1;" width="178.2773" x="1560.86" y="368.4394"/><rect fill="#FFFFFF" height="10" style="stroke:#000000;stroke-width:1;" width="15" x="1719.1373" y="373.4394"/><rect fill="#FFFFFF" height="2" style="stroke:#000000;stroke-width:1;" width="4" x="1717.1373" y="375.4394"/><rect fill="#FFFFFF" height="2" style="stroke:#000000;stroke-width:1;" width="4" x="1717.1373" y="379.4394"/><text fill="#000000" font-family="Verdana" font-size="14" lengthAdjust="spacing" textLength="138.2773" x="1575.86" y="401.4345">WebSocket Handler</text></g><!--entity CameraSys--><g class="entity" data-entity="CameraSys" data-source-line="30" data-uid="ent0022" id="entity_CameraSys"><rect fill="#FFFFFF" height="46.2969" rx="2.5" ry="2.5" style="stroke:#000000;stroke-width:1;" width="151.002" x="1375.5" y="511.7394"/><rect fill="#FFFFFF" height="10" style="stroke:#000000;stroke-width:1;" width="15" x="1506.502" y="516.7394"/><rect fill="#FFFFFF" height="2" style="stroke:#000000;stroke-width:1;" width="4" x="1504.502" y="518.7394"/><rect fill="#FFFFFF" height="2" style="stroke:#000000;stroke-width:1;" width="4" x="1504.502" y="522.7394"/><text fill="#000000" font-family="Verdana" font-size="14" lengthAdjust="spacing" textLength="111.002" x="1390.5" y="544.7345">Kamera System</text></g><!--entity Math3D--><g class="entity" data-entity="Math3D" data-source-line="31" data-uid="ent0023" id="entity_Math3D"><rect fill="#FFFFFF" height="46.2969" rx="2.5" ry="2.5" style="stroke:#000000;stroke-width:1;" width="168.9668" x="1366.52" y="621.0294"/><rect fill="#FFFFFF" height="10" style="stroke:#000000;stroke-width:1;" width="15" x="1515.4868" y="626.0294"/><rect fill="#FFFFFF" height="2" style="stroke:#000000;stroke-width:1;" width="4" x="1513.4868" y="628.0294"/><rect fill="#FFFFFF" height="2" style="stroke:#000000;stroke-width:1;" width="4" x="1513.4868" y="632.0294"/><text fill="#000000" font-family="Verdana" font-size="14" lengthAdjust="spacing" textLength="128.9668" x="1381.52" y="654.0245">Math3D Bibliothek</text></g><!--entity ShaderFiles--><g class="entity" data-entity="ShaderFiles" data-source-line="42" data-uid="ent0031" id="entity_ShaderFiles"><rect fill="#FFFFFF" height="46.2969" rx="2.5" ry="2.5" style="stroke:#000000;stroke-width:1;" width="192.667" x="260.67" y="511.7394"/><rect fill="#FFFFFF" height="10" style="stroke:#000000;stroke-width:1;" width="15" x="433.337" y="516.7394"/><rect fill="#FFFFFF" height="2" style="stroke:#000000;stroke-width:1;" width="4" x="431.337" y="518.7394"/><rect fill="#FFFFFF" height="2" style="stroke:#000000;stroke-width:1;" width="4" x="431.337" y="522.7394"/><text fill="#000000" font-family="Verdana" font-size="14" lengthAdjust="spacing" textLength="152.667" x="275.67" y="544.7345">Shader Dateien (.glsl)</text></g><!--entity TextureFiles--><g class="entity" data-entity="TextureFiles" data-source-line="43" data-uid="ent0032" id="entity_TextureFiles"><rect fill="#FFFFFF" height="46.2969" rx="2.5" ry="2.5" style="stroke:#000000;stroke-width:1;" width="191.3271" x="488.34" y="511.7394"/><rect fill="#FFFFFF" height="10" style="stroke:#000000;stroke-width:1;" width="15" x="659.6671" y="516.7394"/><rect fill="#FFFFFF" height="2" style="stroke:#000000;stroke-width:1;" width="4" x="657.6671" y="518.7394"/><rect fill="#FFFFFF" height="2" style="stroke:#000000;stroke-width:1;" width="4" x="657.6671" y="522.7394"/><text fill="#000000" font-family="Verdana" font-size="14" lengthAdjust="spacing" textLength="151.3271" x="503.34" y="544.7345">Textur Dateien (.png)</text></g><!--entity MeshFiles--><g class="entity" data-entity="MeshFiles" data-source-line="44" data-uid="ent0033" id="entity_MeshFiles"><rect fill="#FFFFFF" height="46.2969" rx="2.5" ry="2.5" style="stroke:#000000;stroke-width:1;" width="172.0908" x="714.95" y="511.7394"/><rect fill="#FFFFFF" height="10" style="stroke:#000000;stroke-width:1;" width="15" x="867.0408" y="516.7394"/><rect fill="#FFFFFF" height="2" style="stroke:#000000;stroke-width:1;" width="4" x="865.0408" y="518.7394"/><rect fill="#FFFFFF" height="2" style="stroke:#000000;stroke-width:1;" width="4" x="865.0408" y="522.7394"/><text fill="#000000" font-family="Verdana" font-size="14" lengthAdjust="spacing" textLength="132.0908" x="729.95" y="544.7345">Mesh Daten (.json)</text></g><!--entity StaticAssets--><g class="entity" data-entity="StaticAssets" data-source-line="45" data-uid="ent0034" id="entity_StaticAssets"><rect fill="#FFFFFF" height="46.2969" rx="2.5" ry="2.5" style="stroke:#000000;stroke-width:1;" width="154.8232" x="70.59" y="511.7394"/><rect fill="#FFFFFF" height="10" style="stroke:#000000;stroke-width:1;" width="15" x="205.4132" y="516.7394"/><rect fill="#FFFFFF" height="2" style="stroke:#000000;stroke-width:1;" width="4" x="203.4132" y="518.7394"/><rect fill="#FFFFFF" height="2" style="stroke:#000000;stroke-width:1;" width="4" x="203.4132" y="522.7394"/><text fill="#000000" font-family="Verdana" font-size="14" lengthAdjust="spacing" textLength="114.8232" x="85.59" y="544.7345">Statische Assets</text></g><!--entity AppState--><g class="entity" data-entity="AppState" data-source-line="49" data-uid="ent0036" id="entity_AppState"><rect fill="#FFFFFF" height="46.2969" rx="2.5" ry="2.5" style="stroke:#000000;stroke-width:1;" width="173.2188" x="1795.39" y="511.7394"/><rect fill="#FFFFFF" height="10" style="stroke:#000000;stroke-width:1;" width="15" x="1948.6088" y="516.7394"/><rect fill="#FFFFFF" height="2" style="stroke:#000000;stroke-width:1;" width="4" x="1946.6088" y="518.7394"/><rect fill="#FFFFFF" height="2" style="stroke:#000000;stroke-width:1;" width="4" x="1946.6088" y="522.7394"/><text fill="#000000" font-family="Verdana" font-size="14" lengthAdjust="spacing" textLength="133.2188" x="1810.39" y="544.7345">Anwendungsstatus</text></g><!--entity CameraState--><g class="entity" data-entity="CameraState" data-source-line="50" data-uid="ent0037" id="entity_CameraState"><rect fill="#FFFFFF" height="46.2969" rx="2.5" ry="2.5" style="stroke:#000000;stroke-width:1;" width="143.4072" x="2003.3" y="511.7394"/><rect fill="#FFFFFF" height="10" style="stroke:#000000;stroke-width:1;" width="15" x="2126.7072" y="516.7394"/><rect fill="#FFFFFF" height="2" style="stroke:#000000;stroke-width:1;" width="4" x="2124.7072" y="518.7394"/><rect fill="#FFFFFF" height="2" style="stroke:#000000;stroke-width:1;" width="4" x="2124.7072" y="522.7394"/><text fill="#000000" font-family="Verdana" font-size="14" lengthAdjust="spacing" textLength="103.4072" x="2018.3" y="544.7345">Kamera Status</text></g><!--entity WaterProps--><g class="entity" data-entity="WaterProps" data-source-line="51" data-uid="ent0038" id="entity_WaterProps"><rect fill="#FFFFFF" height="46.2969" rx="2.5" ry="2.5" style="stroke:#000000;stroke-width:1;" width="195.2852" x="2181.36" y="511.7394"/><rect fill="#FFFFFF" height="10" style="stroke:#000000;stroke-width:1;" width="15" x="2356.6452" y="516.7394"/><rect fill="#FFFFFF" height="2" style="stroke:#000000;stroke-width:1;" width="4" x="2354.6452" y="518.7394"/><rect fill="#FFFFFF" height="2" style="stroke:#000000;stroke-width:1;" width="4" x="2354.6452" y="522.7394"/><text fill="#000000" font-family="Verdana" font-size="14" lengthAdjust="spacing" textLength="155.2852" x="2196.36" y="544.7345">Wasser Eigenschaften</text></g><!--entity SceneData--><g class="entity" data-entity="SceneData" data-source-line="52" data-uid="ent0039" id="entity_SceneData"><rect fill="#FFFFFF" height="46.2969" rx="2.5" ry="2.5" style="stroke:#000000;stroke-width:1;" width="137.9932" x="2412" y="511.7394"/><rect fill="#FFFFFF" height="10" style="stroke:#000000;stroke-width:1;" width="15" x="2529.9932" y="516.7394"/><rect fill="#FFFFFF" height="2" style="stroke:#000000;stroke-width:1;" width="4" x="2527.9932" y="518.7394"/><rect fill="#FFFFFF" height="2" style="stroke:#000000;stroke-width:1;" width="4" x="2527.9932" y="522.7394"/><text fill="#000000" font-family="Verdana" font-size="14" lengthAdjust="spacing" textLength="97.9932" x="2427" y="544.7345">Szenen Daten</text></g><g class="entity" data-entity="GMN52" data-source-line="70" data-uid="ent0053" id="entity_GMN52"><path d="M923.68,80.4894 L923.68,111.7594 L832.23,115.7594 L923.68,119.7594 L923.68,151.0206 A0,0 0 0 0 923.68,151.0206 L1126.3182,151.0206 A0,0 0 0 0 1126.3182,151.0206 L1126.3182,90.4894 L1116.3182,80.4894 L923.68,80.4894 A0,0 0 0 0 923.68,80.4894" fill="#FFFFFF" style="stroke:#000000;stroke-width:1;"/><path d="M1116.3182,80.4894 L1116.3182,90.4894 L1126.3182,90.4894 L1116.3182,80.4894" fill="#FFFFFF" style="stroke:#000000;stroke-width:1;"/><text fill="#000000" font-family="Verdana" font-size="13" lengthAdjust="spacing" textLength="181.6382" x="929.68" y="97.5563">- WebGL Rendering Pipeline</text><text fill="#000000" font-family="Verdana" font-size="13" lengthAdjust="spacing" textLength="145.7422" x="929.68" y="112.6891">- Multi-Pass Rendering</text><text fill="#000000" font-family="Verdana" font-size="13" lengthAdjust="spacing" textLength="131.46" x="929.68" y="127.8219">- Echtzeit Animation</text><text fill="#000000" font-family="Verdana" font-size="13" lengthAdjust="spacing" textLength="138.1694" x="929.68" y="142.9547">- Benutzerinteraktion</text></g><g class="entity" data-entity="GMN55" data-source-line="77" data-uid="ent0056" id="entity_GMN55"><path d="M1771.37,236.9094 L1771.37,268.1694 L1085.68,272.1694 L1771.37,276.1694 L1771.37,307.4406 A0,0 0 0 0 1771.37,307.4406 L1988.6205,307.4406 A0,0 0 0 0 1988.6205,307.4406 L1988.6205,246.9094 L1978.6205,236.9094 L1771.37,236.9094 A0,0 0 0 0 1771.37,236.9094" fill="#FFFFFF" style="stroke:#000000;stroke-width:1;"/><path d="M1978.6205,236.9094 L1978.6205,246.9094 L1988.6205,246.9094 L1978.6205,236.9094" fill="#FFFFFF" style="stroke:#000000;stroke-width:1;"/><text fill="#000000" font-family="Verdana" font-size="13" lengthAdjust="spacing" textLength="141.1528" x="1777.37" y="253.9763">- REST API Endpunkte</text><text fill="#000000" font-family="Verdana" font-size="13" lengthAdjust="spacing" textLength="139.2803" x="1777.37" y="269.1091">- Asset Bereitstellung</text><text fill="#000000" font-family="Verdana" font-size="13" lengthAdjust="spacing" textLength="196.2505" x="1777.37" y="284.2419">- WebSocket Echtzeit Updates</text><text fill="#000000" font-family="Verdana" font-size="13" lengthAdjust="spacing" textLength="127.5054" x="1777.37" y="299.3747">- CORS Behandlung</text></g><!--link Canvas to WebGL--><g class="link" data-entity-1="Canvas" data-entity-2="WebGL" data-source-line="16" data-uid="lnk10" id="link_Canvas_WebGL"><path d="M101,139.2094 C101,168.4894 101,213.3994 101,242.6894" fill="none" id="Canvas-to-WebGL" style="stroke:#000000;stroke-width:1;"/><polygon fill="#000000" points="101,248.6894,105,239.6894,101,243.6894,97,239.6894,101,248.6894" style="stroke:#000000;stroke-width:1;"/></g><!--link JSApp to WebGL--><g class="link" data-entity-1="JSApp" data-entity-2="WebGL" data-source-line="17" data-uid="lnk11" id="link_JSApp_WebGL"><path d="M633.8,119.8694 C522.64,126.3294 338.89,146.0594 193,206.0294 C168.2,216.2194 148.2249,230.337 130.7049,244.817" fill="none" id="JSApp-to-WebGL" style="stroke:#000000;stroke-width:1;"/><polygon fill="#000000" points="126.08,248.6394,135.5656,245.9891,129.9341,245.4541,130.469,239.8226,126.08,248.6394" style="stroke:#000000;stroke-width:1;"/></g><!--link JSApp to Shaders--><g class="link" data-entity-1="JSApp" data-entity-2="Shaders" data-source-line="18" data-uid="lnk12" id="link_JSApp_Shaders"><path d="M634.07,135.8394 C567.41,150.5494 478.42,173.8494 404,206.0294 C377.43,217.5094 354.5941,231.4493 334.1341,245.3393" fill="none" id="JSApp-to-Shaders" style="stroke:#000000;stroke-width:1;"/><polygon fill="#000000" points="329.17,248.7094,338.8629,246.9637,333.3068,245.901,334.3695,240.3448,329.17,248.7094" style="stroke:#000000;stroke-width:1;"/></g><!--link JSApp to Textures--><g class="link" data-entity-1="JSApp" data-entity-2="Textures" data-source-line="19" data-uid="lnk13" id="link_JSApp_Textures"><path d="M695.62,139.3494 C666.57,157.0794 625.39,182.6094 590,206.0294 C569.12,219.8394 550.9585,232.5005 533.0285,245.2605" fill="none" id="JSApp-to-Textures" style="stroke:#000000;stroke-width:1;"/><polygon fill="#000000" points="528.14,248.7394,537.792,246.78,532.2137,245.8403,533.1534,240.262,528.14,248.7394" style="stroke:#000000;stroke-width:1;"/></g><!--link JSApp to Meshes--><g class="link" data-entity-1="JSApp" data-entity-2="Meshes" data-source-line="20" data-uid="lnk14" id="link_JSApp_Meshes"><path d="M723.69,139.2094 C711.56,168.4894 692.7573,213.8566 680.6173,243.1466" fill="none" id="JSApp-to-Meshes" style="stroke:#000000;stroke-width:1;"/><polygon fill="#000000" points="678.32,248.6894,685.4612,241.9068,680.2345,244.0704,678.0708,238.8437,678.32,248.6894" style="stroke:#000000;stroke-width:1;"/></g><!--link JSApp to FBs--><g class="link" data-entity-1="JSApp" data-entity-2="FBs" data-source-line="21" data-uid="lnk15" id="link_JSApp_FBs"><path d="M746.96,139.2094 C765.16,168.4894 793.6421,214.3039 811.8521,243.5939" fill="none" id="JSApp-to-FBs" style="stroke:#000000;stroke-width:1;"/><polygon fill="#000000" points="815.02,248.6894,813.6651,238.9342,812.38,244.4431,806.8711,243.1581,815.02,248.6894" style="stroke:#000000;stroke-width:1;"/></g><!--link HTTPServer to StaticFS--><g class="link" data-entity-1="HTTPServer" data-entity-2="StaticFS" data-source-line="33" data-uid="lnk24" id="link_HTTPServer_StaticFS"><path d="M1028.36,295.8094 C1034.21,316.5994 1041.1959,341.4734 1047.0359,362.2434" fill="none" id="HTTPServer-to-StaticFS" style="stroke:#000000;stroke-width:1;"/><polygon fill="#000000" points="1048.66,368.0194,1050.0746,358.2726,1047.3066,363.206,1042.3732,360.4381,1048.66,368.0194" style="stroke:#000000;stroke-width:1;"/></g><!--link HTTPServer to AssetMgr--><g class="link" data-entity-1="HTTPServer" data-entity-2="AssetMgr" data-source-line="34" data-uid="lnk25" id="link_HTTPServer_AssetMgr"><path d="M1069.62,295.8094 C1113.36,316.5994 1172.4112,344.6733 1216.1012,365.4433" fill="none" id="HTTPServer-to-AssetMgr" style="stroke:#000000;stroke-width:1;"/><polygon fill="#000000" points="1221.52,368.0194,1215.1091,360.5427,1217.0043,365.8726,1211.6744,367.7678,1221.52,368.0194" style="stroke:#000000;stroke-width:1;"/></g><!--link HTTPServer to StateMgr--><g class="link" data-entity-1="HTTPServer" data-entity-2="StateMgr" data-source-line="35" data-uid="lnk26" id="link_HTTPServer_StateMgr"><path d="M1085.3,290.4994 C1162.56,311.6494 1287.2927,345.786 1369.7127,368.336" fill="none" id="HTTPServer-to-StateMgr" style="stroke:#000000;stroke-width:1;"/><polygon fill="#000000" points="1375.5,369.9194,1367.8746,363.6861,1370.6772,368.5999,1365.7635,371.4025,1375.5,369.9194" style="stroke:#000000;stroke-width:1;"/></g><!--link HTTPServer to WSHandler--><g class="link" data-entity-1="HTTPServer" data-entity-2="WSHandler" data-source-line="36" data-uid="lnk27" id="link_HTTPServer_WSHandler"><path d="M1085.58,284.2394 C1183.97,301.4794 1379.01,336.1494 1544,368.4394 C1549.35,369.4894 1548.969,369.3904 1554.509,370.5104" fill="none" id="HTTPServer-to-WSHandler" style="stroke:#000000;stroke-width:1;"/><polygon fill="#000000" points="1560.39,371.6994,1552.3611,365.9953,1555.4891,370.7086,1550.7758,373.8366,1560.39,371.6994" style="stroke:#000000;stroke-width:1;"/></g><!--link StateMgr to CameraSys--><g class="link" data-entity-1="StateMgr" data-entity-2="CameraSys" data-source-line="37" data-uid="lnk28" id="link_StateMgr_CameraSys"><path d="M1451,414.9794 C1451,441.4294 1451,479.1894 1451,505.5994" fill="none" id="StateMgr-to-CameraSys" style="stroke:#000000;stroke-width:1;"/><polygon fill="#000000" points="1451,511.5994,1455,502.5994,1451,506.5994,1447,502.5994,1451,511.5994" style="stroke:#000000;stroke-width:1;"/></g><!--link CameraSys to Math3D--><g class="link" data-entity-1="CameraSys" data-entity-2="Math3D" data-source-line="38" data-uid="lnk29" id="link_CameraSys_Math3D"><path d="M1451,558.3794 C1451,576.6894 1451,596.4094 1451,614.7194" fill="none" id="CameraSys-to-Math3D" style="stroke:#000000;stroke-width:1;"/><polygon fill="#000000" points="1451,620.7194,1455,611.7194,1451,615.7194,1447,611.7194,1451,620.7194" style="stroke:#000000;stroke-width:1;"/></g><!--link JSApp to WSHandler--><g class="link" data-entity-1="JSApp" data-entity-2="WSHandler" data-source-line="56" data-uid="lnk40" id="link_JSApp_WSHandler"><path d="M837.7494,140.056 C861.8894,144.756 881.84,148.0394 906,151.0294 C966.73,158.5194 1963.83,161.6894 2006,206.0294 C2040.71,242.5094 2037.92,280.3794 2006,319.3194 C1972.94,359.6594 1839.8103,377.1431 1745.6003,384.8031" fill="none" id="JSApp-WSHandler" style="stroke:#000000;stroke-width:1;"/><polygon fill="#000000" points="831.86,138.9094,839.9297,144.5556,836.7678,139.8649,841.4586,136.7031,831.86,138.9094" style="stroke:#000000;stroke-width:1;"/><polygon fill="#000000" points="1739.62,385.2894,1748.9146,388.5469,1744.6036,384.8842,1748.2662,380.5732,1739.62,385.2894" style="stroke:#000000;stroke-width:1;"/><text fill="#000000" font-family="Verdana" font-size="13" lengthAdjust="spacing" textLength="110.2144" x="2032" y="276.7363">Echtzeit Updates</text></g><!--link JSApp to HTTPServer--><g class="link" data-entity-1="JSApp" data-entity-2="HTTPServer" data-source-line="57" data-uid="lnk41" id="link_JSApp_HTTPServer"><path d="M778.63,139.2894 C814.13,156.9994 864.49,182.5094 908,206.0294 C933.37,219.7294 956.3106,232.7878 978.2806,245.5378" fill="none" id="JSApp-to-HTTPServer" style="stroke:#000000;stroke-width:1;"/><polygon fill="#000000" points="983.47,248.5494,977.6936,240.5723,979.1455,246.0397,973.6781,247.4916,983.47,248.5494" style="stroke:#000000;stroke-width:1;"/><text fill="#000000" font-family="Verdana" font-size="13" lengthAdjust="spacing" textLength="97.1382" x="890.22" y="194.0963">HTTP Anfragen</text></g><!--link HTTPServer to ShaderFiles--><g class="link" data-entity-1="HTTPServer" data-entity-2="ShaderFiles" data-source-line="58" data-uid="lnk42" id="link_HTTPServer_ShaderFiles"><path d="M975.65,295.7694 C955.36,304.6494 930.98,313.9794 908,319.3194 C809.16,342.3094 538,311.4994 454,368.4394 C402.74,403.1894 376.5565,469.0546 365.0865,505.6046" fill="none" id="HTTPServer-to-ShaderFiles" style="stroke:#000000;stroke-width:1;"/><polygon fill="#000000" points="363.29,511.3294,369.8013,503.94,364.7871,506.5588,362.1683,501.5446,363.29,511.3294" style="stroke:#000000;stroke-width:1;"/><text fill="#000000" font-family="Verdana" font-size="13" lengthAdjust="spacing" textLength="131.8154" x="455" y="396.1563">Shader bereitstellen</text></g><!--link HTTPServer to TextureFiles--><g class="link" data-entity-1="HTTPServer" data-entity-2="TextureFiles" data-source-line="59" data-uid="lnk43" id="link_HTTPServer_TextureFiles"><path d="M972.87,295.7394 C953.05,304.1294 929.76,313.1094 908,319.3194 C784.82,354.4694 717.52,280.8994 624,368.4394 C584.09,405.7994 580.7458,469.5636 582.0858,505.3936" fill="none" id="HTTPServer-to-TextureFiles" style="stroke:#000000;stroke-width:1;"/><polygon fill="#000000" points="582.31,511.3894,585.9709,502.2462,582.1231,506.3929,577.9764,502.5452,582.31,511.3894" style="stroke:#000000;stroke-width:1;"/><text fill="#000000" font-family="Verdana" font-size="13" lengthAdjust="spacing" textLength="144.314" x="625" y="396.1563">Texturen bereitstellen</text></g><!--link HTTPServer to MeshFiles--><g class="link" data-entity-1="HTTPServer" data-entity-2="MeshFiles" data-source-line="60" data-uid="lnk44" id="link_HTTPServer_MeshFiles"><path d="M966.92,295.7594 C899.86,323.3094 795.29,366.4994 794,368.4394 C765,411.9894 778.8456,471.5563 790.3856,505.6363" fill="none" id="HTTPServer-to-MeshFiles" style="stroke:#000000;stroke-width:1;"/><polygon fill="#000000" points="792.31,511.3194,793.2121,501.5119,790.7064,506.5835,785.6348,504.0777,792.31,511.3194" style="stroke:#000000;stroke-width:1;"/><text fill="#000000" font-family="Verdana" font-size="13" lengthAdjust="spacing" textLength="134.7607" x="795" y="396.1563">Meshes bereitstellen</text></g><!--link HTTPServer to StaticAssets--><g class="link" data-entity-1="HTTPServer" data-entity-2="StaticAssets" data-source-line="61" data-uid="lnk45" id="link_HTTPServer_StaticAssets"><path d="M976.26,295.7694 C955.87,304.7594 931.25,314.1794 908,319.3194 C767.43,350.4194 385.71,294.7894 262,368.4394 C206.1,401.7194 173.3895,468.753 158.5195,505.713" fill="none" id="HTTPServer-to-StaticAssets" style="stroke:#000000;stroke-width:1;"/><polygon fill="#000000" points="156.28,511.2794,163.3502,504.4228,158.1463,506.6407,155.9283,501.4368,156.28,511.2794" style="stroke:#000000;stroke-width:1;"/><text fill="#000000" font-family="Verdana" font-size="13" lengthAdjust="spacing" textLength="138.4043" x="263" y="396.1563">JS/HTML bereitstellen</text></g><!--link AssetMgr to TextureFiles--><g class="link" data-entity-1="AssetMgr" data-entity-2="TextureFiles" data-source-line="62" data-uid="lnk46" id="link_AssetMgr_TextureFiles"><path d="M1196.83,411.5894 C1191.16,412.7694 1185.5,413.8394 1180,414.7394 C967.46,449.5194 899.4,380.1394 697,453.7394 C662.42,466.3094 633.2983,488.4975 611.8483,507.5275" fill="none" id="AssetMgr-to-TextureFiles" style="stroke:#000000;stroke-width:1;"/><polygon fill="#000000" points="607.36,511.5094,616.747,508.5287,611.1002,508.1911,611.4378,502.5444,607.36,511.5094" style="stroke:#000000;stroke-width:1;"/></g><!--link AssetMgr to MeshFiles--><g class="link" data-entity-1="AssetMgr" data-entity-2="MeshFiles" data-source-line="63" data-uid="lnk47" id="link_AssetMgr_MeshFiles"><path d="M1196.64,410.6694 C1191.01,412.0494 1185.42,413.4194 1180,414.7394 C1121.86,428.8494 1108.16,436.7794 1049,445.7394 C997.47,453.5394 981.66,437.8994 932,453.7394 C893.13,466.1294 858.717,488.7221 833.467,507.8021" fill="none" id="AssetMgr-to-MeshFiles" style="stroke:#000000;stroke-width:1;"/><polygon fill="#000000" points="828.68,511.4194,838.272,509.1848,832.6692,508.405,833.449,502.8021,828.68,511.4194" style="stroke:#000000;stroke-width:1;"/></g><!--link StateMgr to AppState--><g class="link" data-entity-1="StateMgr" data-entity-2="AppState" data-source-line="64" data-uid="lnk48" id="link_StateMgr_AppState"><path d="M1526.24,411.0494 C1531.9,412.3294 1537.54,413.5794 1543,414.7394 C1636.72,434.6194 1665.77,418.8694 1755,453.7394 C1791.43,467.9694 1823.9523,489.4632 1848.6323,507.7832" fill="none" id="StateMgr-to-AppState" style="stroke:#000000;stroke-width:1;"/><polygon fill="#000000" points="1853.45,511.3594,1848.6075,502.7832,1849.4352,508.3792,1843.8392,509.2069,1853.45,511.3594" style="stroke:#000000;stroke-width:1;"/></g><!--link StateMgr to CameraState--><g class="link" data-entity-1="StateMgr" data-entity-2="CameraState" data-source-line="65" data-uid="lnk49" id="link_StateMgr_CameraState"><path d="M1526.63,411.7394 C1532.15,412.8394 1537.65,413.8594 1543,414.7394 C1738.06,446.6194 1804.77,374.8694 1986,453.7394 C2015.17,466.4294 2037.3549,488.0242 2053.6349,507.0142" fill="none" id="StateMgr-to-CameraState" style="stroke:#000000;stroke-width:1;"/><polygon fill="#000000" points="2057.54,511.5694,2054.7191,502.1331,2054.2857,507.7734,2048.6455,507.34,2057.54,511.5694" style="stroke:#000000;stroke-width:1;"/></g><!--link StateMgr to WaterProps--><g class="link" data-entity-1="StateMgr" data-entity-2="WaterProps" data-source-line="66" data-uid="lnk50" id="link_StateMgr_WaterProps"><path d="M1526.6,411.8894 C1532.13,412.9594 1537.64,413.9294 1543,414.7394 C1679.73,435.3294 2033.45,408.1894 2164,453.7394 C2199.16,465.9994 2228.8575,488.275 2250.6875,507.405" fill="none" id="StateMgr-to-WaterProps" style="stroke:#000000;stroke-width:1;"/><polygon fill="#000000" points="2255.2,511.3594,2251.0675,502.4194,2251.4396,508.064,2245.795,508.4361,2255.2,511.3594" style="stroke:#000000;stroke-width:1;"/></g><!--link StateMgr to SceneData--><g class="link" data-entity-1="StateMgr" data-entity-2="SceneData" data-source-line="67" data-uid="lnk51" id="link_StateMgr_SceneData"><path d="M1526.59,411.9894 C1532.12,413.0394 1537.63,413.9694 1543,414.7394 C1730.43,441.3394 2219.28,380.8694 2394,453.7394 C2423,465.8294 2444.6008,487.4636 2460.3608,506.6436" fill="none" id="StateMgr-to-SceneData" style="stroke:#000000;stroke-width:1;"/><polygon fill="#000000" points="2464.17,511.2794,2461.5468,501.7863,2460.9957,507.4162,2455.3658,506.8652,2464.17,511.2794" style="stroke:#000000;stroke-width:1;"/></g><!--SRC=[VLN1SjCm4BtxAvPoe3a4cE7MOPX9sgIbROPC7SY1uQ0a6rl4aJsIt48P_ftLIh7afZGdQz_kwcdVa_BAbhX7Q2eXLMPsKZL2Ypsin7fNwBfLc_EwgZMydl8loTZWLhILdTRAXfJt_CioAss5iCJLvIqiXKKDYzRMMeeAXf3_DXRtCDBhKbhSsLPdMKERYGBXPAgf6weDd8vr_M1G3qxWJmRm_MenkuLpeUw5-G72X4-7-6rkNDqlonX777GjxaM-rhAnC58FrBPL1MTSvwEcSHbvAJP4RwxhWewqHqPza9ilg6UhOIOKqTEC-X0oF4DJmhpTRWFcrXwPKZjSHMGwDXd5FMqO3ZzrB9dBVoAHIOmb-yTWjt4CkHt_9gCTqmTFzhA67FLzEjl5F8IOgrlx9O_82YlDkaIu82abgZILmVKqTuaZOz3sHiMHMT6rQKqFTY4CC9qzhucWXIkXDbN8MEPXvL9kQA9Q1Fy44xW81LWBOSiF5p2MgqhMvEcTLuIZRlJnL7wqaVaJ967zJ0q-YwH43raCf1IxRo-PPqOIhQkwtS09ZzVmwO8mmPs7kP- -BIfJ3HAFJcM5gKzZPgEAGMhNBfCjw_9SrazJgq7dt2udIiwpC8dKFk1ORuGLAs78MRUYtJwYjBvjuDvTE6DOUM-8fk7ff796DCpdaB0Kj9U6YInG4HcnfURU5Uv9eIlRUBAFgEWmlBSdkgO0BOLZ-GQ-eLv9Pe8gyzVZOqyoE8F9khHyWgyD7Ok64AzH8lGPB-WfsMhXcZrrHvI4KeDsAzJKbpIjgkEAL1ig2KlrSb6d55NuQ_zoVgeRbLpdx_WjxTSSF7z4guz4b_HCtidwdFMFWKI_NZmAbwdQ8cXPb1RgRVTS3yD_oXqv2xLK1SnbWvLKoE2C_etaS4wsYHaCTFAEbDpJD6h5uJ6gbkAKHdp4ZkFkXNIR1meLRfb1xqaSmjqaNy1e_XacQjEqQcSz0Vy2ZkDasq0Wlcv7JdFm-PUxdCfAvqTNSY3n3m00]--></g></svg>