<svg xmlns="http://www.w3.org/2000/svg" xmlns:xlink="http://www.w3.org/1999/xlink" contentStyleType="text/css" data-diagram-type="ACTIVITY" height="3039px" preserveAspectRatio="none" style="width:1195px;height:3039px;background:#FFFFFF;" version="1.1" viewBox="0 0 1195 3039" width="1195px" zoomAndPan="magnify"><title>WebGL Water Tutorial - Datenfluss Aktivit&#228;tsdiagramm</title><defs/><g><g class="title" data-source-line="5"><text fill="#000000" font-family="Verdana" font-size="22" font-weight="bold" lengthAdjust="spacing" textLength="686.082" x="253.4546" y="35.4209">WebGL Water Tutorial - Datenfluss Aktivit&#228;tsdiagramm</text></g><rect fill="#FFFFFF" height="20.9531" style="stroke:#FFFFFF;stroke-width:1;" width="1144.9912" x="10" y="54.3545"/><ellipse cx="462.7891" cy="90.3076" fill="#FFFFFF" rx="10" ry="10" style="stroke:#000000;stroke-width:1;"/><rect fill="#FFFFFF" height="33.9688" rx="12.5" ry="12.5" style="stroke:#000000;stroke-width:1;" width="135.207" x="395.1855" y="120.3076"/><text fill="#000000" font-family="Verdana" font-size="12" lengthAdjust="spacing" textLength="115.207" x="405.1855" y="141.4463">Benutzer l&#228;dt Seite</text><rect fill="#FFFFFF" height="33.9688" rx="12.5" ry="12.5" style="stroke:#000000;stroke-width:1;" width="190.4141" x="367.582" y="174.2764"/><text fill="#000000" font-family="Verdana" font-size="12" lengthAdjust="spacing" textLength="170.4141" x="377.582" y="195.415">WebGL Kontext initialisieren</text><rect fill="#FFFFFF" height="33.9688" rx="12.5" ry="12.5" style="stroke:#000000;stroke-width:1;" width="184.7773" x="370.4004" y="228.2451"/><text fill="#000000" font-family="Verdana" font-size="12" lengthAdjust="spacing" textLength="164.7773" x="380.4004" y="249.3838">Shader von /shaders/ laden</text><rect fill="#FFFFFF" height="33.9688" rx="12.5" ry="12.5" style="stroke:#000000;stroke-width:1;" width="211.2207" x="357.1787" y="282.2139"/><text fill="#000000" font-family="Verdana" font-size="12" lengthAdjust="spacing" textLength="191.2207" x="367.1787" y="303.3525">Shader Programme kompilieren</text><rect fill="#FFFFFF" height="33.9688" rx="12.5" ry="12.5" style="stroke:#000000;stroke-width:1;" width="187.1152" x="369.2314" y="336.1826"/><text fill="#000000" font-family="Verdana" font-size="12" lengthAdjust="spacing" textLength="167.1152" x="379.2314" y="357.3213">Texturen von /assets/ laden</text><rect fill="#FFFFFF" height="33.9688" rx="12.5" ry="12.5" style="stroke:#000000;stroke-width:1;" width="204.9688" x="360.3047" y="390.1514"/><text fill="#000000" font-family="Verdana" font-size="12" lengthAdjust="spacing" textLength="184.9688" x="370.3047" y="411.29">Meshes von /api/meshes laden</text><rect fill="#FFFFFF" height="33.9688" rx="12.5" ry="12.5" style="stroke:#000000;stroke-width:1;" width="140.8672" x="392.3555" y="444.1201"/><text fill="#000000" font-family="Verdana" font-size="12" lengthAdjust="spacing" textLength="120.8672" x="402.3555" y="465.2588">GPU Puffer erstellen</text><rect fill="#FFFFFF" height="33.9688" rx="12.5" ry="12.5" style="stroke:#000000;stroke-width:1;" width="158.5508" x="383.5137" y="498.0889"/><text fill="#000000" font-family="Verdana" font-size="12" lengthAdjust="spacing" textLength="138.5508" x="393.5137" y="519.2275">Framebuffer einrichten</text><rect fill="#FFFFFF" height="33.9688" rx="12.5" ry="12.5" style="stroke:#000000;stroke-width:1;" width="151.8535" x="386.8623" y="821.9014"/><text fill="#000000" font-family="Verdana" font-size="12" lengthAdjust="spacing" textLength="131.8535" x="396.8623" y="843.04">WebSocket verbinden</text><rect fill="#FFFFFF" height="33.9688" rx="12.5" ry="12.5" style="stroke:#000000;stroke-width:1;" width="161.3047" x="382.1367" y="875.8701"/><text fill="#000000" font-family="Verdana" font-size="12" lengthAdjust="spacing" textLength="141.3047" x="392.1367" y="897.0088">Render Schleife starten</text><rect fill="#FFFFFF" height="33.9688" rx="12.5" ry="12.5" style="stroke:#000000;stroke-width:1;" width="165.5234" x="380.0273" y="973.8389"/><text fill="#000000" font-family="Verdana" font-size="12" lengthAdjust="spacing" textLength="145.5234" x="390.0273" y="994.9775">Lokale Uhr aktualisieren</text><rect fill="#FFFFFF" height="33.9688" rx="12.5" ry="12.5" style="stroke:#000000;stroke-width:1;" width="302.6152" x="311.4814" y="1027.8076"/><text fill="#000000" font-family="Verdana" font-size="12" lengthAdjust="spacing" textLength="282.6152" x="321.4814" y="1048.9463">Benutzereingaben verarbeiten (Maus/Tastatur)</text><rect fill="#FFFFFF" height="33.9688" rx="12.5" ry="12.5" style="stroke:#000000;stroke-width:1;" width="290.2461" x="317.666" y="1130.1787"/><text fill="#000000" font-family="Verdana" font-size="12" lengthAdjust="spacing" textLength="270.2461" x="327.666" y="1151.3174">Kamera Update an /api/state/camera senden</text><rect fill="#FFFFFF" height="33.9688" rx="12.5" ry="12.5" style="stroke:#000000;stroke-width:1;" width="318.3711" x="303.6035" y="1184.1475"/><text fill="#000000" font-family="Verdana" font-size="12" lengthAdjust="spacing" textLength="298.3711" x="313.6035" y="1205.2861">Wasser Eigenschaften an /api/state/water senden</text><rect fill="#FFFFFF" height="33.9688" rx="12.5" ry="12.5" style="stroke:#000000;stroke-width:1;" width="207.0254" x="359.2764" y="1415.0225"/><text fill="#000000" font-family="Verdana" font-size="12" lengthAdjust="spacing" textLength="187.0254" x="369.2764" y="1436.1611">WebSocket Update empfangen</text><polygon fill="#FFFFFF" points="405.1465,1081.7764,520.4316,1081.7764,532.4316,1093.7764,520.4316,1105.7764,405.1465,1105.7764,393.1465,1093.7764,405.1465,1081.7764" style="stroke:#000000;stroke-width:1;"/><text fill="#000000" font-family="Verdana" font-size="11" lengthAdjust="spacing" textLength="9.7969" x="466.7891" y="1115.9868">ja</text><text fill="#000000" font-family="Verdana" font-size="11" lengthAdjust="spacing" textLength="115.2852" x="405.1465" y="1097.5845">Benutzerinteraktion?</text><text fill="#000000" font-family="Verdana" font-size="11" lengthAdjust="spacing" textLength="23.7671" x="369.3794" y="1091.1821">nein</text><polygon fill="#FFFFFF" points="462.7891,1468.9912,474.7891,1480.9912,462.7891,1492.9912,450.7891,1480.9912,462.7891,1468.9912" style="stroke:#000000;stroke-width:1;"/><path d="M550.832,1509.8428 L550.832,1525.9756 L530.832,1529.9756 L550.832,1533.9756 L550.832,1550.1084 A0,0 0 0 0 550.832,1550.1084 L757.5835,1550.1084 A0,0 0 0 0 757.5835,1550.1084 L757.5835,1519.8428 L747.5835,1509.8428 L550.832,1509.8428 A0,0 0 0 0 550.832,1509.8428" fill="#FFFFFF" style="stroke:#000000;stroke-width:1;"/><path d="M747.5835,1509.8428 L747.5835,1519.8428 L757.5835,1519.8428 L747.5835,1509.8428" fill="#FFFFFF" style="stroke:#000000;stroke-width:1;"/><text fill="#000000" font-family="Verdana" font-size="13" font-weight="bold" lengthAdjust="spacing" textLength="123.208" x="556.832" y="1526.9097">Refraktions Pass</text><text fill="#000000" font-family="Verdana" font-size="13" lengthAdjust="spacing" textLength="185.7515" x="556.832" y="1542.0425">Szene unter Wasser rendern</text><rect fill="#FFFFFF" height="33.9688" rx="12.5" ry="12.5" style="stroke:#000000;stroke-width:1;" width="136.0859" x="394.7461" y="1512.9912"/><text fill="#000000" font-family="Verdana" font-size="12" lengthAdjust="spacing" textLength="116.0859" x="404.7461" y="1534.1299">Framebuffer leeren</text><rect fill="#FFFFFF" height="33.9688" rx="12.5" ry="12.5" style="stroke:#000000;stroke-width:1;" width="211.4609" x="357.0586" y="1570.1084"/><text fill="#000000" font-family="Verdana" font-size="12" lengthAdjust="spacing" textLength="191.4609" x="367.0586" y="1591.2471">Refraktions Framebuffer binden</text><rect fill="#FFFFFF" height="33.9688" rx="12.5" ry="12.5" style="stroke:#000000;stroke-width:1;" width="208.4961" x="358.541" y="1624.0771"/><text fill="#000000" font-family="Verdana" font-size="12" lengthAdjust="spacing" textLength="188.4961" x="368.541" y="1645.2158">Clipping Plane setzen [0,-1,0,0]</text><path d="M590.3008,1674.8975 L590.3008,1691.0303 L570.3008,1695.0303 L590.3008,1699.0303 L590.3008,1715.1631 A0,0 0 0 0 590.3008,1715.1631 L874.0874,1715.1631 A0,0 0 0 0 874.0874,1715.1631 L874.0874,1684.8975 L864.0874,1674.8975 L590.3008,1674.8975 A0,0 0 0 0 590.3008,1674.8975" fill="#FFFFFF" style="stroke:#000000;stroke-width:1;"/><path d="M864.0874,1674.8975 L864.0874,1684.8975 L874.0874,1684.8975 L864.0874,1674.8975" fill="#FFFFFF" style="stroke:#000000;stroke-width:1;"/><text fill="#000000" font-family="Verdana" font-size="13" font-weight="bold" lengthAdjust="spacing" textLength="121.2974" x="596.3008" y="1691.9644">Reflektions Pass</text><text fill="#000000" font-family="Verdana" font-size="13" lengthAdjust="spacing" textLength="262.7866" x="596.3008" y="1707.0972">Szene &#252;ber Wasser rendern (gespiegelt)</text><rect fill="#FFFFFF" height="33.9688" rx="12.5" ry="12.5" style="stroke:#000000;stroke-width:1;" width="215.0234" x="355.2773" y="1678.0459"/><text fill="#000000" font-family="Verdana" font-size="12" lengthAdjust="spacing" textLength="195.0234" x="365.2773" y="1699.1846">Terrain mit Stein Textur rendern</text><rect fill="#FFFFFF" height="33.9688" rx="12.5" ry="12.5" style="stroke:#000000;stroke-width:1;" width="209.8906" x="357.8438" y="1735.1631"/><text fill="#000000" font-family="Verdana" font-size="12" lengthAdjust="spacing" textLength="189.8906" x="367.8438" y="1756.3018">Reflektions Framebuffer binden</text><rect fill="#FFFFFF" height="33.9688" rx="12.5" ry="12.5" style="stroke:#000000;stroke-width:1;" width="204.166" x="360.7061" y="1789.1318"/><text fill="#000000" font-family="Verdana" font-size="12" lengthAdjust="spacing" textLength="184.166" x="370.7061" y="1810.2705">Clipping Plane setzen [0,1,0,0]</text><rect fill="#FFFFFF" height="33.9688" rx="12.5" ry="12.5" style="stroke:#000000;stroke-width:1;" width="144.6758" x="390.4512" y="1843.1006"/><text fill="#000000" font-family="Verdana" font-size="12" lengthAdjust="spacing" textLength="124.6758" x="400.4512" y="1864.2393">View Matrix spiegeln</text><path d="M539.8633,1904.3545 L539.8633,1920.4873 L519.8633,1924.4873 L539.8633,1928.4873 L539.8633,1944.6201 A0,0 0 0 0 539.8633,1944.6201 L729.4824,1944.6201 A0,0 0 0 0 729.4824,1944.6201 L729.4824,1914.3545 L719.4824,1904.3545 L539.8633,1904.3545 A0,0 0 0 0 539.8633,1904.3545" fill="#FFFFFF" style="stroke:#000000;stroke-width:1;"/><path d="M719.4824,1904.3545 L719.4824,1914.3545 L729.4824,1914.3545 L719.4824,1904.3545" fill="#FFFFFF" style="stroke:#000000;stroke-width:1;"/><text fill="#000000" font-family="Verdana" font-size="13" font-weight="bold" lengthAdjust="spacing" textLength="134.1768" x="545.8633" y="1921.4214">Hauptszenen Pass</text><text fill="#000000" font-family="Verdana" font-size="13" lengthAdjust="spacing" textLength="168.6191" x="545.8633" y="1936.5542">Finales Wasser Rendering</text><rect fill="#FFFFFF" height="33.9688" rx="12.5" ry="12.5" style="stroke:#000000;stroke-width:1;" width="114.1484" x="405.7148" y="1907.5029"/><text fill="#000000" font-family="Verdana" font-size="12" lengthAdjust="spacing" textLength="94.1484" x="415.7148" y="1928.6416">Terrain rendern</text><rect fill="#FFFFFF" height="33.9688" rx="12.5" ry="12.5" style="stroke:#000000;stroke-width:1;" width="179.3457" x="373.1162" y="1964.6201"/><text fill="#000000" font-family="Verdana" font-size="12" lengthAdjust="spacing" textLength="159.3457" x="383.1162" y="1985.7588">Haupt Framebuffer binden</text><rect fill="#FFFFFF" height="33.9688" rx="12.5" ry="12.5" style="stroke:#000000;stroke-width:1;" width="247.6133" x="338.9824" y="2018.5889"/><text fill="#000000" font-family="Verdana" font-size="12" lengthAdjust="spacing" textLength="227.6133" x="348.9824" y="2039.7275">Wasser Shader Programm verwenden</text><rect fill="#FFFFFF" height="33.9688" rx="12.5" ry="12.5" style="stroke:#000000;stroke-width:1;" width="193.4141" x="366.082" y="2072.5576"/><text fill="#000000" font-family="Verdana" font-size="12" lengthAdjust="spacing" textLength="173.4141" x="376.082" y="2093.6963">Wasser Ebenen Mesh binden</text><rect fill="#FFFFFF" height="33.9688" rx="12.5" ry="12.5" style="stroke:#000000;stroke-width:1;" width="217.4785" x="354.0498" y="2126.5264"/><text fill="#000000" font-family="Verdana" font-size="12" lengthAdjust="spacing" textLength="197.4785" x="364.0498" y="2147.665">Transformations Matrizen setzen</text><rect fill="#FFFFFF" height="33.9688" rx="12.5" ry="12.5" style="stroke:#000000;stroke-width:1;" width="255.1836" x="335.1973" y="2180.4951"/><text fill="#000000" font-family="Verdana" font-size="12" lengthAdjust="spacing" textLength="235.1836" x="345.1973" y="2201.6338">Reflektions Textur &#8594; TEXTURE1 binden</text><rect fill="#FFFFFF" height="33.9688" rx="12.5" ry="12.5" style="stroke:#000000;stroke-width:1;" width="256.7539" x="334.4121" y="2234.4639"/><text fill="#000000" font-family="Verdana" font-size="12" lengthAdjust="spacing" textLength="236.7539" x="344.4121" y="2255.6025">Refraktions Textur &#8594; TEXTURE0 binden</text><rect fill="#FFFFFF" height="33.9688" rx="12.5" ry="12.5" style="stroke:#000000;stroke-width:1;" width="219.8984" x="352.8398" y="2288.4326"/><text fill="#000000" font-family="Verdana" font-size="12" lengthAdjust="spacing" textLength="199.8984" x="362.8398" y="2309.5713">Dudv Textur &#8594; TEXTURE2 binden</text><rect fill="#FFFFFF" height="33.9688" rx="12.5" ry="12.5" style="stroke:#000000;stroke-width:1;" width="218.2285" x="353.6748" y="2342.4014"/><text fill="#000000" font-family="Verdana" font-size="12" lengthAdjust="spacing" textLength="198.2285" x="363.6748" y="2363.54">Normal Map &#8594; TEXTURE3 binden</text><rect fill="#FFFFFF" height="33.9688" rx="12.5" ry="12.5" style="stroke:#000000;stroke-width:1;" width="230.7852" x="347.3965" y="2396.3701"/><text fill="#000000" font-family="Verdana" font-size="12" lengthAdjust="spacing" textLength="210.7852" x="357.3965" y="2417.5088">Dudv Animations Offset berechnen</text><rect fill="#FFFFFF" height="33.9688" rx="12.5" ry="12.5" style="stroke:#000000;stroke-width:1;" width="302.9082" x="311.335" y="2450.3389"/><text fill="#000000" font-family="Verdana" font-size="12" lengthAdjust="spacing" textLength="282.9082" x="321.335" y="2471.4775">Wasser Uniforms setzen (Reflektivit&#228;t, Fresnel)</text><rect fill="#FFFFFF" height="33.9688" rx="12.5" ry="12.5" style="stroke:#000000;stroke-width:1;" width="178.6836" x="373.4473" y="2504.3076"/><text fill="#000000" font-family="Verdana" font-size="12" lengthAdjust="spacing" textLength="158.6836" x="383.4473" y="2525.4463">Wasser Dreiecke zeichnen</text><rect fill="#FFFFFF" height="33.9688" rx="12.5" ry="12.5" style="stroke:#000000;stroke-width:1;" width="205.25" x="360.1641" y="2558.2764"/><text fill="#000000" font-family="Verdana" font-size="12" lengthAdjust="spacing" textLength="185.25" x="370.1641" y="2579.415">Terrain rendern (kein Clipping)</text><rect fill="#FFFFFF" height="33.9688" rx="12.5" ry="12.5" style="stroke:#000000;stroke-width:1;" width="170.498" x="377.54" y="2612.2451"/><text fill="#000000" font-family="Verdana" font-size="12" lengthAdjust="spacing" textLength="150.498" x="387.54" y="2633.3838">Auf Bildschirm darstellen</text><polygon fill="#FFFFFF" points="462.7891,929.8389,474.7891,941.8389,462.7891,953.8389,450.7891,941.8389,462.7891,929.8389" style="stroke:#000000;stroke-width:1;"/><rect fill="#FFFFFF" height="33.9688" rx="12.5" ry="12.5" style="stroke:#000000;stroke-width:1;" width="205.9238" x="359.8271" y="2818.1514"/><text fill="#000000" font-family="Verdana" font-size="12" lengthAdjust="spacing" textLength="185.9238" x="369.8271" y="2839.29">WebGL Ressourcen aufr&#228;umen</text><rect fill="#FFFFFF" height="33.9688" rx="12.5" ry="12.5" style="stroke:#000000;stroke-width:1;" width="221.668" x="351.9551" y="2872.1201"/><text fill="#000000" font-family="Verdana" font-size="12" lengthAdjust="spacing" textLength="201.668" x="361.9551" y="2893.2588">WebSocket Verbindung schlie&#223;en</text><path d="M15,2916.0889 L15,3032.0186 A0,0 0 0 0 15,3032.0186 L431.7891,3032.0186 A0,0 0 0 0 431.7891,3032.0186 L431.7891,2978.0537 L451.7891,2974.0537 L431.7891,2970.0537 L431.7891,2926.0889 L421.7891,2916.0889 L15,2916.0889 A0,0 0 0 0 15,2916.0889" fill="#FFFFFF" style="stroke:#000000;stroke-width:1;"/><path d="M421.7891,2916.0889 L421.7891,2926.0889 L431.7891,2926.0889 L421.7891,2916.0889" fill="#FFFFFF" style="stroke:#000000;stroke-width:1;"/><text fill="#000000" font-family="Verdana" font-size="13" font-weight="bold" lengthAdjust="spacing" textLength="196.3394" x="21" y="2933.1558">Wichtige Datenstrukturen:</text><text fill="#000000" font-family="Verdana" font-size="13" lengthAdjust="spacing" textLength="298.0986" x="21" y="2948.2886">- Mesh: Vertices, Normals, TexCoords, Indices</text><text fill="#000000" font-family="Verdana" font-size="13" lengthAdjust="spacing" textLength="296.353" x="21" y="2963.4214">- Textur: WebGL Textur Objekte + Metadaten</text><text fill="#000000" font-family="Verdana" font-size="13" lengthAdjust="spacing" textLength="389.7524" x="21" y="2978.5542">- Shader Programm: Kompilierte Vertex + Fragment Shader</text><text fill="#000000" font-family="Verdana" font-size="13" lengthAdjust="spacing" textLength="279.2271" x="21" y="2993.687">- Framebuffer: Farb Textur + Tiefen Textur</text><text fill="#000000" font-family="Verdana" font-size="13" lengthAdjust="spacing" textLength="395.7891" x="21" y="3008.8198">- Status: Kamera, Wasser Eigenschaften, Uhr, Szenerie Flags</text><text fill="#000000" font-family="Verdana" font-size="13" lengthAdjust="spacing" textLength="379.5835" x="21" y="3023.9526">- WebSocket Nachrichten: Echtzeit Status Synchronisation</text><ellipse cx="462.7891" cy="2974.0537" fill="none" rx="11" ry="11" style="stroke:#000000;stroke-width:1;"/><ellipse cx="462.7891" cy="2974.0537" fill="#FFFFFF" rx="6" ry="6" style="stroke:#000000;stroke-width:1;"/><line style="stroke:#000000;stroke-width:1;" x1="10" x2="10" y1="54.3545" y2="3032.0186"/><rect fill="#FFFFFF" height="33.9688" rx="12.5" ry="12.5" style="stroke:#000000;stroke-width:1;" width="137.9375" x="948.1401" y="552.0576"/><text fill="#000000" font-family="Verdana" font-size="12" lengthAdjust="spacing" textLength="117.9375" x="958.1401" y="573.1963">HTTP Server startet</text><rect fill="#FFFFFF" height="33.9688" rx="12.5" ry="12.5" style="stroke:#000000;stroke-width:1;" width="186.2539" x="923.9819" y="606.0264"/><text fill="#000000" font-family="Verdana" font-size="12" lengthAdjust="spacing" textLength="166.2539" x="933.9819" y="627.165">Asset Manager initialisieren</text><rect fill="#FFFFFF" height="33.9688" rx="12.5" ry="12.5" style="stroke:#000000;stroke-width:1;" width="229.373" x="902.4224" y="659.9951"/><text fill="#000000" font-family="Verdana" font-size="12" lengthAdjust="spacing" textLength="209.373" x="912.4224" y="681.1338">Wasser/Terrain Meshes generieren</text><rect fill="#FFFFFF" height="33.9688" rx="12.5" ry="12.5" style="stroke:#000000;stroke-width:1;" width="239.1465" x="897.5356" y="713.9639"/><text fill="#000000" font-family="Verdana" font-size="12" lengthAdjust="spacing" textLength="219.1465" x="907.5356" y="735.1025">Status Update Ticker starten (60fps)</text><rect fill="#FFFFFF" height="33.9688" rx="12.5" ry="12.5" style="stroke:#000000;stroke-width:1;" width="185.2754" x="924.4712" y="767.9326"/><text fill="#000000" font-family="Verdana" font-size="12" lengthAdjust="spacing" textLength="165.2754" x="934.4712" y="789.0713">WebSocket Handler starten</text><rect fill="#FFFFFF" height="33.9688" rx="12.5" ry="12.5" style="stroke:#000000;stroke-width:1;" width="189.9746" x="922.1216" y="1238.1162"/><text fill="#000000" font-family="Verdana" font-size="12" lengthAdjust="spacing" textLength="169.9746" x="932.1216" y="1259.2549">Kamera Status aktualisieren</text><rect fill="#FFFFFF" height="33.9688" rx="12.5" ry="12.5" style="stroke:#000000;stroke-width:1;" width="234.4414" x="899.8882" y="1307.085"/><text fill="#000000" font-family="Verdana" font-size="12" lengthAdjust="spacing" textLength="214.4414" x="909.8882" y="1328.2236">Wasser Eigenschaften aktualisieren</text><rect fill="#FFFFFF" height="33.9688" rx="12.5" ry="12.5" style="stroke:#000000;stroke-width:1;" width="181.1211" x="926.5483" y="1361.0537"/><text fill="#000000" font-family="Verdana" font-size="12" lengthAdjust="spacing" textLength="161.1211" x="936.5483" y="1382.1924">Via WebSocket &#252;bertragen</text><rect fill="#FFFFFF" height="33.9688" rx="12.5" ry="12.5" style="stroke:#000000;stroke-width:1;" width="203.791" x="915.2134" y="2666.2139"/><text fill="#000000" font-family="Verdana" font-size="12" lengthAdjust="spacing" textLength="183.791" x="925.2134" y="2687.3525">Anwendungs Uhr aktualisieren</text><rect fill="#FFFFFF" height="33.9688" rx="12.5" ry="12.5" style="stroke:#000000;stroke-width:1;" width="264.043" x="885.0874" y="2720.1826"/><text fill="#000000" font-family="Verdana" font-size="12" lengthAdjust="spacing" textLength="244.043" x="895.0874" y="2741.3213">Status an WebSocket Clients &#252;bertragen</text><polygon fill="#FFFFFF" points="967.394,2774.1514,1066.8237,2774.1514,1078.8237,2786.1514,1066.8237,2798.1514,967.394,2798.1514,955.394,2786.1514,967.394,2774.1514" style="stroke:#000000;stroke-width:1;"/><text fill="#000000" font-family="Verdana" font-size="11" lengthAdjust="spacing" textLength="99.4297" x="967.394" y="2789.9595">Anwendung l&#228;uft?</text><line style="stroke:#000000;stroke-width:1;" x1="879.0874" x2="879.0874" y1="54.3545" y2="3032.0186"/><line style="stroke:#000000;stroke-width:1;" x1="1153.1304" x2="1153.1304" y1="54.3545" y2="3032.0186"/><line style="stroke:#000000;stroke-width:1;" x1="462.7891" x2="462.7891" y1="100.3076" y2="120.3076"/><polygon fill="#000000" points="458.7891,110.3076,462.7891,120.3076,466.7891,110.3076,462.7891,114.3076" style="stroke:#000000;stroke-width:1;"/><line style="stroke:#000000;stroke-width:1;" x1="462.7891" x2="462.7891" y1="154.2764" y2="174.2764"/><polygon fill="#000000" points="458.7891,164.2764,462.7891,174.2764,466.7891,164.2764,462.7891,168.2764" style="stroke:#000000;stroke-width:1;"/><line style="stroke:#000000;stroke-width:1;" x1="462.7891" x2="462.7891" y1="208.2451" y2="228.2451"/><polygon fill="#000000" points="458.7891,218.2451,462.7891,228.2451,466.7891,218.2451,462.7891,222.2451" style="stroke:#000000;stroke-width:1;"/><line style="stroke:#000000;stroke-width:1;" x1="462.7891" x2="462.7891" y1="262.2139" y2="282.2139"/><polygon fill="#000000" points="458.7891,272.2139,462.7891,282.2139,466.7891,272.2139,462.7891,276.2139" style="stroke:#000000;stroke-width:1;"/><line style="stroke:#000000;stroke-width:1;" x1="462.7891" x2="462.7891" y1="316.1826" y2="336.1826"/><polygon fill="#000000" points="458.7891,326.1826,462.7891,336.1826,466.7891,326.1826,462.7891,330.1826" style="stroke:#000000;stroke-width:1;"/><line style="stroke:#000000;stroke-width:1;" x1="462.7891" x2="462.7891" y1="370.1514" y2="390.1514"/><polygon fill="#000000" points="458.7891,380.1514,462.7891,390.1514,466.7891,380.1514,462.7891,384.1514" style="stroke:#000000;stroke-width:1;"/><line style="stroke:#000000;stroke-width:1;" x1="462.7891" x2="462.7891" y1="424.1201" y2="444.1201"/><polygon fill="#000000" points="458.7891,434.1201,462.7891,444.1201,466.7891,434.1201,462.7891,438.1201" style="stroke:#000000;stroke-width:1;"/><line style="stroke:#000000;stroke-width:1;" x1="462.7891" x2="462.7891" y1="478.0889" y2="498.0889"/><polygon fill="#000000" points="458.7891,488.0889,462.7891,498.0889,466.7891,488.0889,462.7891,492.0889" style="stroke:#000000;stroke-width:1;"/><line style="stroke:#000000;stroke-width:1;" x1="462.7891" x2="462.7891" y1="855.8701" y2="875.8701"/><polygon fill="#000000" points="458.7891,865.8701,462.7891,875.8701,466.7891,865.8701,462.7891,869.8701" style="stroke:#000000;stroke-width:1;"/><line style="stroke:#000000;stroke-width:1;" x1="462.7891" x2="462.7891" y1="1007.8076" y2="1027.8076"/><polygon fill="#000000" points="458.7891,1017.8076,462.7891,1027.8076,466.7891,1017.8076,462.7891,1021.8076" style="stroke:#000000;stroke-width:1;"/><line style="stroke:#000000;stroke-width:1;" x1="462.7891" x2="462.7891" y1="1164.1475" y2="1184.1475"/><polygon fill="#000000" points="458.7891,1174.1475,462.7891,1184.1475,466.7891,1174.1475,462.7891,1178.1475" style="stroke:#000000;stroke-width:1;"/><line style="stroke:#000000;stroke-width:1;" x1="462.7891" x2="462.7891" y1="1105.7764" y2="1130.1787"/><polygon fill="#000000" points="458.7891,1120.1787,462.7891,1130.1787,466.7891,1120.1787,462.7891,1124.1787" style="stroke:#000000;stroke-width:1;"/><line style="stroke:#000000;stroke-width:1;" x1="393.1465" x2="293.6035" y1="1093.7764" y2="1093.7764"/><polygon fill="#000000" points="289.6035,1279.585,293.6035,1289.585,297.6035,1279.585,293.6035,1283.585" style="stroke:#000000;stroke-width:1;"/><line style="stroke:#000000;stroke-width:1;" x1="293.6035" x2="293.6035" y1="1093.7764" y2="1480.9912"/><line style="stroke:#000000;stroke-width:1;" x1="293.6035" x2="450.7891" y1="1480.9912" y2="1480.9912"/><polygon fill="#000000" points="440.7891,1476.9912,450.7891,1480.9912,440.7891,1484.9912,444.7891,1480.9912" style="stroke:#000000;stroke-width:1;"/><line style="stroke:#000000;stroke-width:1;" x1="462.7891" x2="462.7891" y1="1448.9912" y2="1468.9912"/><polygon fill="#000000" points="458.7891,1458.9912,462.7891,1468.9912,466.7891,1458.9912,462.7891,1462.9912" style="stroke:#000000;stroke-width:1;"/><line style="stroke:#000000;stroke-width:1;" x1="462.7891" x2="462.7891" y1="1061.7764" y2="1081.7764"/><polygon fill="#000000" points="458.7891,1071.7764,462.7891,1081.7764,466.7891,1071.7764,462.7891,1075.7764" style="stroke:#000000;stroke-width:1;"/><line style="stroke:#000000;stroke-width:1;" x1="462.7891" x2="462.7891" y1="1492.9912" y2="1512.9912"/><polygon fill="#000000" points="458.7891,1502.9912,462.7891,1512.9912,466.7891,1502.9912,462.7891,1506.9912" style="stroke:#000000;stroke-width:1;"/><line style="stroke:#000000;stroke-width:1;" x1="462.7891" x2="462.7891" y1="1546.96" y2="1570.1084"/><polygon fill="#000000" points="458.7891,1560.1084,462.7891,1570.1084,466.7891,1560.1084,462.7891,1564.1084" style="stroke:#000000;stroke-width:1;"/><line style="stroke:#000000;stroke-width:1;" x1="462.7891" x2="462.7891" y1="1604.0771" y2="1624.0771"/><polygon fill="#000000" points="458.7891,1614.0771,462.7891,1624.0771,466.7891,1614.0771,462.7891,1618.0771" style="stroke:#000000;stroke-width:1;"/><line style="stroke:#000000;stroke-width:1;" x1="462.7891" x2="462.7891" y1="1658.0459" y2="1678.0459"/><polygon fill="#000000" points="458.7891,1668.0459,462.7891,1678.0459,466.7891,1668.0459,462.7891,1672.0459" style="stroke:#000000;stroke-width:1;"/><line style="stroke:#000000;stroke-width:1;" x1="462.7891" x2="462.7891" y1="1712.0146" y2="1735.1631"/><polygon fill="#000000" points="458.7891,1725.1631,462.7891,1735.1631,466.7891,1725.1631,462.7891,1729.1631" style="stroke:#000000;stroke-width:1;"/><line style="stroke:#000000;stroke-width:1;" x1="462.7891" x2="462.7891" y1="1769.1318" y2="1789.1318"/><polygon fill="#000000" points="458.7891,1779.1318,462.7891,1789.1318,466.7891,1779.1318,462.7891,1783.1318" style="stroke:#000000;stroke-width:1;"/><line style="stroke:#000000;stroke-width:1;" x1="462.7891" x2="462.7891" y1="1823.1006" y2="1843.1006"/><polygon fill="#000000" points="458.7891,1833.1006,462.7891,1843.1006,466.7891,1833.1006,462.7891,1837.1006" style="stroke:#000000;stroke-width:1;"/><line style="stroke:#000000;stroke-width:1;" x1="462.7891" x2="462.7891" y1="1877.0693" y2="1907.5029"/><polygon fill="#000000" points="458.7891,1897.5029,462.7891,1907.5029,466.7891,1897.5029,462.7891,1901.5029" style="stroke:#000000;stroke-width:1;"/><line style="stroke:#000000;stroke-width:1;" x1="462.7891" x2="462.7891" y1="1941.4717" y2="1964.6201"/><polygon fill="#000000" points="458.7891,1954.6201,462.7891,1964.6201,466.7891,1954.6201,462.7891,1958.6201" style="stroke:#000000;stroke-width:1;"/><line style="stroke:#000000;stroke-width:1;" x1="462.7891" x2="462.7891" y1="1998.5889" y2="2018.5889"/><polygon fill="#000000" points="458.7891,2008.5889,462.7891,2018.5889,466.7891,2008.5889,462.7891,2012.5889" style="stroke:#000000;stroke-width:1;"/><line style="stroke:#000000;stroke-width:1;" x1="462.7891" x2="462.7891" y1="2052.5576" y2="2072.5576"/><polygon fill="#000000" points="458.7891,2062.5576,462.7891,2072.5576,466.7891,2062.5576,462.7891,2066.5576" style="stroke:#000000;stroke-width:1;"/><line style="stroke:#000000;stroke-width:1;" x1="462.7891" x2="462.7891" y1="2106.5264" y2="2126.5264"/><polygon fill="#000000" points="458.7891,2116.5264,462.7891,2126.5264,466.7891,2116.5264,462.7891,2120.5264" style="stroke:#000000;stroke-width:1;"/><line style="stroke:#000000;stroke-width:1;" x1="462.7891" x2="462.7891" y1="2160.4951" y2="2180.4951"/><polygon fill="#000000" points="458.7891,2170.4951,462.7891,2180.4951,466.7891,2170.4951,462.7891,2174.4951" style="stroke:#000000;stroke-width:1;"/><line style="stroke:#000000;stroke-width:1;" x1="462.7891" x2="462.7891" y1="2214.4639" y2="2234.4639"/><polygon fill="#000000" points="458.7891,2224.4639,462.7891,2234.4639,466.7891,2224.4639,462.7891,2228.4639" style="stroke:#000000;stroke-width:1;"/><line style="stroke:#000000;stroke-width:1;" x1="462.7891" x2="462.7891" y1="2268.4326" y2="2288.4326"/><polygon fill="#000000" points="458.7891,2278.4326,462.7891,2288.4326,466.7891,2278.4326,462.7891,2282.4326" style="stroke:#000000;stroke-width:1;"/><line style="stroke:#000000;stroke-width:1;" x1="462.7891" x2="462.7891" y1="2322.4014" y2="2342.4014"/><polygon fill="#000000" points="458.7891,2332.4014,462.7891,2342.4014,466.7891,2332.4014,462.7891,2336.4014" style="stroke:#000000;stroke-width:1;"/><line style="stroke:#000000;stroke-width:1;" x1="462.7891" x2="462.7891" y1="2376.3701" y2="2396.3701"/><polygon fill="#000000" points="458.7891,2386.3701,462.7891,2396.3701,466.7891,2386.3701,462.7891,2390.3701" style="stroke:#000000;stroke-width:1;"/><line style="stroke:#000000;stroke-width:1;" x1="462.7891" x2="462.7891" y1="2430.3389" y2="2450.3389"/><polygon fill="#000000" points="458.7891,2440.3389,462.7891,2450.3389,466.7891,2440.3389,462.7891,2444.3389" style="stroke:#000000;stroke-width:1;"/><line style="stroke:#000000;stroke-width:1;" x1="462.7891" x2="462.7891" y1="2484.3076" y2="2504.3076"/><polygon fill="#000000" points="458.7891,2494.3076,462.7891,2504.3076,466.7891,2494.3076,462.7891,2498.3076" style="stroke:#000000;stroke-width:1;"/><line style="stroke:#000000;stroke-width:1;" x1="462.7891" x2="462.7891" y1="2538.2764" y2="2558.2764"/><polygon fill="#000000" points="458.7891,2548.2764,462.7891,2558.2764,466.7891,2548.2764,462.7891,2552.2764" style="stroke:#000000;stroke-width:1;"/><line style="stroke:#000000;stroke-width:1;" x1="462.7891" x2="462.7891" y1="2592.2451" y2="2612.2451"/><polygon fill="#000000" points="458.7891,2602.2451,462.7891,2612.2451,466.7891,2602.2451,462.7891,2606.2451" style="stroke:#000000;stroke-width:1;"/><line style="stroke:#000000;stroke-width:1;" x1="462.7891" x2="462.7891" y1="953.8389" y2="973.8389"/><polygon fill="#000000" points="458.7891,963.8389,462.7891,973.8389,466.7891,963.8389,462.7891,967.8389" style="stroke:#000000;stroke-width:1;"/><line style="stroke:#000000;stroke-width:1;" x1="462.7891" x2="462.7891" y1="909.8389" y2="929.8389"/><polygon fill="#000000" points="458.7891,919.8389,462.7891,929.8389,466.7891,919.8389,462.7891,923.8389" style="stroke:#000000;stroke-width:1;"/><line style="stroke:#000000;stroke-width:1;" x1="462.7891" x2="462.7891" y1="2852.1201" y2="2872.1201"/><polygon fill="#000000" points="458.7891,2862.1201,462.7891,2872.1201,466.7891,2862.1201,462.7891,2866.1201" style="stroke:#000000;stroke-width:1;"/><line style="stroke:#000000;stroke-width:1;" x1="462.7891" x2="462.7891" y1="2906.0889" y2="2963.0537"/><polygon fill="#000000" points="458.7891,2953.0537,462.7891,2963.0537,466.7891,2953.0537,462.7891,2957.0537" style="stroke:#000000;stroke-width:1;"/><line style="stroke:#000000;stroke-width:1;" x1="1017.1089" x2="1017.1089" y1="586.0264" y2="606.0264"/><polygon fill="#000000" points="1013.1089,596.0264,1017.1089,606.0264,1021.1089,596.0264,1017.1089,600.0264" style="stroke:#000000;stroke-width:1;"/><line style="stroke:#000000;stroke-width:1;" x1="1017.1089" x2="1017.1089" y1="639.9951" y2="659.9951"/><polygon fill="#000000" points="1013.1089,649.9951,1017.1089,659.9951,1021.1089,649.9951,1017.1089,653.9951" style="stroke:#000000;stroke-width:1;"/><line style="stroke:#000000;stroke-width:1;" x1="1017.1089" x2="1017.1089" y1="693.9639" y2="713.9639"/><polygon fill="#000000" points="1013.1089,703.9639,1017.1089,713.9639,1021.1089,703.9639,1017.1089,707.9639" style="stroke:#000000;stroke-width:1;"/><line style="stroke:#000000;stroke-width:1;" x1="1017.1089" x2="1017.1089" y1="747.9326" y2="767.9326"/><polygon fill="#000000" points="1013.1089,757.9326,1017.1089,767.9326,1021.1089,757.9326,1017.1089,761.9326" style="stroke:#000000;stroke-width:1;"/><line style="stroke:#000000;stroke-width:1;" x1="1017.1089" x2="1017.1089" y1="1272.085" y2="1307.085"/><polygon fill="#000000" points="1013.1089,1297.085,1017.1089,1307.085,1021.1089,1297.085,1017.1089,1301.085" style="stroke:#000000;stroke-width:1;"/><line style="stroke:#000000;stroke-width:1;" x1="1017.1089" x2="1017.1089" y1="1341.0537" y2="1361.0537"/><polygon fill="#000000" points="1013.1089,1351.0537,1017.1089,1361.0537,1021.1089,1351.0537,1017.1089,1355.0537" style="stroke:#000000;stroke-width:1;"/><line style="stroke:#000000;stroke-width:1;" x1="1017.1089" x2="1017.1089" y1="2700.1826" y2="2720.1826"/><polygon fill="#000000" points="1013.1089,2710.1826,1017.1089,2720.1826,1021.1089,2710.1826,1017.1089,2714.1826" style="stroke:#000000;stroke-width:1;"/><line style="stroke:#000000;stroke-width:1;" x1="1017.1089" x2="1017.1089" y1="2754.1514" y2="2774.1514"/><polygon fill="#000000" points="1013.1089,2764.1514,1017.1089,2774.1514,1021.1089,2764.1514,1017.1089,2768.1514" style="stroke:#000000;stroke-width:1;"/><line style="stroke:#000000;stroke-width:1;" x1="462.7891" x2="462.7891" y1="532.0576" y2="537.0576"/><line style="stroke:#000000;stroke-width:1;" x1="462.7891" x2="1017.1089" y1="537.0576" y2="537.0576"/><line style="stroke:#000000;stroke-width:1;" x1="1017.1089" x2="1017.1089" y1="537.0576" y2="552.0576"/><polygon fill="#000000" points="1013.1089,542.0576,1017.1089,552.0576,1021.1089,542.0576,1017.1089,546.0576" style="stroke:#000000;stroke-width:1;"/><line style="stroke:#000000;stroke-width:1;" x1="1017.1089" x2="1017.1089" y1="801.9014" y2="806.9014"/><line style="stroke:#000000;stroke-width:1;" x1="1017.1089" x2="462.7891" y1="806.9014" y2="806.9014"/><line style="stroke:#000000;stroke-width:1;" x1="462.7891" x2="462.7891" y1="806.9014" y2="821.9014"/><polygon fill="#000000" points="458.7891,811.9014,462.7891,821.9014,466.7891,811.9014,462.7891,815.9014" style="stroke:#000000;stroke-width:1;"/><line style="stroke:#000000;stroke-width:1;" x1="462.7891" x2="462.7891" y1="1218.1162" y2="1223.1162"/><line style="stroke:#000000;stroke-width:1;" x1="462.7891" x2="1017.1089" y1="1223.1162" y2="1223.1162"/><line style="stroke:#000000;stroke-width:1;" x1="1017.1089" x2="1017.1089" y1="1223.1162" y2="1238.1162"/><polygon fill="#000000" points="1013.1089,1228.1162,1017.1089,1238.1162,1021.1089,1228.1162,1017.1089,1232.1162" style="stroke:#000000;stroke-width:1;"/><line style="stroke:#000000;stroke-width:1;" x1="1017.1089" x2="1017.1089" y1="1395.0225" y2="1400.0225"/><line style="stroke:#000000;stroke-width:1;" x1="1017.1089" x2="462.7891" y1="1400.0225" y2="1400.0225"/><line style="stroke:#000000;stroke-width:1;" x1="462.7891" x2="462.7891" y1="1400.0225" y2="1415.0225"/><polygon fill="#000000" points="458.7891,1405.0225,462.7891,1415.0225,466.7891,1405.0225,462.7891,1409.0225" style="stroke:#000000;stroke-width:1;"/><line style="stroke:#000000;stroke-width:1;" x1="462.7891" x2="462.7891" y1="2646.2139" y2="2651.2139"/><line style="stroke:#000000;stroke-width:1;" x1="462.7891" x2="1017.1089" y1="2651.2139" y2="2651.2139"/><line style="stroke:#000000;stroke-width:1;" x1="1017.1089" x2="1017.1089" y1="2651.2139" y2="2666.2139"/><polygon fill="#000000" points="1013.1089,2656.2139,1017.1089,2666.2139,1021.1089,2656.2139,1017.1089,2660.2139" style="stroke:#000000;stroke-width:1;"/><line style="stroke:#000000;stroke-width:1;" x1="1078.8237" x2="1174.9912" y1="2786.1514" y2="2786.1514"/><polygon fill="#000000" points="1170.9912,1887.5029,1174.9912,1877.5029,1178.9912,1887.5029,1174.9912,1883.5029" style="stroke:#000000;stroke-width:1;"/><line style="stroke:#000000;stroke-width:1;" x1="1174.9912" x2="1174.9912" y1="941.8389" y2="2786.1514"/><line style="stroke:#000000;stroke-width:1;" x1="1174.9912" x2="474.7891" y1="941.8389" y2="941.8389"/><polygon fill="#000000" points="484.7891,937.8389,474.7891,941.8389,484.7891,945.8389,480.7891,941.8389" style="stroke:#000000;stroke-width:1;"/><line style="stroke:#000000;stroke-width:1;" x1="1017.1089" x2="1017.1089" y1="2798.1514" y2="2803.1514"/><line style="stroke:#000000;stroke-width:1;" x1="1017.1089" x2="462.7891" y1="2803.1514" y2="2803.1514"/><line style="stroke:#000000;stroke-width:1;" x1="462.7891" x2="462.7891" y1="2803.1514" y2="2818.1514"/><polygon fill="#000000" points="458.7891,2808.1514,462.7891,2818.1514,466.7891,2808.1514,462.7891,2812.1514" style="stroke:#000000;stroke-width:1;"/><text fill="#000000" font-family="Verdana" font-size="18" lengthAdjust="spacing" textLength="160.1982" x="364.4446" y="71.0625">Browser Frontend</text><text fill="#000000" font-family="Verdana" font-size="18" lengthAdjust="spacing" textLength="108.29" x="961.9639" y="71.0625">Go Backend</text><!--SRC=[bLRDRkCs4BxhAQRenVOwiBS5Ud0EY_mvANQpQyHEKg3eWRP7CjSq9P1Kd0Ovzm7w0htiO_IMD-cJz2Cf9V9VWVeYMJFppNmpmnb-vnQyOYgKa3gnIwaBOSIAfcAsp4nUwlbPhd93tm_3hw4nvrIKoWrpxIgLVlWbYPDECTtpzF8JtGl7XYQbouqKYexe71zqgafhwMJfv8DqBz-SdKkH0NIL9C-d9bzRs0mDa5dFdnFhX779u9HrwPuWKI_Vvex6B1qV9uFevwDNVdGajNHm9AramnhYyKBCOVEGQ-hPy6vxfF1i24Sc3zwPblcgaAgsdG2nn6kq5jQoQnXVirsmhMI5xAtY_rfyERgbKPccm8TFnqg5pqCuucdrNMeZPmld1SdpPKwdo7gWFBYQJ4QWQ1wW5lYpW_693u6kXHOPlkzmlVSXcjw4ZK4rgGemOytcDHrEkDBIRJ577MWYuQzseAdrKpyjR3icTPn3vkXAwBbwqpdUMw66FWAUIXrJS0CXzCQpXMAPSWF3SC729KHxm8W6d_AbG0lTBWo9fIiR726i-m3PoyJKLuUDC5FV3g1mBKhRcmZhUHfGWOLCgLKRIJWnm9Iv_j0cz3vCleesj83y4QKneawEgEhgeRWtYpBBaLlGZ_cc2uaKszb2f3w2JRDrwF-crKQTcswhqkmGFkXeZ-AT5FHMYvU_fsoSGRFKllTbs-E_cbJSULMaGbTsh2nJIoFVFa-magbFwqOhAuvHuBlE0M1ajd01lDEvuRHAkQKHc7GwGJ1-GcDIwGj25K4J6aP7Bm78-sdQDttMVGQLCoMB0lr08oK0YbC2SFgrtprwt-rt-xy5fVfSh2IcXmCTYWUyTdimUiM7eWyPtegUMXdRGdB6ohLtgRo2_Lyg3IPtajSO0yx8HwfSwGsA_ydeIfI5ipv-tMGqb1g7pjPiuk5585iKWlMXu2lRhRdgJ-YQjvKkfY42FwMQ41CZj4rpin8nJO6cJq7CnF5s6giQ_lF7dpIv-6LoUtFnlWdNR9vTrNvJzRoSF-pH-Q6fyza7fX1KqLJvSGVcHCkQm9SqzLCRZSApXTxCmQsMdggjozogcSMzs4MUsMfMxQRHEKOVuxJI4yitnAtIKslfExpkfWXmKgPqAjKSCqGQh73njfYIdSaqED6-QANEx859N4yitPWvSCZQsStPKyrxMYyandhh5TYlyZ9r7ze7jmfM-mrRcvTcvaTUcHfOhEAsU_Lv5tUE1mGp1F3obzUmBY-I9BI_ujHtVwTpx_SjncYyXrXdocLOyODm28v2Dmuye9CpjbsAzSOB-k8ipyqShpzZ0a8Oz6Ex3AhRJjKyNwPVKKEcTu1pmWzK7PItZiK0jvRgkW5bxvCVOOEZbO6XgzI3PUEu3MY8RLUxUeSTpYdNeoow2MK1UjWhNTgtFRg-fDqunN0veA4IMMJqbjRFOhQexYS3ki0J_URgDJN-NKEQQsb3coVrYFWN]--></g></svg>