<svg xmlns="http://www.w3.org/2000/svg" xmlns:xlink="http://www.w3.org/1999/xlink" contentStyleType="text/css" data-diagram-type="ACTIVITY" height="3039px" preserveAspectRatio="none" style="width:1129px;height:3039px;background:#FFFFFF;" version="1.1" viewBox="0 0 1129 3039" width="1129px" zoomAndPan="magnify"><title>WebGL Water Tutorial - Data Flow Activity Diagram</title><defs/><g><g class="title" data-source-line="5"><text fill="#000000" font-family="Verdana" font-size="22" font-weight="bold" lengthAdjust="spacing" textLength="638.5908" x="243.9536" y="35.4209">WebGL Water Tutorial - Data Flow Activity Diagram</text></g><rect fill="#FFFFFF" height="20.9531" style="stroke:#FFFFFF;stroke-width:1;" width="1078.498" x="10" y="54.3545"/><ellipse cx="430.105" cy="90.3076" fill="#FFFFFF" rx="10" ry="10" style="stroke:#000000;stroke-width:1;"/><rect fill="#FFFFFF" height="33.9688" rx="12.5" ry="12.5" style="stroke:#000000;stroke-width:1;" width="116.8496" x="371.6802" y="120.3076"/><text fill="#000000" font-family="Verdana" font-size="12" lengthAdjust="spacing" textLength="96.8496" x="381.6802" y="141.4463">User loads page</text><rect fill="#FFFFFF" height="33.9688" rx="12.5" ry="12.5" style="stroke:#000000;stroke-width:1;" width="166.1387" x="347.0356" y="174.2764"/><text fill="#000000" font-family="Verdana" font-size="12" lengthAdjust="spacing" textLength="146.1387" x="357.0356" y="195.415">Initialize WebGL context</text><rect fill="#FFFFFF" height="33.9688" rx="12.5" ry="12.5" style="stroke:#000000;stroke-width:1;" width="191.5098" x="334.3501" y="228.2451"/><text fill="#000000" font-family="Verdana" font-size="12" lengthAdjust="spacing" textLength="171.5098" x="344.3501" y="249.3838">Load shaders from /shaders/</text><rect fill="#FFFFFF" height="33.9688" rx="12.5" ry="12.5" style="stroke:#000000;stroke-width:1;" width="175.5898" x="342.3101" y="282.2139"/><text fill="#000000" font-family="Verdana" font-size="12" lengthAdjust="spacing" textLength="155.5898" x="352.3101" y="303.3525">Compile shader programs</text><rect fill="#FFFFFF" height="33.9688" rx="12.5" ry="12.5" style="stroke:#000000;stroke-width:1;" width="184.9824" x="337.6138" y="336.1826"/><text fill="#000000" font-family="Verdana" font-size="12" lengthAdjust="spacing" textLength="164.9824" x="347.6138" y="357.3213">Load textures from /assets/</text><rect fill="#FFFFFF" height="33.9688" rx="12.5" ry="12.5" style="stroke:#000000;stroke-width:1;" width="208.1504" x="326.0298" y="390.1514"/><text fill="#000000" font-family="Verdana" font-size="12" lengthAdjust="spacing" textLength="188.1504" x="336.0298" y="411.29">Load meshes from /api/meshes</text><rect fill="#FFFFFF" height="33.9688" rx="12.5" ry="12.5" style="stroke:#000000;stroke-width:1;" width="135.3242" x="362.4429" y="444.1201"/><text fill="#000000" font-family="Verdana" font-size="12" lengthAdjust="spacing" textLength="115.3242" x="372.4429" y="465.2588">Create GPU buffers</text><rect fill="#FFFFFF" height="33.9688" rx="12.5" ry="12.5" style="stroke:#000000;stroke-width:1;" width="136.5664" x="361.8218" y="498.0889"/><text fill="#000000" font-family="Verdana" font-size="12" lengthAdjust="spacing" textLength="116.5664" x="371.8218" y="519.2275">Setup framebuffers</text><rect fill="#FFFFFF" height="33.9688" rx="12.5" ry="12.5" style="stroke:#000000;stroke-width:1;" width="140.8906" x="359.6597" y="821.9014"/><text fill="#000000" font-family="Verdana" font-size="12" lengthAdjust="spacing" textLength="120.8906" x="369.6597" y="843.04">Connect WebSocket</text><rect fill="#FFFFFF" height="33.9688" rx="12.5" ry="12.5" style="stroke:#000000;stroke-width:1;" width="122.4336" x="368.8882" y="875.8701"/><text fill="#000000" font-family="Verdana" font-size="12" lengthAdjust="spacing" textLength="102.4336" x="378.8882" y="897.0088">Start render loop</text><rect fill="#FFFFFF" height="33.9688" rx="12.5" ry="12.5" style="stroke:#000000;stroke-width:1;" width="129.8691" x="365.1704" y="973.8389"/><text fill="#000000" font-family="Verdana" font-size="12" lengthAdjust="spacing" textLength="109.8691" x="375.1704" y="994.9775">Update local clock</text><rect fill="#FFFFFF" height="33.9688" rx="12.5" ry="12.5" style="stroke:#000000;stroke-width:1;" width="240.7754" x="309.7173" y="1027.8076"/><text fill="#000000" font-family="Verdana" font-size="12" lengthAdjust="spacing" textLength="220.7754" x="319.7173" y="1048.9463">Handle user input (mouse/keyboard)</text><rect fill="#FFFFFF" height="33.9688" rx="12.5" ry="12.5" style="stroke:#000000;stroke-width:1;" width="271.2617" x="294.4741" y="1130.1787"/><text fill="#000000" font-family="Verdana" font-size="12" lengthAdjust="spacing" textLength="251.2617" x="304.4741" y="1151.3174">Send camera update to /api/state/camera</text><rect fill="#FFFFFF" height="33.9688" rx="12.5" ry="12.5" style="stroke:#000000;stroke-width:1;" width="304.4668" x="277.8716" y="1184.1475"/><text fill="#000000" font-family="Verdana" font-size="12" lengthAdjust="spacing" textLength="284.4668" x="287.8716" y="1205.2861">Send water property update to /api/state/water</text><rect fill="#FFFFFF" height="33.9688" rx="12.5" ry="12.5" style="stroke:#000000;stroke-width:1;" width="184.8887" x="337.6606" y="1415.0225"/><text fill="#000000" font-family="Verdana" font-size="12" lengthAdjust="spacing" textLength="164.8887" x="347.6606" y="1436.1611">Receive WebSocket update</text><polygon fill="#FFFFFF" points="383.1563,1081.7764,477.0537,1081.7764,489.0537,1093.7764,477.0537,1105.7764,383.1563,1105.7764,371.1563,1093.7764,383.1563,1081.7764" style="stroke:#000000;stroke-width:1;"/><text fill="#000000" font-family="Verdana" font-size="11" lengthAdjust="spacing" textLength="19.0083" x="434.105" y="1115.9868">yes</text><text fill="#000000" font-family="Verdana" font-size="11" lengthAdjust="spacing" textLength="93.8975" x="383.1563" y="1097.5845">User interaction?</text><text fill="#000000" font-family="Verdana" font-size="11" lengthAdjust="spacing" textLength="13.7017" x="357.4546" y="1091.1821">no</text><polygon fill="#FFFFFF" points="430.105,1468.9912,442.105,1480.9912,430.105,1492.9912,418.105,1480.9912,430.105,1468.9912" style="stroke:#000000;stroke-width:1;"/><path d="M516.6157,1509.8428 L516.6157,1525.9756 L496.6157,1529.9756 L516.6157,1533.9756 L516.6157,1550.1084 A0,0 0 0 0 516.6157,1550.1084 L710.5195,1550.1084 A0,0 0 0 0 710.5195,1550.1084 L710.5195,1519.8428 L700.5195,1509.8428 L516.6157,1509.8428 A0,0 0 0 0 516.6157,1509.8428" fill="#FFFFFF" style="stroke:#000000;stroke-width:1;"/><path d="M700.5195,1509.8428 L700.5195,1519.8428 L710.5195,1519.8428 L700.5195,1509.8428" fill="#FFFFFF" style="stroke:#000000;stroke-width:1;"/><text fill="#000000" font-family="Verdana" font-size="13" font-weight="bold" lengthAdjust="spacing" textLength="114.5308" x="522.6157" y="1526.9097">Refraction Pass</text><text fill="#000000" font-family="Verdana" font-size="13" lengthAdjust="spacing" textLength="172.9038" x="522.6157" y="1542.0425">Render scene below water</text><rect fill="#FFFFFF" height="33.9688" rx="12.5" ry="12.5" style="stroke:#000000;stroke-width:1;" width="133.0215" x="363.5942" y="1512.9912"/><text fill="#000000" font-family="Verdana" font-size="12" lengthAdjust="spacing" textLength="113.0215" x="373.5942" y="1534.1299">Clear framebuffers</text><rect fill="#FFFFFF" height="33.9688" rx="12.5" ry="12.5" style="stroke:#000000;stroke-width:1;" width="184.4023" x="337.9038" y="1570.1084"/><text fill="#000000" font-family="Verdana" font-size="12" lengthAdjust="spacing" textLength="164.4023" x="347.9038" y="1591.2471">Bind refraction framebuffer</text><rect fill="#FFFFFF" height="33.9688" rx="12.5" ry="12.5" style="stroke:#000000;stroke-width:1;" width="187.1738" x="336.5181" y="1624.0771"/><text fill="#000000" font-family="Verdana" font-size="12" lengthAdjust="spacing" textLength="167.1738" x="346.5181" y="1645.2158">Set clipping plane [0,-1,0,0]</text><path d="M560.769,1674.8975 L560.769,1691.0303 L540.769,1695.0303 L560.769,1699.0303 L560.769,1715.1631 A0,0 0 0 0 560.769,1715.1631 L826.8774,1715.1631 A0,0 0 0 0 826.8774,1715.1631 L826.8774,1684.8975 L816.8774,1674.8975 L560.769,1674.8975 A0,0 0 0 0 560.769,1674.8975" fill="#FFFFFF" style="stroke:#000000;stroke-width:1;"/><path d="M816.8774,1674.8975 L816.8774,1684.8975 L826.8774,1684.8975 L816.8774,1674.8975" fill="#FFFFFF" style="stroke:#000000;stroke-width:1;"/><text fill="#000000" font-family="Verdana" font-size="13" font-weight="bold" lengthAdjust="spacing" textLength="112.6201" x="566.769" y="1691.9644">Reflection Pass</text><text fill="#000000" font-family="Verdana" font-size="13" lengthAdjust="spacing" textLength="245.1084" x="566.769" y="1707.0972">Render scene above water (mirrored)</text><rect fill="#FFFFFF" height="33.9688" rx="12.5" ry="12.5" style="stroke:#000000;stroke-width:1;" width="221.3281" x="319.4409" y="1678.0459"/><text fill="#000000" font-family="Verdana" font-size="12" lengthAdjust="spacing" textLength="201.3281" x="329.4409" y="1699.1846">Render terrain with stone texture</text><rect fill="#FFFFFF" height="33.9688" rx="12.5" ry="12.5" style="stroke:#000000;stroke-width:1;" width="182.832" x="338.689" y="1735.1631"/><text fill="#000000" font-family="Verdana" font-size="12" lengthAdjust="spacing" textLength="162.832" x="348.689" y="1756.3018">Bind reflection framebuffer</text><rect fill="#FFFFFF" height="33.9688" rx="12.5" ry="12.5" style="stroke:#000000;stroke-width:1;" width="182.8438" x="338.6831" y="1789.1318"/><text fill="#000000" font-family="Verdana" font-size="12" lengthAdjust="spacing" textLength="162.8438" x="348.6831" y="1810.2705">Set clipping plane [0,1,0,0]</text><rect fill="#FFFFFF" height="33.9688" rx="12.5" ry="12.5" style="stroke:#000000;stroke-width:1;" width="130.209" x="365.0005" y="1843.1006"/><text fill="#000000" font-family="Verdana" font-size="12" lengthAdjust="spacing" textLength="110.209" x="375.0005" y="1864.2393">Mirror view matrix</text><path d="M503.7661,1904.3545 L503.7661,1920.4873 L483.7661,1924.4873 L503.7661,1928.4873 L503.7661,1944.6201 A0,0 0 0 0 503.7661,1944.6201 L664.2559,1944.6201 A0,0 0 0 0 664.2559,1944.6201 L664.2559,1914.3545 L654.2559,1904.3545 L503.7661,1904.3545 A0,0 0 0 0 503.7661,1904.3545" fill="#FFFFFF" style="stroke:#000000;stroke-width:1;"/><path d="M654.2559,1904.3545 L654.2559,1914.3545 L664.2559,1914.3545 L654.2559,1904.3545" fill="#FFFFFF" style="stroke:#000000;stroke-width:1;"/><text fill="#000000" font-family="Verdana" font-size="13" font-weight="bold" lengthAdjust="spacing" textLength="122.2051" x="509.7661" y="1921.4214">Main Scene Pass</text><text fill="#000000" font-family="Verdana" font-size="13" lengthAdjust="spacing" textLength="139.4897" x="509.7661" y="1936.5542">Final water rendering</text><rect fill="#FFFFFF" height="33.9688" rx="12.5" ry="12.5" style="stroke:#000000;stroke-width:1;" width="107.3223" x="376.4438" y="1907.5029"/><text fill="#000000" font-family="Verdana" font-size="12" lengthAdjust="spacing" textLength="87.3223" x="386.4438" y="1928.6416">Render terrain</text><rect fill="#FFFFFF" height="33.9688" rx="12.5" ry="12.5" style="stroke:#000000;stroke-width:1;" width="155.9727" x="352.1187" y="1964.6201"/><text fill="#000000" font-family="Verdana" font-size="12" lengthAdjust="spacing" textLength="135.9727" x="362.1187" y="1985.7588">Bind main framebuffer</text><rect fill="#FFFFFF" height="33.9688" rx="12.5" ry="12.5" style="stroke:#000000;stroke-width:1;" width="180.6816" x="339.7642" y="2018.5889"/><text fill="#000000" font-family="Verdana" font-size="12" lengthAdjust="spacing" textLength="160.6816" x="349.7642" y="2039.7275">Use water shader program</text><rect fill="#FFFFFF" height="33.9688" rx="12.5" ry="12.5" style="stroke:#000000;stroke-width:1;" width="158.6445" x="350.7827" y="2072.5576"/><text fill="#000000" font-family="Verdana" font-size="12" lengthAdjust="spacing" textLength="138.6445" x="360.7827" y="2093.6963">Bind water plane mesh</text><rect fill="#FFFFFF" height="33.9688" rx="12.5" ry="12.5" style="stroke:#000000;stroke-width:1;" width="188.9609" x="335.6245" y="2126.5264"/><text fill="#000000" font-family="Verdana" font-size="12" lengthAdjust="spacing" textLength="168.9609" x="345.6245" y="2147.665">Set transformation matrices</text><rect fill="#FFFFFF" height="33.9688" rx="12.5" ry="12.5" style="stroke:#000000;stroke-width:1;" width="235.5605" x="312.3247" y="2180.4951"/><text fill="#000000" font-family="Verdana" font-size="12" lengthAdjust="spacing" textLength="215.5605" x="322.3247" y="2201.6338">Bind reflection texture &#8594; TEXTURE1</text><rect fill="#FFFFFF" height="33.9688" rx="12.5" ry="12.5" style="stroke:#000000;stroke-width:1;" width="237.1309" x="311.5396" y="2234.4639"/><text fill="#000000" font-family="Verdana" font-size="12" lengthAdjust="spacing" textLength="217.1309" x="321.5396" y="2255.6025">Bind refraction texture &#8594; TEXTURE0</text><rect fill="#FFFFFF" height="33.9688" rx="12.5" ry="12.5" style="stroke:#000000;stroke-width:1;" width="208.6602" x="325.7749" y="2288.4326"/><text fill="#000000" font-family="Verdana" font-size="12" lengthAdjust="spacing" textLength="188.6602" x="335.7749" y="2309.5713">Bind dudv texture &#8594; TEXTURE2</text><rect fill="#FFFFFF" height="33.9688" rx="12.5" ry="12.5" style="stroke:#000000;stroke-width:1;" width="203.8203" x="328.1948" y="2342.4014"/><text fill="#000000" font-family="Verdana" font-size="12" lengthAdjust="spacing" textLength="183.8203" x="338.1948" y="2363.54">Bind normal map &#8594; TEXTURE3</text><rect fill="#FFFFFF" height="33.9688" rx="12.5" ry="12.5" style="stroke:#000000;stroke-width:1;" width="211.8828" x="324.1636" y="2396.3701"/><text fill="#000000" font-family="Verdana" font-size="12" lengthAdjust="spacing" textLength="191.8828" x="334.1636" y="2417.5088">Calculate dudv animation offset</text><rect fill="#FFFFFF" height="33.9688" rx="12.5" ry="12.5" style="stroke:#000000;stroke-width:1;" width="260.5684" x="299.8208" y="2450.3389"/><text fill="#000000" font-family="Verdana" font-size="12" lengthAdjust="spacing" textLength="240.5684" x="309.8208" y="2471.4775">Set water uniforms (reflectivity, fresnel)</text><rect fill="#FFFFFF" height="33.9688" rx="12.5" ry="12.5" style="stroke:#000000;stroke-width:1;" width="145.6777" x="357.2661" y="2504.3076"/><text fill="#000000" font-family="Verdana" font-size="12" lengthAdjust="spacing" textLength="125.6777" x="367.2661" y="2525.4463">Draw water triangles</text><rect fill="#FFFFFF" height="33.9688" rx="12.5" ry="12.5" style="stroke:#000000;stroke-width:1;" width="186.3184" x="336.9458" y="2558.2764"/><text fill="#000000" font-family="Verdana" font-size="12" lengthAdjust="spacing" textLength="166.3184" x="346.9458" y="2579.415">Render terrain (no clipping)</text><rect fill="#FFFFFF" height="33.9688" rx="12.5" ry="12.5" style="stroke:#000000;stroke-width:1;" width="125.3281" x="367.4409" y="2612.2451"/><text fill="#000000" font-family="Verdana" font-size="12" lengthAdjust="spacing" textLength="105.3281" x="377.4409" y="2633.3838">Present to screen</text><polygon fill="#FFFFFF" points="430.105,929.8389,442.105,941.8389,430.105,953.8389,418.105,941.8389,430.105,929.8389" style="stroke:#000000;stroke-width:1;"/><rect fill="#FFFFFF" height="33.9688" rx="12.5" ry="12.5" style="stroke:#000000;stroke-width:1;" width="178.4375" x="340.8862" y="2818.1514"/><text fill="#000000" font-family="Verdana" font-size="12" lengthAdjust="spacing" textLength="158.4375" x="350.8862" y="2839.29">Cleanup WebGL resources</text><rect fill="#FFFFFF" height="33.9688" rx="12.5" ry="12.5" style="stroke:#000000;stroke-width:1;" width="193.8945" x="333.1577" y="2872.1201"/><text fill="#000000" font-family="Verdana" font-size="12" lengthAdjust="spacing" textLength="173.8945" x="343.1577" y="2893.2588">Close WebSocket connection</text><path d="M15,2916.0889 L15,3032.0186 A0,0 0 0 0 15,3032.0186 L399.105,3032.0186 A0,0 0 0 0 399.105,3032.0186 L399.105,2978.0537 L419.105,2974.0537 L399.105,2970.0537 L399.105,2926.0889 L389.105,2916.0889 L15,2916.0889 A0,0 0 0 0 15,2916.0889" fill="#FFFFFF" style="stroke:#000000;stroke-width:1;"/><path d="M389.105,2916.0889 L389.105,2926.0889 L399.105,2926.0889 L389.105,2916.0889" fill="#FFFFFF" style="stroke:#000000;stroke-width:1;"/><text fill="#000000" font-family="Verdana" font-size="13" font-weight="bold" lengthAdjust="spacing" textLength="153.5498" x="21" y="2933.1558">Key Data Structures:</text><text fill="#000000" font-family="Verdana" font-size="13" lengthAdjust="spacing" textLength="292.3477" x="21" y="2948.2886">- Mesh: vertices, normals, texCoords, indices</text><text fill="#000000" font-family="Verdana" font-size="13" lengthAdjust="spacing" textLength="298.7969" x="21" y="2963.4214">- Texture: WebGL texture objects + metadata</text><text fill="#000000" font-family="Verdana" font-size="13" lengthAdjust="spacing" textLength="363.105" x="21" y="2978.5542">- Shader Program: compiled vertex + fragment shaders</text><text fill="#000000" font-family="Verdana" font-size="13" lengthAdjust="spacing" textLength="289.98" x="21" y="2993.687">- Framebuffer: color texture + depth texture</text><text fill="#000000" font-family="Verdana" font-size="13" lengthAdjust="spacing" textLength="353.3169" x="21" y="3008.8198">- State: camera, water properties, clock, scenery flags</text><text fill="#000000" font-family="Verdana" font-size="13" lengthAdjust="spacing" textLength="361.4102" x="21" y="3023.9526">- WebSocket Messages: real-time state synchronization</text><ellipse cx="430.105" cy="2974.0537" fill="none" rx="11" ry="11" style="stroke:#000000;stroke-width:1;"/><ellipse cx="430.105" cy="2974.0537" fill="#FFFFFF" rx="6" ry="6" style="stroke:#000000;stroke-width:1;"/><line style="stroke:#000000;stroke-width:1;" x1="10" x2="10" y1="54.3545" y2="3032.0186"/><rect fill="#FFFFFF" height="33.9688" rx="12.5" ry="12.5" style="stroke:#000000;stroke-width:1;" width="130.7363" x="894.8892" y="552.0576"/><text fill="#000000" font-family="Verdana" font-size="12" lengthAdjust="spacing" textLength="110.7363" x="904.8892" y="573.1963">HTTP server starts</text><rect fill="#FFFFFF" height="33.9688" rx="12.5" ry="12.5" style="stroke:#000000;stroke-width:1;" width="163.7305" x="878.3921" y="606.0264"/><text fill="#000000" font-family="Verdana" font-size="12" lengthAdjust="spacing" textLength="143.7305" x="888.3921" y="627.165">Initialize asset manager</text><rect fill="#FFFFFF" height="33.9688" rx="12.5" ry="12.5" style="stroke:#000000;stroke-width:1;" width="208.7188" x="855.8979" y="659.9951"/><text fill="#000000" font-family="Verdana" font-size="12" lengthAdjust="spacing" textLength="188.7188" x="865.8979" y="681.1338">Generate water/terrain meshes</text><rect fill="#FFFFFF" height="33.9688" rx="12.5" ry="12.5" style="stroke:#000000;stroke-width:1;" width="213.8809" x="853.3169" y="713.9639"/><text fill="#000000" font-family="Verdana" font-size="12" lengthAdjust="spacing" textLength="193.8809" x="863.3169" y="735.1025">Start state update ticker (60fps)</text><rect fill="#FFFFFF" height="33.9688" rx="12.5" ry="12.5" style="stroke:#000000;stroke-width:1;" width="170.2344" x="875.1401" y="767.9326"/><text fill="#000000" font-family="Verdana" font-size="12" lengthAdjust="spacing" textLength="150.2344" x="885.1401" y="789.0713">Start WebSocket handler</text><rect fill="#FFFFFF" height="33.9688" rx="12.5" ry="12.5" style="stroke:#000000;stroke-width:1;" width="146.7969" x="886.8589" y="1238.1162"/><text fill="#000000" font-family="Verdana" font-size="12" lengthAdjust="spacing" textLength="126.7969" x="896.8589" y="1259.2549">Update camera state</text><rect fill="#FFFFFF" height="33.9688" rx="12.5" ry="12.5" style="stroke:#000000;stroke-width:1;" width="166.7773" x="876.8687" y="1307.085"/><text fill="#000000" font-family="Verdana" font-size="12" lengthAdjust="spacing" textLength="146.7773" x="886.8687" y="1328.2236">Update water properties</text><rect fill="#FFFFFF" height="33.9688" rx="12.5" ry="12.5" style="stroke:#000000;stroke-width:1;" width="173.2637" x="873.6255" y="1361.0537"/><text fill="#000000" font-family="Verdana" font-size="12" lengthAdjust="spacing" textLength="153.2637" x="883.6255" y="1382.1924">Broadcast via WebSocket</text><rect fill="#FFFFFF" height="33.9688" rx="12.5" ry="12.5" style="stroke:#000000;stroke-width:1;" width="168.1016" x="876.2065" y="2666.2139"/><text fill="#000000" font-family="Verdana" font-size="12" lengthAdjust="spacing" textLength="148.1016" x="886.2065" y="2687.3525">Update application clock</text><rect fill="#FFFFFF" height="33.9688" rx="12.5" ry="12.5" style="stroke:#000000;stroke-width:1;" width="244.7598" x="837.8774" y="2720.1826"/><text fill="#000000" font-family="Verdana" font-size="12" lengthAdjust="spacing" textLength="224.7598" x="847.8774" y="2741.3213">Broadcast state to WebSocket clients</text><polygon fill="#FFFFFF" points="903.6353,2774.1514,1016.8794,2774.1514,1028.8794,2786.1514,1016.8794,2798.1514,903.6353,2798.1514,891.6353,2786.1514,903.6353,2774.1514" style="stroke:#000000;stroke-width:1;"/><text fill="#000000" font-family="Verdana" font-size="11" lengthAdjust="spacing" textLength="113.2441" x="903.6353" y="2789.9595">Application running?</text><line style="stroke:#000000;stroke-width:1;" x1="831.8774" x2="831.8774" y1="54.3545" y2="3032.0186"/><line style="stroke:#000000;stroke-width:1;" x1="1086.6372" x2="1086.6372" y1="54.3545" y2="3032.0186"/><line style="stroke:#000000;stroke-width:1;" x1="430.105" x2="430.105" y1="100.3076" y2="120.3076"/><polygon fill="#000000" points="426.105,110.3076,430.105,120.3076,434.105,110.3076,430.105,114.3076" style="stroke:#000000;stroke-width:1;"/><line style="stroke:#000000;stroke-width:1;" x1="430.105" x2="430.105" y1="154.2764" y2="174.2764"/><polygon fill="#000000" points="426.105,164.2764,430.105,174.2764,434.105,164.2764,430.105,168.2764" style="stroke:#000000;stroke-width:1;"/><line style="stroke:#000000;stroke-width:1;" x1="430.105" x2="430.105" y1="208.2451" y2="228.2451"/><polygon fill="#000000" points="426.105,218.2451,430.105,228.2451,434.105,218.2451,430.105,222.2451" style="stroke:#000000;stroke-width:1;"/><line style="stroke:#000000;stroke-width:1;" x1="430.105" x2="430.105" y1="262.2139" y2="282.2139"/><polygon fill="#000000" points="426.105,272.2139,430.105,282.2139,434.105,272.2139,430.105,276.2139" style="stroke:#000000;stroke-width:1;"/><line style="stroke:#000000;stroke-width:1;" x1="430.105" x2="430.105" y1="316.1826" y2="336.1826"/><polygon fill="#000000" points="426.105,326.1826,430.105,336.1826,434.105,326.1826,430.105,330.1826" style="stroke:#000000;stroke-width:1;"/><line style="stroke:#000000;stroke-width:1;" x1="430.105" x2="430.105" y1="370.1514" y2="390.1514"/><polygon fill="#000000" points="426.105,380.1514,430.105,390.1514,434.105,380.1514,430.105,384.1514" style="stroke:#000000;stroke-width:1;"/><line style="stroke:#000000;stroke-width:1;" x1="430.105" x2="430.105" y1="424.1201" y2="444.1201"/><polygon fill="#000000" points="426.105,434.1201,430.105,444.1201,434.105,434.1201,430.105,438.1201" style="stroke:#000000;stroke-width:1;"/><line style="stroke:#000000;stroke-width:1;" x1="430.105" x2="430.105" y1="478.0889" y2="498.0889"/><polygon fill="#000000" points="426.105,488.0889,430.105,498.0889,434.105,488.0889,430.105,492.0889" style="stroke:#000000;stroke-width:1;"/><line style="stroke:#000000;stroke-width:1;" x1="430.105" x2="430.105" y1="855.8701" y2="875.8701"/><polygon fill="#000000" points="426.105,865.8701,430.105,875.8701,434.105,865.8701,430.105,869.8701" style="stroke:#000000;stroke-width:1;"/><line style="stroke:#000000;stroke-width:1;" x1="430.105" x2="430.105" y1="1007.8076" y2="1027.8076"/><polygon fill="#000000" points="426.105,1017.8076,430.105,1027.8076,434.105,1017.8076,430.105,1021.8076" style="stroke:#000000;stroke-width:1;"/><line style="stroke:#000000;stroke-width:1;" x1="430.105" x2="430.105" y1="1164.1475" y2="1184.1475"/><polygon fill="#000000" points="426.105,1174.1475,430.105,1184.1475,434.105,1174.1475,430.105,1178.1475" style="stroke:#000000;stroke-width:1;"/><line style="stroke:#000000;stroke-width:1;" x1="430.105" x2="430.105" y1="1105.7764" y2="1130.1787"/><polygon fill="#000000" points="426.105,1120.1787,430.105,1130.1787,434.105,1120.1787,430.105,1124.1787" style="stroke:#000000;stroke-width:1;"/><line style="stroke:#000000;stroke-width:1;" x1="371.1563" x2="267.8716" y1="1093.7764" y2="1093.7764"/><polygon fill="#000000" points="263.8716,1279.585,267.8716,1289.585,271.8716,1279.585,267.8716,1283.585" style="stroke:#000000;stroke-width:1;"/><line style="stroke:#000000;stroke-width:1;" x1="267.8716" x2="267.8716" y1="1093.7764" y2="1480.9912"/><line style="stroke:#000000;stroke-width:1;" x1="267.8716" x2="418.105" y1="1480.9912" y2="1480.9912"/><polygon fill="#000000" points="408.105,1476.9912,418.105,1480.9912,408.105,1484.9912,412.105,1480.9912" style="stroke:#000000;stroke-width:1;"/><line style="stroke:#000000;stroke-width:1;" x1="430.105" x2="430.105" y1="1448.9912" y2="1468.9912"/><polygon fill="#000000" points="426.105,1458.9912,430.105,1468.9912,434.105,1458.9912,430.105,1462.9912" style="stroke:#000000;stroke-width:1;"/><line style="stroke:#000000;stroke-width:1;" x1="430.105" x2="430.105" y1="1061.7764" y2="1081.7764"/><polygon fill="#000000" points="426.105,1071.7764,430.105,1081.7764,434.105,1071.7764,430.105,1075.7764" style="stroke:#000000;stroke-width:1;"/><line style="stroke:#000000;stroke-width:1;" x1="430.105" x2="430.105" y1="1492.9912" y2="1512.9912"/><polygon fill="#000000" points="426.105,1502.9912,430.105,1512.9912,434.105,1502.9912,430.105,1506.9912" style="stroke:#000000;stroke-width:1;"/><line style="stroke:#000000;stroke-width:1;" x1="430.105" x2="430.105" y1="1546.96" y2="1570.1084"/><polygon fill="#000000" points="426.105,1560.1084,430.105,1570.1084,434.105,1560.1084,430.105,1564.1084" style="stroke:#000000;stroke-width:1;"/><line style="stroke:#000000;stroke-width:1;" x1="430.105" x2="430.105" y1="1604.0771" y2="1624.0771"/><polygon fill="#000000" points="426.105,1614.0771,430.105,1624.0771,434.105,1614.0771,430.105,1618.0771" style="stroke:#000000;stroke-width:1;"/><line style="stroke:#000000;stroke-width:1;" x1="430.105" x2="430.105" y1="1658.0459" y2="1678.0459"/><polygon fill="#000000" points="426.105,1668.0459,430.105,1678.0459,434.105,1668.0459,430.105,1672.0459" style="stroke:#000000;stroke-width:1;"/><line style="stroke:#000000;stroke-width:1;" x1="430.105" x2="430.105" y1="1712.0146" y2="1735.1631"/><polygon fill="#000000" points="426.105,1725.1631,430.105,1735.1631,434.105,1725.1631,430.105,1729.1631" style="stroke:#000000;stroke-width:1;"/><line style="stroke:#000000;stroke-width:1;" x1="430.105" x2="430.105" y1="1769.1318" y2="1789.1318"/><polygon fill="#000000" points="426.105,1779.1318,430.105,1789.1318,434.105,1779.1318,430.105,1783.1318" style="stroke:#000000;stroke-width:1;"/><line style="stroke:#000000;stroke-width:1;" x1="430.105" x2="430.105" y1="1823.1006" y2="1843.1006"/><polygon fill="#000000" points="426.105,1833.1006,430.105,1843.1006,434.105,1833.1006,430.105,1837.1006" style="stroke:#000000;stroke-width:1;"/><line style="stroke:#000000;stroke-width:1;" x1="430.105" x2="430.105" y1="1877.0693" y2="1907.5029"/><polygon fill="#000000" points="426.105,1897.5029,430.105,1907.5029,434.105,1897.5029,430.105,1901.5029" style="stroke:#000000;stroke-width:1;"/><line style="stroke:#000000;stroke-width:1;" x1="430.105" x2="430.105" y1="1941.4717" y2="1964.6201"/><polygon fill="#000000" points="426.105,1954.6201,430.105,1964.6201,434.105,1954.6201,430.105,1958.6201" style="stroke:#000000;stroke-width:1;"/><line style="stroke:#000000;stroke-width:1;" x1="430.105" x2="430.105" y1="1998.5889" y2="2018.5889"/><polygon fill="#000000" points="426.105,2008.5889,430.105,2018.5889,434.105,2008.5889,430.105,2012.5889" style="stroke:#000000;stroke-width:1;"/><line style="stroke:#000000;stroke-width:1;" x1="430.105" x2="430.105" y1="2052.5576" y2="2072.5576"/><polygon fill="#000000" points="426.105,2062.5576,430.105,2072.5576,434.105,2062.5576,430.105,2066.5576" style="stroke:#000000;stroke-width:1;"/><line style="stroke:#000000;stroke-width:1;" x1="430.105" x2="430.105" y1="2106.5264" y2="2126.5264"/><polygon fill="#000000" points="426.105,2116.5264,430.105,2126.5264,434.105,2116.5264,430.105,2120.5264" style="stroke:#000000;stroke-width:1;"/><line style="stroke:#000000;stroke-width:1;" x1="430.105" x2="430.105" y1="2160.4951" y2="2180.4951"/><polygon fill="#000000" points="426.105,2170.4951,430.105,2180.4951,434.105,2170.4951,430.105,2174.4951" style="stroke:#000000;stroke-width:1;"/><line style="stroke:#000000;stroke-width:1;" x1="430.105" x2="430.105" y1="2214.4639" y2="2234.4639"/><polygon fill="#000000" points="426.105,2224.4639,430.105,2234.4639,434.105,2224.4639,430.105,2228.4639" style="stroke:#000000;stroke-width:1;"/><line style="stroke:#000000;stroke-width:1;" x1="430.105" x2="430.105" y1="2268.4326" y2="2288.4326"/><polygon fill="#000000" points="426.105,2278.4326,430.105,2288.4326,434.105,2278.4326,430.105,2282.4326" style="stroke:#000000;stroke-width:1;"/><line style="stroke:#000000;stroke-width:1;" x1="430.105" x2="430.105" y1="2322.4014" y2="2342.4014"/><polygon fill="#000000" points="426.105,2332.4014,430.105,2342.4014,434.105,2332.4014,430.105,2336.4014" style="stroke:#000000;stroke-width:1;"/><line style="stroke:#000000;stroke-width:1;" x1="430.105" x2="430.105" y1="2376.3701" y2="2396.3701"/><polygon fill="#000000" points="426.105,2386.3701,430.105,2396.3701,434.105,2386.3701,430.105,2390.3701" style="stroke:#000000;stroke-width:1;"/><line style="stroke:#000000;stroke-width:1;" x1="430.105" x2="430.105" y1="2430.3389" y2="2450.3389"/><polygon fill="#000000" points="426.105,2440.3389,430.105,2450.3389,434.105,2440.3389,430.105,2444.3389" style="stroke:#000000;stroke-width:1;"/><line style="stroke:#000000;stroke-width:1;" x1="430.105" x2="430.105" y1="2484.3076" y2="2504.3076"/><polygon fill="#000000" points="426.105,2494.3076,430.105,2504.3076,434.105,2494.3076,430.105,2498.3076" style="stroke:#000000;stroke-width:1;"/><line style="stroke:#000000;stroke-width:1;" x1="430.105" x2="430.105" y1="2538.2764" y2="2558.2764"/><polygon fill="#000000" points="426.105,2548.2764,430.105,2558.2764,434.105,2548.2764,430.105,2552.2764" style="stroke:#000000;stroke-width:1;"/><line style="stroke:#000000;stroke-width:1;" x1="430.105" x2="430.105" y1="2592.2451" y2="2612.2451"/><polygon fill="#000000" points="426.105,2602.2451,430.105,2612.2451,434.105,2602.2451,430.105,2606.2451" style="stroke:#000000;stroke-width:1;"/><line style="stroke:#000000;stroke-width:1;" x1="430.105" x2="430.105" y1="953.8389" y2="973.8389"/><polygon fill="#000000" points="426.105,963.8389,430.105,973.8389,434.105,963.8389,430.105,967.8389" style="stroke:#000000;stroke-width:1;"/><line style="stroke:#000000;stroke-width:1;" x1="430.105" x2="430.105" y1="909.8389" y2="929.8389"/><polygon fill="#000000" points="426.105,919.8389,430.105,929.8389,434.105,919.8389,430.105,923.8389" style="stroke:#000000;stroke-width:1;"/><line style="stroke:#000000;stroke-width:1;" x1="430.105" x2="430.105" y1="2852.1201" y2="2872.1201"/><polygon fill="#000000" points="426.105,2862.1201,430.105,2872.1201,434.105,2862.1201,430.105,2866.1201" style="stroke:#000000;stroke-width:1;"/><line style="stroke:#000000;stroke-width:1;" x1="430.105" x2="430.105" y1="2906.0889" y2="2963.0537"/><polygon fill="#000000" points="426.105,2953.0537,430.105,2963.0537,434.105,2953.0537,430.105,2957.0537" style="stroke:#000000;stroke-width:1;"/><line style="stroke:#000000;stroke-width:1;" x1="960.2573" x2="960.2573" y1="586.0264" y2="606.0264"/><polygon fill="#000000" points="956.2573,596.0264,960.2573,606.0264,964.2573,596.0264,960.2573,600.0264" style="stroke:#000000;stroke-width:1;"/><line style="stroke:#000000;stroke-width:1;" x1="960.2573" x2="960.2573" y1="639.9951" y2="659.9951"/><polygon fill="#000000" points="956.2573,649.9951,960.2573,659.9951,964.2573,649.9951,960.2573,653.9951" style="stroke:#000000;stroke-width:1;"/><line style="stroke:#000000;stroke-width:1;" x1="960.2573" x2="960.2573" y1="693.9639" y2="713.9639"/><polygon fill="#000000" points="956.2573,703.9639,960.2573,713.9639,964.2573,703.9639,960.2573,707.9639" style="stroke:#000000;stroke-width:1;"/><line style="stroke:#000000;stroke-width:1;" x1="960.2573" x2="960.2573" y1="747.9326" y2="767.9326"/><polygon fill="#000000" points="956.2573,757.9326,960.2573,767.9326,964.2573,757.9326,960.2573,761.9326" style="stroke:#000000;stroke-width:1;"/><line style="stroke:#000000;stroke-width:1;" x1="960.2573" x2="960.2573" y1="1272.085" y2="1307.085"/><polygon fill="#000000" points="956.2573,1297.085,960.2573,1307.085,964.2573,1297.085,960.2573,1301.085" style="stroke:#000000;stroke-width:1;"/><line style="stroke:#000000;stroke-width:1;" x1="960.2573" x2="960.2573" y1="1341.0537" y2="1361.0537"/><polygon fill="#000000" points="956.2573,1351.0537,960.2573,1361.0537,964.2573,1351.0537,960.2573,1355.0537" style="stroke:#000000;stroke-width:1;"/><line style="stroke:#000000;stroke-width:1;" x1="960.2573" x2="960.2573" y1="2700.1826" y2="2720.1826"/><polygon fill="#000000" points="956.2573,2710.1826,960.2573,2720.1826,964.2573,2710.1826,960.2573,2714.1826" style="stroke:#000000;stroke-width:1;"/><line style="stroke:#000000;stroke-width:1;" x1="960.2573" x2="960.2573" y1="2754.1514" y2="2774.1514"/><polygon fill="#000000" points="956.2573,2764.1514,960.2573,2774.1514,964.2573,2764.1514,960.2573,2768.1514" style="stroke:#000000;stroke-width:1;"/><line style="stroke:#000000;stroke-width:1;" x1="430.105" x2="430.105" y1="532.0576" y2="537.0576"/><line style="stroke:#000000;stroke-width:1;" x1="430.105" x2="960.2573" y1="537.0576" y2="537.0576"/><line style="stroke:#000000;stroke-width:1;" x1="960.2573" x2="960.2573" y1="537.0576" y2="552.0576"/><polygon fill="#000000" points="956.2573,542.0576,960.2573,552.0576,964.2573,542.0576,960.2573,546.0576" style="stroke:#000000;stroke-width:1;"/><line style="stroke:#000000;stroke-width:1;" x1="960.2573" x2="960.2573" y1="801.9014" y2="806.9014"/><line style="stroke:#000000;stroke-width:1;" x1="960.2573" x2="430.105" y1="806.9014" y2="806.9014"/><line style="stroke:#000000;stroke-width:1;" x1="430.105" x2="430.105" y1="806.9014" y2="821.9014"/><polygon fill="#000000" points="426.105,811.9014,430.105,821.9014,434.105,811.9014,430.105,815.9014" style="stroke:#000000;stroke-width:1;"/><line style="stroke:#000000;stroke-width:1;" x1="430.105" x2="430.105" y1="1218.1162" y2="1223.1162"/><line style="stroke:#000000;stroke-width:1;" x1="430.105" x2="960.2573" y1="1223.1162" y2="1223.1162"/><line style="stroke:#000000;stroke-width:1;" x1="960.2573" x2="960.2573" y1="1223.1162" y2="1238.1162"/><polygon fill="#000000" points="956.2573,1228.1162,960.2573,1238.1162,964.2573,1228.1162,960.2573,1232.1162" style="stroke:#000000;stroke-width:1;"/><line style="stroke:#000000;stroke-width:1;" x1="960.2573" x2="960.2573" y1="1395.0225" y2="1400.0225"/><line style="stroke:#000000;stroke-width:1;" x1="960.2573" x2="430.105" y1="1400.0225" y2="1400.0225"/><line style="stroke:#000000;stroke-width:1;" x1="430.105" x2="430.105" y1="1400.0225" y2="1415.0225"/><polygon fill="#000000" points="426.105,1405.0225,430.105,1415.0225,434.105,1405.0225,430.105,1409.0225" style="stroke:#000000;stroke-width:1;"/><line style="stroke:#000000;stroke-width:1;" x1="430.105" x2="430.105" y1="2646.2139" y2="2651.2139"/><line style="stroke:#000000;stroke-width:1;" x1="430.105" x2="960.2573" y1="2651.2139" y2="2651.2139"/><line style="stroke:#000000;stroke-width:1;" x1="960.2573" x2="960.2573" y1="2651.2139" y2="2666.2139"/><polygon fill="#000000" points="956.2573,2656.2139,960.2573,2666.2139,964.2573,2656.2139,960.2573,2660.2139" style="stroke:#000000;stroke-width:1;"/><line style="stroke:#000000;stroke-width:1;" x1="1028.8794" x2="1108.498" y1="2786.1514" y2="2786.1514"/><polygon fill="#000000" points="1104.498,1887.5029,1108.498,1877.5029,1112.498,1887.5029,1108.498,1883.5029" style="stroke:#000000;stroke-width:1;"/><line style="stroke:#000000;stroke-width:1;" x1="1108.498" x2="1108.498" y1="941.8389" y2="2786.1514"/><line style="stroke:#000000;stroke-width:1;" x1="1108.498" x2="442.105" y1="941.8389" y2="941.8389"/><polygon fill="#000000" points="452.105,937.8389,442.105,941.8389,452.105,945.8389,448.105,941.8389" style="stroke:#000000;stroke-width:1;"/><line style="stroke:#000000;stroke-width:1;" x1="960.2573" x2="960.2573" y1="2798.1514" y2="2803.1514"/><line style="stroke:#000000;stroke-width:1;" x1="960.2573" x2="430.105" y1="2803.1514" y2="2803.1514"/><line style="stroke:#000000;stroke-width:1;" x1="430.105" x2="430.105" y1="2803.1514" y2="2818.1514"/><polygon fill="#000000" points="426.105,2808.1514,430.105,2818.1514,434.105,2808.1514,430.105,2812.1514" style="stroke:#000000;stroke-width:1;"/><text fill="#000000" font-family="Verdana" font-size="18" lengthAdjust="spacing" textLength="160.1982" x="340.8396" y="71.0625">Browser Frontend</text><text fill="#000000" font-family="Verdana" font-size="18" lengthAdjust="spacing" textLength="108.29" x="905.1123" y="71.0625">Go Backend</text><!--SRC=[ZLR1Zjis4BthAwRenNQyiDC2FSY78EkDDqMpm69j8m627cY9ijcbI86ax7Mmvtn0Fx5VqaTIikMDjgW1mnRvvitCc-5GFxaTBpbLaWcLs4UXAcPOIHkMFMwDhbK-rr8R-daHFXr4pWjMIxVGoZMGQVWaYHDESlhCDxUVw3DptD2gTje89kcARfXZj93wGEyp9_R27Ub6i2qOa-JvskY31NvXmCfL_fnOnunBqhLVbPhbbYgsvRCa_Lq91qRnhVMKUPCdXwrFm97TiPmRIuNH9KsQfmbsvxgi1EABIrGPxPtRrivpr8QtXinQxe9Ts2svtPttAZ692vxMSAHAj_ThsjH50MTON79NLq2pafyMa-TRJTUGD-INVbojxWdPxH5BIDPU9XS2e98ff6smTSiLDzxJmIixmTUWSdIAO-avF1CWTPNx7oVWpD3WjsbHsU490zcM6ZkETapbqhFtLG22ASMp3lx4O008TT4LR0sl8452r4D2bAvZC59dw8CCFuypl_mn-ARQuz5QjQD1gV4qUUJ7ZMOcHy30YO86wuX1oWojezMx8Q5v5GsEt0w10TiItYY3t8QTijUnKa6IIToRTT11Hzy65JTenbwhW8b65zKBB4rYZTTWCBlOkV0WV9N2BbHYUSQiexrWNNM3cpuDOVJ0Coxsl5Ey6B2tuj9o6YZjjO25ABnmwLnoPbxs897IYCo8xSu5uj7eWHUDhdIFfXkDmlf3BB7Dq7QquVxSXdIYYy3YdLmBF9WpGyTTg38E0cekgagehPyr8Fiw7L-z7K_7qpy3ed7KzlD1k1sqr00s9_BLg2N_xwZPHk_R8WnAOOmsF1- -aa1BzlyIwCH_5uXHIdx0QNL6FFMarP_3dKzu6MBjvB0G2WSbXXqF6bptHLrwyvVnugmqjfTpRdOoQxeofEAdnobDPvYoXJR8mYiHaibYr_uWKrCR-kVxtxJwy6MrVlZmTjRN43t0wHcOr_c-3_BB6Q9yG1BHL5t0hm4mPpAhfJzgWOWfqSIkYyB64nKoYodNIlZiB0tQHFmjD8Q4t2ekXm5-OrZJwT13CBMLZG8l-XJ7xTGNqV8UD5mvFq5iPZYFHNynDjhHmAfAYYm6Uvw9vyaGvpYepkSTta1lJmEN3Zj_dGtUTwXChHG2UZTyPQ9Z92XSJF7YHBowDbcynQIstU6InTaFpXckObqbIUXUoGlVlAFH7_mOR_IbCtKMBiuqzEyLtQ6dKjhxaGVkSLD0_46TvrgR77zHMByPyAjO_hI9gkq6lVaB0LXwWoPr3AAnW5x6hhwFNPqYq72hvy4XVm8ShRSjVI6Qkp-OBSx7nDlurvRMqHkyqLGOEirpzEBbJvlHFlvXa8zZpSPnq9WZ5P9jewEpXD31ukwsAOHcyie9l6t5ijgZodQeYlWMgfQq9_jV]--></g></svg>