<svg xmlns="http://www.w3.org/2000/svg" xmlns:xlink="http://www.w3.org/1999/xlink" contentStyleType="text/css" data-diagram-type="DESCRIPTION" height="690px" preserveAspectRatio="none" style="width:2457px;height:690px;background:#FFFFFF;" version="1.1" viewBox="0 0 2457 690" width="2457px" zoomAndPan="magnify"><title>WebGL Water Tutorial - System Architecture</title><defs/><g><g class="title" data-source-line="5"><text fill="#000000" font-family="Verdana" font-size="22" font-weight="bold" lengthAdjust="spacing" textLength="553.1045" x="947.4478" y="35.4209">WebGL Water Tutorial - System Architecture</text></g><!--cluster Frontend (Browser)--><g class="cluster" data-entity="Frontend .Browser." data-source-line="7" data-uid="ent0002" id="cluster_Frontend .Browser."><path d="M13.5,57.6094 L169.2588,57.6094 A3.75,3.75 0 0 1 171.7588,60.1094 L178.7588,79.9063 L916.5,79.9063 A2.5,2.5 0 0 1 919,82.4063 L919,308.8194 A2.5,2.5 0 0 1 916.5,311.3194 L13.5,311.3194 A2.5,2.5 0 0 1 11,308.8194 L11,60.1094 A2.5,2.5 0 0 1 13.5,57.6094" fill="#FFFFFF" style="stroke:#000000;stroke-width:1;"/><line style="stroke:#000000;stroke-width:1;" x1="11" x2="178.7588" y1="79.9063" y2="79.9063"/><text fill="#000000" font-family="Verdana" font-size="14" font-weight="bold" lengthAdjust="spacing" textLength="154.7588" x="15" y="72.6045">Frontend (Browser)</text></g><!--cluster Backend (Go Server)--><g class="cluster" data-entity="Backend .Go Server." data-source-line="24" data-uid="ent0016" id="cluster_Backend .Go Server."><path d="M945.5,214.0294 L1109.373,214.0294 A3.75,3.75 0 0 1 1111.873,216.5294 L1118.873,236.3263 L1702.5,236.3263 A2.5,2.5 0 0 1 1705,238.8263 L1705,680.8294 A2.5,2.5 0 0 1 1702.5,683.3294 L945.5,683.3294 A2.5,2.5 0 0 1 943,680.8294 L943,216.5294 A2.5,2.5 0 0 1 945.5,214.0294" fill="#FFFFFF" style="stroke:#000000;stroke-width:1;"/><line style="stroke:#000000;stroke-width:1;" x1="943" x2="1118.873" y1="236.3263" y2="236.3263"/><text fill="#000000" font-family="Verdana" font-size="14" font-weight="bold" lengthAdjust="spacing" textLength="162.873" x="947" y="229.0245">Backend (Go Server)</text></g><!--cluster File System--><g class="cluster" data-entity="File System" data-source-line="41" data-uid="ent0030" id="cluster_File System"><path d="M157.2974,490.6369 C173.3332,467.8854 198.2476,464.1141 212.2134,492.8449 C224.1996,469.9447 243.9691,467.4427 260.6508,487.5574 C278.0002,454.4785 302.7341,460.2313 321.963,485.5852 C339.3378,459.2078 358.9955,458.0105 376.236,485.7199 C395.374,462.6018 412.3495,461.7417 427.2399,489.9415 C442.3676,459.9719 462.4838,458.8649 481.6885,486.0581 C499.6192,466.2711 516.6368,466.2065 532.8197,488.1973 C549.112,457.21 568.8149,459.2522 589.4893,483.7192 C607.4448,455.0746 629.292,460.478 646.0678,484.9752 C667.1594,459.9006 683.7181,464.0446 698.801,491.0581 C713.4546,467.1309 732.6313,463.1469 750.3151,487.8481 C764.0243,456.587 791.6976,459.7495 806.9645,486.3223 C825.7634,458.2524 846.5425,458.4702 865.6139,486.035 C881.1478,459.6524 899.0035,462.215 914.922,485.6544 C923.7906,491.4406 922.941,499.6855 914.5683,505.159 C925.9987,510.8782 926.0273,519.0155 915.4755,525.7053 C924.5321,533.1527 924.6055,539.6493 914.8372,546.5194 C925.5619,551.8183 924.01,561.2394 915.2431,566.926 C897.4436,588.9859 880.7664,590.2907 862.2514,567.7767 C850.736,601.2611 825.1446,600.4788 804.3639,577.2306 C790.5697,601.6177 767.4786,599.7175 753.46,577.4755 C735.6235,600.7175 716.6797,604.1665 700.0122,576.2541 C684.9278,601.5498 658.9237,602.9119 640.9456,579.7837 C625.7898,603.4164 606.8016,600.2272 594.2128,577.212 C577.3168,605.6773 555.5783,606.3714 536.4698,579.5217 C516.9092,603.6848 491.8214,605.9396 476.972,574.4821 C464.508,596.2489 446.9584,599.0053 430.4388,578.9999 C413.1828,605.8709 387.992,605.517 375.2828,574.6561 C356.2336,606.816 336.4408,601.06 314.7948,577.4738 C297.4635,601.8486 272.8061,597.721 259.616,572.8352 C244.5874,601.0809 224.7813,603.3787 206.1579,576.3092 C186.1451,601.6645 161.2375,598.465 150.0796,567.4933 C140.2956,563.3286 139.0258,557.0402 146.0086,549.1536 C131.6513,544.9048 132.7028,535.4395 140.2739,525.8048 C132.1811,516.0145 135.8128,509.383 146.951,506.1138 C142.3881,496.9187 146.7298,489.7172 157.2974,490.6369" fill="#FFFFFF" style="stroke:#000000;stroke-width:1;"/><text fill="#000000" font-family="Verdana" font-size="14" font-weight="bold" lengthAdjust="spacing" textLength="91.8477" x="484.5762" y="502.7345">File System</text></g><!--cluster Runtime Data--><g class="cluster" data-entity="Runtime Data" data-source-line="48" data-uid="ent0035" id="cluster_Runtime Data"><path d="M1729,471.7394 C1729,461.7394 2084.5,461.7394 2084.5,461.7394 C2084.5,461.7394 2440,461.7394 2440,471.7394 L2440,564.0294 C2440,574.0294 2084.5,574.0294 2084.5,574.0294 C2084.5,574.0294 1729,574.0294 1729,564.0294 L1729,471.7394" fill="#FFFFFF" style="stroke:#000000;stroke-width:1;"/><path d="M1729,471.7394 C1729,481.7394 2084.5,481.7394 2084.5,481.7394 C2084.5,481.7394 2440,481.7394 2440,471.7394" fill="none" style="stroke:#000000;stroke-width:1;"/><text fill="#000000" font-family="Verdana" font-size="14" font-weight="bold" lengthAdjust="spacing" textLength="108.3701" x="2030.3149" y="496.7345">Runtime Data</text></g><!--entity Canvas--><g class="entity" data-entity="Canvas" data-source-line="8" data-uid="ent0003" id="entity_Canvas"><rect fill="#FFFFFF" height="46.2969" rx="2.5" ry="2.5" style="stroke:#000000;stroke-width:1;" width="134.7939" x="34.6" y="92.6094"/><rect fill="#FFFFFF" height="10" style="stroke:#000000;stroke-width:1;" width="15" x="149.3939" y="97.6094"/><rect fill="#FFFFFF" height="2" style="stroke:#000000;stroke-width:1;" width="4" x="147.3939" y="99.6094"/><rect fill="#FFFFFF" height="2" style="stroke:#000000;stroke-width:1;" width="4" x="147.3939" y="103.6094"/><text fill="#000000" font-family="Verdana" font-size="14" lengthAdjust="spacing" textLength="94.7939" x="49.6" y="125.6045">HTML Canvas</text></g><!--entity WebGL--><g class="entity" data-entity="WebGL" data-source-line="9" data-uid="ent0004" id="entity_WebGL"><rect fill="#FFFFFF" height="46.2969" rx="2.5" ry="2.5" style="stroke:#000000;stroke-width:1;" width="149.5322" x="27.23" y="249.0294"/><rect fill="#FFFFFF" height="10" style="stroke:#000000;stroke-width:1;" width="15" x="156.7622" y="254.0294"/><rect fill="#FFFFFF" height="2" style="stroke:#000000;stroke-width:1;" width="4" x="154.7622" y="256.0294"/><rect fill="#FFFFFF" height="2" style="stroke:#000000;stroke-width:1;" width="4" x="154.7622" y="260.0294"/><text fill="#000000" font-family="Verdana" font-size="14" lengthAdjust="spacing" textLength="109.5322" x="42.23" y="282.0245">WebGL Context</text></g><!--entity JSApp--><g class="entity" data-entity="JSApp" data-source-line="10" data-uid="ent0005" id="entity_JSApp"><rect fill="#FFFFFF" height="46.2969" rx="2.5" ry="2.5" style="stroke:#000000;stroke-width:1;" width="192.8516" x="642.57" y="92.6094"/><rect fill="#FFFFFF" height="10" style="stroke:#000000;stroke-width:1;" width="15" x="815.4216" y="97.6094"/><rect fill="#FFFFFF" height="2" style="stroke:#000000;stroke-width:1;" width="4" x="813.4216" y="99.6094"/><rect fill="#FFFFFF" height="2" style="stroke:#000000;stroke-width:1;" width="4" x="813.4216" y="103.6094"/><text fill="#000000" font-family="Verdana" font-size="14" lengthAdjust="spacing" textLength="152.8516" x="657.57" y="125.6045">JavaScript Application</text></g><!--entity Shaders--><g class="entity" data-entity="Shaders" data-source-line="11" data-uid="ent0006" id="entity_Shaders"><rect fill="#FFFFFF" height="46.2969" rx="2.5" ry="2.5" style="stroke:#000000;stroke-width:1;" width="160.9619" x="211.52" y="249.0294"/><rect fill="#FFFFFF" height="10" style="stroke:#000000;stroke-width:1;" width="15" x="352.4819" y="254.0294"/><rect fill="#FFFFFF" height="2" style="stroke:#000000;stroke-width:1;" width="4" x="350.4819" y="256.0294"/><rect fill="#FFFFFF" height="2" style="stroke:#000000;stroke-width:1;" width="4" x="350.4819" y="260.0294"/><text fill="#000000" font-family="Verdana" font-size="14" lengthAdjust="spacing" textLength="120.9619" x="226.52" y="282.0245">Shader Programs</text></g><!--entity Textures--><g class="entity" data-entity="Textures" data-source-line="12" data-uid="ent0007" id="entity_Textures"><rect fill="#FFFFFF" height="46.2969" rx="2.5" ry="2.5" style="stroke:#000000;stroke-width:1;" width="159.998" x="407" y="249.0294"/><rect fill="#FFFFFF" height="10" style="stroke:#000000;stroke-width:1;" width="15" x="546.998" y="254.0294"/><rect fill="#FFFFFF" height="2" style="stroke:#000000;stroke-width:1;" width="4" x="544.998" y="256.0294"/><rect fill="#FFFFFF" height="2" style="stroke:#000000;stroke-width:1;" width="4" x="544.998" y="260.0294"/><text fill="#000000" font-family="Verdana" font-size="14" lengthAdjust="spacing" textLength="119.998" x="422" y="282.0245">Texture Manager</text></g><!--entity Meshes--><g class="entity" data-entity="Meshes" data-source-line="13" data-uid="ent0008" id="entity_Meshes"><rect fill="#FFFFFF" height="46.2969" rx="2.5" ry="2.5" style="stroke:#000000;stroke-width:1;" width="131.3076" x="602.35" y="249.0294"/><rect fill="#FFFFFF" height="10" style="stroke:#000000;stroke-width:1;" width="15" x="713.6576" y="254.0294"/><rect fill="#FFFFFF" height="2" style="stroke:#000000;stroke-width:1;" width="4" x="711.6576" y="256.0294"/><rect fill="#FFFFFF" height="2" style="stroke:#000000;stroke-width:1;" width="4" x="711.6576" y="260.0294"/><text fill="#000000" font-family="Verdana" font-size="14" lengthAdjust="spacing" textLength="91.3076" x="617.35" y="282.0245">Mesh Buffers</text></g><!--entity FBs--><g class="entity" data-entity="FBs" data-source-line="14" data-uid="ent0009" id="entity_FBs"><rect fill="#FFFFFF" height="46.2969" rx="2.5" ry="2.5" style="stroke:#000000;stroke-width:1;" width="133.9189" x="769.04" y="249.0294"/><rect fill="#FFFFFF" height="10" style="stroke:#000000;stroke-width:1;" width="15" x="882.9589" y="254.0294"/><rect fill="#FFFFFF" height="2" style="stroke:#000000;stroke-width:1;" width="4" x="880.9589" y="256.0294"/><rect fill="#FFFFFF" height="2" style="stroke:#000000;stroke-width:1;" width="4" x="880.9589" y="260.0294"/><text fill="#000000" font-family="Verdana" font-size="14" lengthAdjust="spacing" textLength="93.9189" x="784.04" y="282.0245">Framebuffers</text></g><!--entity HTTPServer--><g class="entity" data-entity="HTTPServer" data-source-line="25" data-uid="ent0017" id="entity_HTTPServer"><rect fill="#FFFFFF" height="46.2969" rx="2.5" ry="2.5" style="stroke:#000000;stroke-width:1;" width="126.4336" x="963.78" y="249.0294"/><rect fill="#FFFFFF" height="10" style="stroke:#000000;stroke-width:1;" width="15" x="1070.2136" y="254.0294"/><rect fill="#FFFFFF" height="2" style="stroke:#000000;stroke-width:1;" width="4" x="1068.2136" y="256.0294"/><rect fill="#FFFFFF" height="2" style="stroke:#000000;stroke-width:1;" width="4" x="1068.2136" y="260.0294"/><text fill="#000000" font-family="Verdana" font-size="14" lengthAdjust="spacing" textLength="86.4336" x="978.78" y="282.0245">HTTP Server</text></g><!--entity StaticFS--><g class="entity" data-entity="StaticFS" data-source-line="26" data-uid="ent0018" id="entity_StaticFS"><rect fill="#FFFFFF" height="46.2969" rx="2.5" ry="2.5" style="stroke:#000000;stroke-width:1;" width="159.2871" x="959.36" y="368.4394"/><rect fill="#FFFFFF" height="10" style="stroke:#000000;stroke-width:1;" width="15" x="1098.6471" y="373.4394"/><rect fill="#FFFFFF" height="2" style="stroke:#000000;stroke-width:1;" width="4" x="1096.6471" y="375.4394"/><rect fill="#FFFFFF" height="2" style="stroke:#000000;stroke-width:1;" width="4" x="1096.6471" y="379.4394"/><text fill="#000000" font-family="Verdana" font-size="14" lengthAdjust="spacing" textLength="119.2871" x="974.36" y="401.4345">Static File Server</text></g><!--entity AssetMgr--><g class="entity" data-entity="AssetMgr" data-source-line="27" data-uid="ent0019" id="entity_AssetMgr"><rect fill="#FFFFFF" height="46.2969" rx="2.5" ry="2.5" style="stroke:#000000;stroke-width:1;" width="144.084" x="1153.96" y="368.4394"/><rect fill="#FFFFFF" height="10" style="stroke:#000000;stroke-width:1;" width="15" x="1278.044" y="373.4394"/><rect fill="#FFFFFF" height="2" style="stroke:#000000;stroke-width:1;" width="4" x="1276.044" y="375.4394"/><rect fill="#FFFFFF" height="2" style="stroke:#000000;stroke-width:1;" width="4" x="1276.044" y="379.4394"/><text fill="#000000" font-family="Verdana" font-size="14" lengthAdjust="spacing" textLength="104.084" x="1168.96" y="401.4345">Asset Manager</text></g><!--entity StateMgr--><g class="entity" data-entity="StateMgr" data-source-line="28" data-uid="ent0020" id="entity_StateMgr"><rect fill="#FFFFFF" height="46.2969" rx="2.5" ry="2.5" style="stroke:#000000;stroke-width:1;" width="142.874" x="1332.56" y="368.4394"/><rect fill="#FFFFFF" height="10" style="stroke:#000000;stroke-width:1;" width="15" x="1455.434" y="373.4394"/><rect fill="#FFFFFF" height="2" style="stroke:#000000;stroke-width:1;" width="4" x="1453.434" y="375.4394"/><rect fill="#FFFFFF" height="2" style="stroke:#000000;stroke-width:1;" width="4" x="1453.434" y="379.4394"/><text fill="#000000" font-family="Verdana" font-size="14" lengthAdjust="spacing" textLength="102.874" x="1347.56" y="401.4345">State Manager</text></g><!--entity WSHandler--><g class="entity" data-entity="WSHandler" data-source-line="29" data-uid="ent0021" id="entity_WSHandler"><rect fill="#FFFFFF" height="46.2969" rx="2.5" ry="2.5" style="stroke:#000000;stroke-width:1;" width="178.2773" x="1510.86" y="368.4394"/><rect fill="#FFFFFF" height="10" style="stroke:#000000;stroke-width:1;" width="15" x="1669.1373" y="373.4394"/><rect fill="#FFFFFF" height="2" style="stroke:#000000;stroke-width:1;" width="4" x="1667.1373" y="375.4394"/><rect fill="#FFFFFF" height="2" style="stroke:#000000;stroke-width:1;" width="4" x="1667.1373" y="379.4394"/><text fill="#000000" font-family="Verdana" font-size="14" lengthAdjust="spacing" textLength="138.2773" x="1525.86" y="401.4345">WebSocket Handler</text></g><!--entity CameraSys--><g class="entity" data-entity="CameraSys" data-source-line="30" data-uid="ent0022" id="entity_CameraSys"><rect fill="#FFFFFF" height="46.2969" rx="2.5" ry="2.5" style="stroke:#000000;stroke-width:1;" width="151.5967" x="1328.2" y="511.7394"/><rect fill="#FFFFFF" height="10" style="stroke:#000000;stroke-width:1;" width="15" x="1459.7967" y="516.7394"/><rect fill="#FFFFFF" height="2" style="stroke:#000000;stroke-width:1;" width="4" x="1457.7967" y="518.7394"/><rect fill="#FFFFFF" height="2" style="stroke:#000000;stroke-width:1;" width="4" x="1457.7967" y="522.7394"/><text fill="#000000" font-family="Verdana" font-size="14" lengthAdjust="spacing" textLength="111.5967" x="1343.2" y="544.7345">Camera System</text></g><!--entity Math3D--><g class="entity" data-entity="Math3D" data-source-line="31" data-uid="ent0023" id="entity_Math3D"><rect fill="#FFFFFF" height="46.2969" rx="2.5" ry="2.5" style="stroke:#000000;stroke-width:1;" width="148.1104" x="1329.94" y="621.0294"/><rect fill="#FFFFFF" height="10" style="stroke:#000000;stroke-width:1;" width="15" x="1458.0504" y="626.0294"/><rect fill="#FFFFFF" height="2" style="stroke:#000000;stroke-width:1;" width="4" x="1456.0504" y="628.0294"/><rect fill="#FFFFFF" height="2" style="stroke:#000000;stroke-width:1;" width="4" x="1456.0504" y="632.0294"/><text fill="#000000" font-family="Verdana" font-size="14" lengthAdjust="spacing" textLength="108.1104" x="1344.94" y="654.0245">Math3D Library</text></g><!--entity ShaderFiles--><g class="entity" data-entity="ShaderFiles" data-source-line="42" data-uid="ent0031" id="entity_ShaderFiles"><rect fill="#FFFFFF" height="46.2969" rx="2.5" ry="2.5" style="stroke:#000000;stroke-width:1;" width="169.5684" x="323.22" y="511.7394"/><rect fill="#FFFFFF" height="10" style="stroke:#000000;stroke-width:1;" width="15" x="472.7884" y="516.7394"/><rect fill="#FFFFFF" height="2" style="stroke:#000000;stroke-width:1;" width="4" x="470.7884" y="518.7394"/><rect fill="#FFFFFF" height="2" style="stroke:#000000;stroke-width:1;" width="4" x="470.7884" y="522.7394"/><text fill="#000000" font-family="Verdana" font-size="14" lengthAdjust="spacing" textLength="129.5684" x="338.22" y="544.7345">Shader Files (.glsl)</text></g><!--entity TextureFiles--><g class="entity" data-entity="TextureFiles" data-source-line="43" data-uid="ent0032" id="entity_TextureFiles"><rect fill="#FFFFFF" height="46.2969" rx="2.5" ry="2.5" style="stroke:#000000;stroke-width:1;" width="176.8418" x="527.58" y="511.7394"/><rect fill="#FFFFFF" height="10" style="stroke:#000000;stroke-width:1;" width="15" x="684.4218" y="516.7394"/><rect fill="#FFFFFF" height="2" style="stroke:#000000;stroke-width:1;" width="4" x="682.4218" y="518.7394"/><rect fill="#FFFFFF" height="2" style="stroke:#000000;stroke-width:1;" width="4" x="682.4218" y="522.7394"/><text fill="#000000" font-family="Verdana" font-size="14" lengthAdjust="spacing" textLength="136.8418" x="542.58" y="544.7345">Texture Files (.png)</text></g><!--entity MeshFiles--><g class="entity" data-entity="MeshFiles" data-source-line="44" data-uid="ent0033" id="entity_MeshFiles"><rect fill="#FFFFFF" height="46.2969" rx="2.5" ry="2.5" style="stroke:#000000;stroke-width:1;" width="163.1836" x="739.41" y="511.7394"/><rect fill="#FFFFFF" height="10" style="stroke:#000000;stroke-width:1;" width="15" x="882.5936" y="516.7394"/><rect fill="#FFFFFF" height="2" style="stroke:#000000;stroke-width:1;" width="4" x="880.5936" y="518.7394"/><rect fill="#FFFFFF" height="2" style="stroke:#000000;stroke-width:1;" width="4" x="880.5936" y="522.7394"/><text fill="#000000" font-family="Verdana" font-size="14" lengthAdjust="spacing" textLength="123.1836" x="754.41" y="544.7345">Mesh Data (.json)</text></g><!--entity StaticAssets--><g class="entity" data-entity="StaticAssets" data-source-line="45" data-uid="ent0034" id="entity_StaticAssets"><rect fill="#FFFFFF" height="46.2969" rx="2.5" ry="2.5" style="stroke:#000000;stroke-width:1;" width="130.043" x="157.98" y="511.7394"/><rect fill="#FFFFFF" height="10" style="stroke:#000000;stroke-width:1;" width="15" x="268.023" y="516.7394"/><rect fill="#FFFFFF" height="2" style="stroke:#000000;stroke-width:1;" width="4" x="266.023" y="518.7394"/><rect fill="#FFFFFF" height="2" style="stroke:#000000;stroke-width:1;" width="4" x="266.023" y="522.7394"/><text fill="#000000" font-family="Verdana" font-size="14" lengthAdjust="spacing" textLength="90.043" x="172.98" y="544.7345">Static Assets</text></g><!--entity AppState--><g class="entity" data-entity="AppState" data-source-line="49" data-uid="ent0036" id="entity_AppState"><rect fill="#FFFFFF" height="46.2969" rx="2.5" ry="2.5" style="stroke:#000000;stroke-width:1;" width="159.7314" x="1745.13" y="511.7394"/><rect fill="#FFFFFF" height="10" style="stroke:#000000;stroke-width:1;" width="15" x="1884.8614" y="516.7394"/><rect fill="#FFFFFF" height="2" style="stroke:#000000;stroke-width:1;" width="4" x="1882.8614" y="518.7394"/><rect fill="#FFFFFF" height="2" style="stroke:#000000;stroke-width:1;" width="4" x="1882.8614" y="522.7394"/><text fill="#000000" font-family="Verdana" font-size="14" lengthAdjust="spacing" textLength="119.7314" x="1760.13" y="544.7345">Application State</text></g><!--entity CameraState--><g class="entity" data-entity="CameraState" data-source-line="50" data-uid="ent0037" id="entity_CameraState"><rect fill="#FFFFFF" height="46.2969" rx="2.5" ry="2.5" style="stroke:#000000;stroke-width:1;" width="136.4482" x="1939.78" y="511.7394"/><rect fill="#FFFFFF" height="10" style="stroke:#000000;stroke-width:1;" width="15" x="2056.2282" y="516.7394"/><rect fill="#FFFFFF" height="2" style="stroke:#000000;stroke-width:1;" width="4" x="2054.2282" y="518.7394"/><rect fill="#FFFFFF" height="2" style="stroke:#000000;stroke-width:1;" width="4" x="2054.2282" y="522.7394"/><text fill="#000000" font-family="Verdana" font-size="14" lengthAdjust="spacing" textLength="96.4482" x="1954.78" y="544.7345">Camera State</text></g><!--entity WaterProps--><g class="entity" data-entity="WaterProps" data-source-line="51" data-uid="ent0038" id="entity_WaterProps"><rect fill="#FFFFFF" height="46.2969" rx="2.5" ry="2.5" style="stroke:#000000;stroke-width:1;" width="158.0361" x="2110.98" y="511.7394"/><rect fill="#FFFFFF" height="10" style="stroke:#000000;stroke-width:1;" width="15" x="2249.0161" y="516.7394"/><rect fill="#FFFFFF" height="2" style="stroke:#000000;stroke-width:1;" width="4" x="2247.0161" y="518.7394"/><rect fill="#FFFFFF" height="2" style="stroke:#000000;stroke-width:1;" width="4" x="2247.0161" y="522.7394"/><text fill="#000000" font-family="Verdana" font-size="14" lengthAdjust="spacing" textLength="118.0361" x="2125.98" y="544.7345">Water Properties</text></g><!--entity SceneData--><g class="entity" data-entity="SceneData" data-source-line="52" data-uid="ent0039" id="entity_SceneData"><rect fill="#FFFFFF" height="46.2969" rx="2.5" ry="2.5" style="stroke:#000000;stroke-width:1;" width="120.5615" x="2303.72" y="511.7394"/><rect fill="#FFFFFF" height="10" style="stroke:#000000;stroke-width:1;" width="15" x="2404.2815" y="516.7394"/><rect fill="#FFFFFF" height="2" style="stroke:#000000;stroke-width:1;" width="4" x="2402.2815" y="518.7394"/><rect fill="#FFFFFF" height="2" style="stroke:#000000;stroke-width:1;" width="4" x="2402.2815" y="522.7394"/><text fill="#000000" font-family="Verdana" font-size="14" lengthAdjust="spacing" textLength="80.5615" x="2318.72" y="544.7345">Scene Data</text></g><g class="entity" data-entity="GMN52" data-source-line="70" data-uid="ent0053" id="entity_GMN52"><path d="M934.68,80.4894 L934.68,111.7594 L835.87,115.7594 L934.68,119.7594 L934.68,151.0206 A0,0 0 0 0 934.68,151.0206 L1137.3182,151.0206 A0,0 0 0 0 1137.3182,151.0206 L1137.3182,90.4894 L1127.3182,80.4894 L934.68,80.4894 A0,0 0 0 0 934.68,80.4894" fill="#FFFFFF" style="stroke:#000000;stroke-width:1;"/><path d="M1127.3182,80.4894 L1127.3182,90.4894 L1137.3182,90.4894 L1127.3182,80.4894" fill="#FFFFFF" style="stroke:#000000;stroke-width:1;"/><text fill="#000000" font-family="Verdana" font-size="13" lengthAdjust="spacing" textLength="181.6382" x="940.68" y="97.5563">- WebGL Rendering Pipeline</text><text fill="#000000" font-family="Verdana" font-size="13" lengthAdjust="spacing" textLength="142.4668" x="940.68" y="112.6891">- Multi-pass rendering</text><text fill="#000000" font-family="Verdana" font-size="13" lengthAdjust="spacing" textLength="140.9751" x="940.68" y="127.8219">- Real-time animation</text><text fill="#000000" font-family="Verdana" font-size="13" lengthAdjust="spacing" textLength="173.437" x="940.68" y="142.9547">- User interaction handling</text></g><g class="entity" data-entity="GMN55" data-source-line="77" data-uid="ent0056" id="entity_GMN55"><path d="M1720.64,236.9094 L1720.64,268.1694 L1090.68,272.1694 L1720.64,276.1694 L1720.64,307.4406 A0,0 0 0 0 1720.64,307.4406 L1943.3685,307.4406 A0,0 0 0 0 1943.3685,307.4406 L1943.3685,246.9094 L1933.3685,236.9094 L1720.64,236.9094 A0,0 0 0 0 1720.64,236.9094" fill="#FFFFFF" style="stroke:#000000;stroke-width:1;"/><path d="M1933.3685,236.9094 L1933.3685,246.9094 L1943.3685,246.9094 L1933.3685,236.9094" fill="#FFFFFF" style="stroke:#000000;stroke-width:1;"/><text fill="#000000" font-family="Verdana" font-size="13" lengthAdjust="spacing" textLength="135.5098" x="1726.64" y="253.9763">- REST API endpoints</text><text fill="#000000" font-family="Verdana" font-size="13" lengthAdjust="spacing" textLength="96.4019" x="1726.64" y="269.1091">- Asset serving</text><text fill="#000000" font-family="Verdana" font-size="13" lengthAdjust="spacing" textLength="201.7285" x="1726.64" y="284.2419">- WebSocket real-time updates</text><text fill="#000000" font-family="Verdana" font-size="13" lengthAdjust="spacing" textLength="105.9614" x="1726.64" y="299.3747">- CORS handling</text></g><!--link Canvas to WebGL--><g class="link" data-entity-1="Canvas" data-entity-2="WebGL" data-source-line="16" data-uid="lnk10" id="link_Canvas_WebGL"><path d="M102,139.2094 C102,168.4894 102,213.3994 102,242.6894" fill="none" id="Canvas-to-WebGL" style="stroke:#000000;stroke-width:1;"/><polygon fill="#000000" points="102,248.6894,106,239.6894,102,243.6894,98,239.6894,102,248.6894" style="stroke:#000000;stroke-width:1;"/></g><!--link JSApp to WebGL--><g class="link" data-entity-1="JSApp" data-entity-2="WebGL" data-source-line="17" data-uid="lnk11" id="link_JSApp_WebGL"><path d="M642.16,119.5194 C530.33,125.6394 342.69,145.0294 194,206.0294 C169.19,216.1994 149.2125,230.3141 131.7025,244.8041" fill="none" id="JSApp-to-WebGL" style="stroke:#000000;stroke-width:1;"/><polygon fill="#000000" points="127.08,248.6294,136.5639,245.9732,130.9321,245.4417,131.4636,239.8098,127.08,248.6294" style="stroke:#000000;stroke-width:1;"/></g><!--link JSApp to Shaders--><g class="link" data-entity-1="JSApp" data-entity-2="Shaders" data-source-line="18" data-uid="lnk12" id="link_JSApp_Shaders"><path d="M642.42,132.4094 C570.69,146.1694 471.57,169.7394 390,206.0294 C364.8,217.2394 343.7401,231.1529 324.9101,245.1929" fill="none" id="JSApp-to-Shaders" style="stroke:#000000;stroke-width:1;"/><polygon fill="#000000" points="320.1,248.7794,329.7061,246.6064,324.1084,245.7906,324.9241,240.1929,320.1,248.7794" style="stroke:#000000;stroke-width:1;"/></g><!--link JSApp to Textures--><g class="link" data-entity-1="JSApp" data-entity-2="Textures" data-source-line="19" data-uid="lnk13" id="link_JSApp_Textures"><path d="M698.39,139.3994 C667.1,157.0494 622.93,182.4594 585,206.0294 C562.96,219.7194 543.6375,232.4942 524.7575,245.2842" fill="none" id="JSApp-to-Textures" style="stroke:#000000;stroke-width:1;"/><polygon fill="#000000" points="519.79,248.6494,529.4846,246.9133,523.9296,245.8451,524.9978,240.29,519.79,248.6494" style="stroke:#000000;stroke-width:1;"/></g><!--link JSApp to Meshes--><g class="link" data-entity-1="JSApp" data-entity-2="Meshes" data-source-line="20" data-uid="lnk14" id="link_JSApp_Meshes"><path d="M728.68,139.2094 C715.21,168.4894 694.3054,213.9475 680.8454,243.2375" fill="none" id="JSApp-to-Meshes" style="stroke:#000000;stroke-width:1;"/><polygon fill="#000000" points="678.34,248.6894,685.7327,242.1818,680.4278,244.1461,678.4635,238.8413,678.34,248.6894" style="stroke:#000000;stroke-width:1;"/></g><!--link JSApp to FBs--><g class="link" data-entity-1="JSApp" data-entity-2="FBs" data-source-line="21" data-uid="lnk15" id="link_JSApp_FBs"><path d="M753.1,139.2094 C771.5,168.4894 800.2883,214.3187 818.6883,243.6087" fill="none" id="JSApp-to-FBs" style="stroke:#000000;stroke-width:1;"/><polygon fill="#000000" points="821.88,248.6894,820.4796,238.9406,819.2203,244.4555,813.7054,243.1962,821.88,248.6894" style="stroke:#000000;stroke-width:1;"/></g><!--link HTTPServer to StaticFS--><g class="link" data-entity-1="HTTPServer" data-entity-2="StaticFS" data-source-line="33" data-uid="lnk24" id="link_HTTPServer_StaticFS"><path d="M1029.31,295.8094 C1031.44,316.5994 1033.9607,341.2804 1036.0807,362.0504" fill="none" id="HTTPServer-to-StaticFS" style="stroke:#000000;stroke-width:1;"/><polygon fill="#000000" points="1036.69,368.0194,1039.7554,358.6597,1036.1823,363.0452,1031.7968,359.4721,1036.69,368.0194" style="stroke:#000000;stroke-width:1;"/></g><!--link HTTPServer to AssetMgr--><g class="link" data-entity-1="HTTPServer" data-entity-2="AssetMgr" data-source-line="34" data-uid="lnk25" id="link_HTTPServer_AssetMgr"><path d="M1065.37,295.8094 C1100.61,316.5994 1147.3825,344.2003 1182.5825,364.9703" fill="none" id="HTTPServer-to-AssetMgr" style="stroke:#000000;stroke-width:1;"/><polygon fill="#000000" points="1187.75,368.0194,1182.0315,360.0007,1183.4438,365.4784,1177.966,366.8907,1187.75,368.0194" style="stroke:#000000;stroke-width:1;"/></g><!--link HTTPServer to StateMgr--><g class="link" data-entity-1="HTTPServer" data-entity-2="StateMgr" data-source-line="35" data-uid="lnk26" id="link_HTTPServer_StateMgr"><path d="M1090.53,292.9594 C1157.36,313.7694 1256.6214,344.6854 1326.4314,366.4254" fill="none" id="HTTPServer-to-StateMgr" style="stroke:#000000;stroke-width:1;"/><polygon fill="#000000" points="1332.16,368.2094,1324.7564,361.7143,1327.3861,366.7227,1322.3777,369.3525,1332.16,368.2094" style="stroke:#000000;stroke-width:1;"/></g><!--link HTTPServer to WSHandler--><g class="link" data-entity-1="HTTPServer" data-entity-2="WSHandler" data-source-line="36" data-uid="lnk27" id="link_HTTPServer_WSHandler"><path d="M1090.7,286.1494 C1180.45,304.4294 1349.23,338.8594 1493,368.4394 C1498.67,369.6094 1498.6227,369.602 1504.5127,370.812" fill="none" id="HTTPServer-to-WSHandler" style="stroke:#000000;stroke-width:1;"/><polygon fill="#000000" points="1510.39,372.0194,1502.379,366.2901,1505.4923,371.0132,1500.7692,374.1265,1510.39,372.0194" style="stroke:#000000;stroke-width:1;"/></g><!--link StateMgr to CameraSys--><g class="link" data-entity-1="StateMgr" data-entity-2="CameraSys" data-source-line="37" data-uid="lnk28" id="link_StateMgr_CameraSys"><path d="M1404,414.9794 C1404,441.4294 1404,479.1894 1404,505.5994" fill="none" id="StateMgr-to-CameraSys" style="stroke:#000000;stroke-width:1;"/><polygon fill="#000000" points="1404,511.5994,1408,502.5994,1404,506.5994,1400,502.5994,1404,511.5994" style="stroke:#000000;stroke-width:1;"/></g><!--link CameraSys to Math3D--><g class="link" data-entity-1="CameraSys" data-entity-2="Math3D" data-source-line="38" data-uid="lnk29" id="link_CameraSys_Math3D"><path d="M1404,558.3794 C1404,576.6894 1404,596.4094 1404,614.7194" fill="none" id="CameraSys-to-Math3D" style="stroke:#000000;stroke-width:1;"/><polygon fill="#000000" points="1404,620.7194,1408,611.7194,1404,615.7194,1400,611.7194,1404,620.7194" style="stroke:#000000;stroke-width:1;"/></g><!--link JSApp to WSHandler--><g class="link" data-entity-1="JSApp" data-entity-2="WSHandler" data-source-line="56" data-uid="lnk40" id="link_JSApp_WSHandler"><path d="M841.5118,138.9938 C867.7918,144.0538 890.45,147.7894 917,151.0294 C1032.31,165.0894 1881.05,121.7494 1961,206.0294 C1995.66,242.5594 1992.97,280.4194 1961,319.3194 C1927.28,360.3494 1791.0919,377.6735 1695.5519,385.1135" fill="none" id="JSApp-WSHandler" style="stroke:#000000;stroke-width:1;"/><polygon fill="#000000" points="835.62,137.8594,843.7014,143.4889,840.5298,138.8047,845.214,135.6331,835.62,137.8594" style="stroke:#000000;stroke-width:1;"/><polygon fill="#000000" points="1689.57,385.5794,1698.8534,388.8686,1694.5549,385.1912,1698.2323,380.8927,1689.57,385.5794" style="stroke:#000000;stroke-width:1;"/><text fill="#000000" font-family="Verdana" font-size="13" lengthAdjust="spacing" textLength="120.6563" x="1987" y="276.7363">Real-time Updates</text></g><!--link JSApp to HTTPServer--><g class="link" data-entity-1="JSApp" data-entity-2="HTTPServer" data-source-line="57" data-uid="lnk41" id="link_JSApp_HTTPServer"><path d="M787.3,139.3794 C823.87,156.8194 875.11,181.9594 919,206.0294 C943.58,219.4994 965.4798,232.629 986.3298,245.549" fill="none" id="JSApp-to-HTTPServer" style="stroke:#000000;stroke-width:1;"/><polygon fill="#000000" points="991.43,248.7094,985.8867,240.5687,987.1798,246.0757,981.6728,247.3689,991.43,248.7094" style="stroke:#000000;stroke-width:1;"/><text fill="#000000" font-family="Verdana" font-size="13" lengthAdjust="spacing" textLength="97.792" x="900.82" y="194.0963">HTTP Requests</text></g><!--link HTTPServer to ShaderFiles--><g class="link" data-entity-1="HTTPServer" data-entity-2="ShaderFiles" data-source-line="58" data-uid="lnk42" id="link_HTTPServer_ShaderFiles"><path d="M981.75,295.7994 C962.79,304.4094 940.25,313.5294 919,319.3194 C768.73,360.3094 710.93,298.0094 572,368.4394 C504.72,402.5494 451.8636,469.8489 426.2536,506.5489" fill="none" id="HTTPServer-to-ShaderFiles" style="stroke:#000000;stroke-width:1;"/><polygon fill="#000000" points="422.82,511.4694,431.2506,506.3778,425.6813,507.369,424.6901,501.7997,422.82,511.4694" style="stroke:#000000;stroke-width:1;"/><text fill="#000000" font-family="Verdana" font-size="13" lengthAdjust="spacing" textLength="94.2437" x="573" y="396.1563">Serve Shaders</text></g><!--link HTTPServer to TextureFiles--><g class="link" data-entity-1="HTTPServer" data-entity-2="TextureFiles" data-source-line="59" data-uid="lnk43" id="link_HTTPServer_TextureFiles"><path d="M978.72,295.7694 C960.28,303.8694 938.91,312.6494 919,319.3194 C833.04,348.1394 794.57,315.4494 721,368.4394 C669.93,405.2194 639.9966,469.6403 626.1266,505.6503" fill="none" id="HTTPServer-to-TextureFiles" style="stroke:#000000;stroke-width:1;"/><polygon fill="#000000" points="623.97,511.2494,630.9376,504.2886,625.7672,506.5835,623.4722,501.4131,623.97,511.2494" style="stroke:#000000;stroke-width:1;"/><text fill="#000000" font-family="Verdana" font-size="13" lengthAdjust="spacing" textLength="98.5029" x="722" y="396.1563">Serve Textures</text></g><!--link HTTPServer to MeshFiles--><g class="link" data-entity-1="HTTPServer" data-entity-2="MeshFiles" data-source-line="60" data-uid="lnk44" id="link_HTTPServer_MeshFiles"><path d="M973.48,295.7194 C927.38,316.2094 865.83,346.5094 850,368.4394 C818.85,411.5894 817.0666,471.3071 818.7966,505.4771" fill="none" id="HTTPServer-to-MeshFiles" style="stroke:#000000;stroke-width:1;"/><polygon fill="#000000" points="819.1,511.4694,822.6398,502.2786,818.8472,506.4758,814.65,502.6831,819.1,511.4694" style="stroke:#000000;stroke-width:1;"/><text fill="#000000" font-family="Verdana" font-size="13" lengthAdjust="spacing" textLength="90.416" x="851" y="396.1563">Serve Meshes</text></g><!--link HTTPServer to StaticAssets--><g class="link" data-entity-1="HTTPServer" data-entity-2="StaticAssets" data-source-line="61" data-uid="lnk45" id="link_HTTPServer_StaticAssets"><path d="M983.49,295.7394 C964.24,304.6694 941.01,314.0494 919,319.3194 C694.98,373.0294 613.01,273.7494 403,368.4394 C330.64,401.0594 271.6071,469.5428 243.0671,506.6628" fill="none" id="HTTPServer-to-StaticAssets" style="stroke:#000000;stroke-width:1;"/><polygon fill="#000000" points="239.41,511.4194,248.0668,506.7226,242.4576,507.4555,241.7247,501.8464,239.41,511.4194" style="stroke:#000000;stroke-width:1;"/><text fill="#000000" font-family="Verdana" font-size="13" lengthAdjust="spacing" textLength="94.0596" x="404" y="396.1563">Serve JS/HTML</text></g><!--link AssetMgr to TextureFiles--><g class="link" data-entity-1="AssetMgr" data-entity-2="TextureFiles" data-source-line="62" data-uid="lnk46" id="link_AssetMgr_TextureFiles"><path d="M1153.49,411.3994 C1147.6,412.6394 1141.71,413.7694 1136,414.7394 C953.78,445.5694 894.26,386.7894 722,453.7394 C689.31,466.4394 662.4266,488.1838 642.4366,507.1138" fill="none" id="AssetMgr-to-TextureFiles" style="stroke:#000000;stroke-width:1;"/><polygon fill="#000000" points="638.08,511.2394,647.3652,507.9554,641.7105,507.8014,641.8645,502.1467,638.08,511.2394" style="stroke:#000000;stroke-width:1;"/></g><!--link AssetMgr to MeshFiles--><g class="link" data-entity-1="AssetMgr" data-entity-2="MeshFiles" data-source-line="63" data-uid="lnk47" id="link_AssetMgr_MeshFiles"><path d="M1165.16,415.0994 C1132.63,426.1894 1091.63,438.6594 1054,445.7394 C1005.39,454.8694 989.85,437.8694 943,453.7394 C906.28,466.1794 874.5171,488.5741 851.1671,507.6441" fill="none" id="AssetMgr-to-MeshFiles" style="stroke:#000000;stroke-width:1;"/><polygon fill="#000000" points="846.52,511.4394,856.0209,508.8445,850.3926,508.2766,850.9605,502.6483,846.52,511.4394" style="stroke:#000000;stroke-width:1;"/></g><!--link StateMgr to AppState--><g class="link" data-entity-1="StateMgr" data-entity-2="AppState" data-source-line="64" data-uid="lnk48" id="link_StateMgr_AppState"><path d="M1475.8,410.8594 C1481.61,412.2194 1487.4,413.5294 1493,414.7394 C1586.64,434.9794 1616.22,417.7194 1705,453.7394 C1739.82,467.8594 1770.3358,489.225 1793.5258,507.585" fill="none" id="StateMgr-to-AppState" style="stroke:#000000;stroke-width:1;"/><polygon fill="#000000" points="1798.23,511.3094,1793.6567,502.5867,1794.3099,508.2057,1788.6909,508.8589,1798.23,511.3094" style="stroke:#000000;stroke-width:1;"/></g><!--link StateMgr to CameraState--><g class="link" data-entity-1="StateMgr" data-entity-2="CameraState" data-source-line="65" data-uid="lnk49" id="link_StateMgr_CameraState"><path d="M1475.69,411.4294 C1481.53,412.6594 1487.35,413.7794 1493,414.7394 C1681.78,446.6094 1747.22,375.5894 1922,453.7394 C1950.51,466.4794 1971.8461,487.9875 1987.4661,506.9575" fill="none" id="StateMgr-to-CameraState" style="stroke:#000000;stroke-width:1;"/><polygon fill="#000000" points="1991.28,511.5894,1988.6471,502.099,1988.1017,507.7295,1982.4712,507.1842,1991.28,511.5894" style="stroke:#000000;stroke-width:1;"/></g><!--link StateMgr to WaterProps--><g class="link" data-entity-1="StateMgr" data-entity-2="WaterProps" data-source-line="66" data-uid="lnk50" id="link_StateMgr_WaterProps"><path d="M1475.67,411.5894 C1481.5,412.7794 1487.34,413.8594 1493,414.7394 C1625.25,435.3094 1969.72,404.0694 2094,453.7394 C2124.85,466.0594 2149.0255,487.8943 2166.7755,506.9943" fill="none" id="StateMgr-to-WaterProps" style="stroke:#000000;stroke-width:1;"/><polygon fill="#000000" points="2170.86,511.3894,2167.6634,502.0737,2167.4563,507.7268,2161.8032,507.5197,2170.86,511.3894" style="stroke:#000000;stroke-width:1;"/></g><!--link StateMgr to SceneData--><g class="link" data-entity-1="StateMgr" data-entity-2="SceneData" data-source-line="67" data-uid="lnk51" id="link_StateMgr_SceneData"><path d="M1475.65,411.6894 C1481.49,412.8594 1487.33,413.8994 1493,414.7394 C1667.77,440.5194 2126.22,380.5294 2287,453.7394 C2313.87,465.9694 2332.6503,487.3144 2346.2103,506.4444" fill="none" id="StateMgr-to-SceneData" style="stroke:#000000;stroke-width:1;"/><polygon fill="#000000" points="2349.68,511.3394,2347.7387,501.6837,2346.7886,507.2602,2341.2121,506.31,2349.68,511.3394" style="stroke:#000000;stroke-width:1;"/></g><!--SRC=[TLN1ZjCm4BtdAuRbmFPGGEAsGaXjb-ooseggwMeFY8ERk8dPr0wsKrWX_ftns77SRiafVkzb_3mpdhoo3Tzpw5ecP6QUXEoOPdlOilAfrggNrKArIiFhd9v4KV4TwrkRAsc3v3qzMMQ5RJayyktDFJmoopLiUgkqO2rCeNWsbkzXfij6M5xQNlCiwt0tLdEuo3M6uxA2oxbMlmpNamluam5ykzqixs71v86Pxy1CU7MCtsVXlljjYIF4KNVim8fIYyx2hEjQKJ8hb2JDNO68qnGDgz3XIgiQJ-M3UuoYRp0eMeGbasXG4nqmufVSD33lTplK4-a0J-KOZsyJAf-R30bl7QRJJz4fkVaFCfePiSJ12CQTHyZj-3T9xnnVABit2Wgk3sb-Dwi0aLUtzajAaiNCbP0Bh6iYyd1UECdC66wFqaJ8ieu1ZfD8I63nq8L2PnPkcQpQe7Wimif95fXBpKBtX0vm209K1cQR3zTmBxQQwMTV289SmiUp-8IEha-OnF6PR_XP9dKvg8X8_SLtNoZl30jJjggliEifhtIqK8xGbOumSFcsRaqxILgJyBGz1s4dwqdQer58VNhDB4FH3wFa93Phb8GYKn9CKbyFEBiLVhzb1XjftKihS6ouYC5oSiDy8dmJT1qjqXf6CgHbuFsim9lOSMq5znu8T9ZtM7BfT_K6tTAjdBitRWX872dem6J-4dmyAX5SmPgpTahM7pey3X-4JfTKzeeMgFxPSuE7Fss7iGee9IBUqnDfMeYeZVVtH1ph4PNXKfzjOL-OABqhthafcGrT_6BxOsQi_L7RneATQ-QNH5AU8toiJ2OLNdqjwiQ2siN1Emq_Y3NE8ww5h64bEjuAoObSugz5J3jc3EX1GSHOG2R5djgDy0VyMO30du1cr07Gk9gxhzp0Snw2avRloCZHXCEuduiDp5PV0EMTma26O3_MCFPXC30EAnsjzA6N7B_ukYvURluF]--></g></svg>