<svg xmlns="http://www.w3.org/2000/svg" xmlns:xlink="http://www.w3.org/1999/xlink" contentStyleType="text/css" data-diagram-type="STATE" height="1547px" preserveAspectRatio="none" style="width:830px;height:1547px;background:#FFFFFF;" version="1.1" viewBox="0 0 830 1547" width="830px" zoomAndPan="magnify"><title>WebGL Water Tutorial - Rendering Pipeline Zustandsdiagramm</title><defs/><g><g class="title" data-source-line="5"><text fill="#000000" font-family="Verdana" font-size="22" font-weight="bold" lengthAdjust="spacing" textLength="782.5684" x="19.5077" y="35.4209">WebGL Water Tutorial - Rendering Pipeline Zustandsdiagramm</text></g><!--cluster RenderLoop--><g class="cluster" data-entity="RenderLoop" data-source-line="28" data-uid="ent0005" id="cluster_RenderLoop"><path d="M24.5,640.1194 L408.5,640.1194 A12.5,12.5 0 0 1 421,652.6194 L421,661.4163 L12,661.4163 L12,652.6194 A12.5,12.5 0 0 1 24.5,640.1194" fill="#FFFFFF"/><path d="M12,661.4163 L421,661.4163 L421,1521.8894 A12.5,12.5 0 0 1 408.5,1534.3894 L24.5,1534.3894 A12.5,12.5 0 0 1 12,1521.8894 L12,661.4163" fill="#FFFFFF"/><rect fill="none" height="894.27" rx="12.5" ry="12.5" style="stroke:#000000;stroke-width:1;" width="409" x="12" y="640.1194"/><line style="stroke:#000000;stroke-width:1;" x1="12" x2="421" y1="661.4163" y2="661.4163"/><text fill="#000000" font-family="Verdana" font-size="14" lengthAdjust="spacing" textLength="110.3115" x="161.3442" y="657.1145">Render Schleife</text></g><g id="RenderLoop.UpdateState"><rect fill="#FFFFFF" height="92.1719" rx="12.5" ry="12.5" style="stroke:#000000;stroke-width:1;" width="242.5859" x="85.71" y="940.4194"/><line style="stroke:#000000;stroke-width:1;" x1="85.71" x2="328.2959" y1="966.7163" y2="966.7163"/><text fill="#000000" font-family="Verdana" font-size="14" lengthAdjust="spacing" textLength="140.5059" x="136.75" y="958.4145">Status Aktualisieren</text><text fill="#000000" font-family="Verdana" font-size="12" lengthAdjust="spacing" textLength="132.5273" x="90.71" y="982.8549">- Uhrzeit aktualisieren</text><text fill="#000000" font-family="Verdana" font-size="12" lengthAdjust="spacing" textLength="177.6621" x="90.71" y="996.8237">- Kamera Matrix aktualisieren</text><text fill="#000000" font-family="Verdana" font-size="12" lengthAdjust="spacing" textLength="222.5859" x="90.71" y="1010.7924">- Wasser Eigenschaften aktualisieren</text><text fill="#000000" font-family="Verdana" font-size="12" lengthAdjust="spacing" textLength="191.7363" x="90.71" y="1024.7612">- Benutzereingaben verarbeiten</text></g><g id="RenderLoop.RenderRefraction"><rect fill="#FFFFFF" height="92.1719" rx="12.5" ry="12.5" style="stroke:#000000;stroke-width:1;" width="250.4141" x="79.79" y="1097.9094"/><line style="stroke:#000000;stroke-width:1;" x1="79.79" x2="330.2041" y1="1124.2063" y2="1124.2063"/><text fill="#000000" font-family="Verdana" font-size="14" lengthAdjust="spacing" textLength="136.3223" x="136.8359" y="1115.9045">Refraktion Rendern</text><text fill="#000000" font-family="Verdana" font-size="12" lengthAdjust="spacing" textLength="199.6055" x="84.79" y="1140.3449">- Refraktions Framebuffer binden</text><text fill="#000000" font-family="Verdana" font-size="12" lengthAdjust="spacing" textLength="230.4141" x="84.79" y="1154.3137">- Clipping Plane setzen (unter Wasser)</text><text fill="#000000" font-family="Verdana" font-size="12" lengthAdjust="spacing" textLength="137.7012" x="84.79" y="1168.2824">- Terrain Mesh rendern</text><text fill="#000000" font-family="Verdana" font-size="12" lengthAdjust="spacing" textLength="147.8438" x="84.79" y="1182.2512">- Stein Textur anwenden</text></g><g id="RenderLoop.RenderReflection"><rect fill="#FFFFFF" height="92.1719" rx="12.5" ry="12.5" style="stroke:#000000;stroke-width:1;" width="245.7207" x="83.14" y="1251.0794"/><line style="stroke:#000000;stroke-width:1;" x1="83.14" x2="328.8607" y1="1277.3763" y2="1277.3763"/><text fill="#000000" font-family="Verdana" font-size="14" lengthAdjust="spacing" textLength="134.4902" x="138.7552" y="1269.0745">Reflektion Rendern</text><text fill="#000000" font-family="Verdana" font-size="12" lengthAdjust="spacing" textLength="198.0352" x="88.14" y="1293.5149">- Reflektions Framebuffer binden</text><text fill="#000000" font-family="Verdana" font-size="12" lengthAdjust="spacing" textLength="225.7207" x="88.14" y="1307.4837">- Clipping Plane setzen (&#252;ber Wasser)</text><text fill="#000000" font-family="Verdana" font-size="12" lengthAdjust="spacing" textLength="132.8203" x="88.14" y="1321.4524">- View Matrix spiegeln</text><text fill="#000000" font-family="Verdana" font-size="12" lengthAdjust="spacing" textLength="137.7012" x="88.14" y="1335.4212">- Terrain Mesh rendern</text></g><g id="RenderLoop.RenderMain"><rect fill="#FFFFFF" height="106.1406" rx="12.5" ry="12.5" style="stroke:#000000;stroke-width:1;" width="213.3945" x="132.3" y="1404.2494"/><line style="stroke:#000000;stroke-width:1;" x1="132.3" x2="345.6945" y1="1430.5463" y2="1430.5463"/><text fill="#000000" font-family="Verdana" font-size="14" lengthAdjust="spacing" textLength="146.8906" x="165.552" y="1422.2445">Hauptszene Rendern</text><text fill="#000000" font-family="Verdana" font-size="12" lengthAdjust="spacing" textLength="167.4902" x="137.3" y="1446.6849">- Haupt Framebuffer binden</text><text fill="#000000" font-family="Verdana" font-size="12" lengthAdjust="spacing" textLength="157.5117" x="137.3" y="1460.6537">- Tiefen/Farb Puffer leeren</text><text fill="#000000" font-family="Verdana" font-size="12" lengthAdjust="spacing" textLength="167.2324" x="137.3" y="1474.6224">- Wasseroberfl&#228;che rendern</text><text fill="#000000" font-family="Verdana" font-size="12" lengthAdjust="spacing" textLength="193.3945" x="137.3" y="1488.5912">- Terrain rendern (kein Clipping)</text><text fill="#000000" font-family="Verdana" font-size="12" lengthAdjust="spacing" textLength="165.6035" x="137.3" y="1502.5599">- Multi-Texturing anwenden</text></g><g id="RenderLoop.RenderWater"><rect fill="#FFFFFF" height="175.9844" rx="12.5" ry="12.5" style="stroke:#000000;stroke-width:1;" width="341.1816" x="36.41" y="683.1194"/><line style="stroke:#000000;stroke-width:1;" x1="36.41" x2="377.5916" y1="709.4163" y2="709.4163"/><text fill="#000000" font-family="Verdana" font-size="14" lengthAdjust="spacing" textLength="115.1719" x="149.4149" y="701.1145">Wasser Rendern</text><text fill="#000000" font-family="Verdana" font-size="12" lengthAdjust="spacing" textLength="235.7578" x="41.41" y="725.5549">- Wasser Shader Programm verwenden</text><text fill="#000000" font-family="Verdana" font-size="12" lengthAdjust="spacing" textLength="132.5684" x="41.41" y="739.5237">- Wasser Mesh binden</text><text fill="#000000" font-family="Verdana" font-size="12" lengthAdjust="spacing" textLength="210.4277" x="41.41" y="753.4924">- Perspektive/View Matrizen setzen</text><text fill="#000000" font-family="Verdana" font-size="12" lengthAdjust="spacing" textLength="238.8223" x="41.41" y="767.4612">- Reflektions Textur binden (TEXTURE1)</text><text fill="#000000" font-family="Verdana" font-size="12" lengthAdjust="spacing" textLength="240.3926" x="41.41" y="781.4299">- Refraktions Textur binden (TEXTURE0)</text><text fill="#000000" font-family="Verdana" font-size="12" lengthAdjust="spacing" textLength="203.5371" x="41.41" y="795.3987">- Dudv Textur binden (TEXTURE2)</text><text fill="#000000" font-family="Verdana" font-size="12" lengthAdjust="spacing" textLength="201.8672" x="41.41" y="809.3674">- Normal Map binden (TEXTURE3)</text><text fill="#000000" font-family="Verdana" font-size="12" lengthAdjust="spacing" textLength="321.1816" x="41.41" y="823.3362">- Wasser Uniforms setzen (Reflektivit&#228;t, Fresnel, etc.)</text><text fill="#000000" font-family="Verdana" font-size="12" lengthAdjust="spacing" textLength="233.2559" x="41.41" y="837.3049">- Dudv Offset f&#252;r Animation berechnen</text><text fill="#000000" font-family="Verdana" font-size="12" lengthAdjust="spacing" textLength="215.8184" x="41.41" y="851.2737">- Wasser Ebenen Dreiecke zeichnen</text></g><g id="Init"><rect fill="#FFFFFF" height="78.2031" rx="12.5" ry="12.5" style="stroke:#000000;stroke-width:1;" width="223.4082" x="301.3" y="138.6094"/><line style="stroke:#000000;stroke-width:1;" x1="301.3" x2="524.7082" y1="164.9063" y2="164.9063"/><text fill="#000000" font-family="Verdana" font-size="14" lengthAdjust="spacing" textLength="140.1094" x="342.9494" y="156.6045">WebGL Initialisieren</text><text fill="#000000" font-family="Verdana" font-size="12" lengthAdjust="spacing" textLength="157.6465" x="306.3" y="181.0449">- WebGL Kontext erstellen</text><text fill="#000000" font-family="Verdana" font-size="12" lengthAdjust="spacing" textLength="203.4082" x="306.3" y="195.0137">- VAO/Depth Erweiterungen laden</text><text fill="#000000" font-family="Verdana" font-size="12" lengthAdjust="spacing" textLength="125.7832" x="306.3" y="208.9824">- Viewport einrichten</text></g><g id="LoadAssets"><rect fill="#FFFFFF" height="106.1406" rx="12.5" ry="12.5" style="stroke:#000000;stroke-width:1;" width="249.2129" x="288.39" y="293.8094"/><line style="stroke:#000000;stroke-width:1;" x1="288.39" x2="537.6029" y1="320.1063" y2="320.1063"/><text fill="#000000" font-family="Verdana" font-size="14" lengthAdjust="spacing" textLength="92.7637" x="366.6146" y="311.8045">Assets Laden</text><text fill="#000000" font-family="Verdana" font-size="12" lengthAdjust="spacing" textLength="202.8867" x="293.39" y="336.2449">- Shader laden (Vertex/Fragment)</text><text fill="#000000" font-family="Verdana" font-size="12" lengthAdjust="spacing" textLength="199.3652" x="293.39" y="350.2137">- Shader Programme kompilieren</text><text fill="#000000" font-family="Verdana" font-size="12" lengthAdjust="spacing" textLength="229.2129" x="293.39" y="364.1824">- Texturen laden (dudv, normal, stein)</text><text fill="#000000" font-family="Verdana" font-size="12" lengthAdjust="spacing" textLength="225.0176" x="293.39" y="378.1512">- Meshes laden (water_plane, terrain)</text><text fill="#000000" font-family="Verdana" font-size="12" lengthAdjust="spacing" textLength="129.0117" x="293.39" y="392.1199">- GPU Puffer erstellen</text></g><g id="SetupFB"><rect fill="#FFFFFF" height="92.1719" rx="12.5" ry="12.5" style="stroke:#000000;stroke-width:1;" width="230.7559" x="297.62" y="476.9494"/><line style="stroke:#000000;stroke-width:1;" x1="297.62" x2="528.3759" y1="503.2462" y2="503.2462"/><text fill="#000000" font-family="Verdana" font-size="14" lengthAdjust="spacing" textLength="161.875" x="332.0604" y="494.9445">Framebuffer Einrichten</text><text fill="#000000" font-family="Verdana" font-size="12" lengthAdjust="spacing" textLength="209.1855" x="302.62" y="519.3849">- Reflektions Framebuffer erstellen</text><text fill="#000000" font-family="Verdana" font-size="12" lengthAdjust="spacing" textLength="210.7559" x="302.62" y="533.3537">- Refraktions Framebuffer erstellen</text><text fill="#000000" font-family="Verdana" font-size="12" lengthAdjust="spacing" textLength="167.5664" x="302.62" y="547.3224">- Tiefen Texturen einrichten</text><text fill="#000000" font-family="Verdana" font-size="12" lengthAdjust="spacing" textLength="198.0527" x="302.62" y="561.2912">- Textur Parameter konfigurieren</text></g><ellipse cx="413" cy="67.6094" fill="#FFFFFF" rx="10" ry="10" style="stroke:#000000;stroke-width:1;"/><ellipse cx="456" cy="986.5094" fill="none" rx="11" ry="11" style="stroke:#000000;stroke-width:1;"/><ellipse cx="456" cy="986.5094" fill="#FFFFFF" rx="6" ry="6" style="stroke:#000000;stroke-width:1;"/><g class="entity" data-entity="GMN2" data-source-line="86" data-uid="ent0003" id="entity_GMN2"><path d="M448.41,705.5894 L448.41,836.6519 L823.5838,836.6519 L823.5838,715.5894 L813.5838,705.5894 L448.41,705.5894" fill="#FFFFFF" style="stroke:#000000;stroke-width:1;"/><path d="M813.5838,705.5894 L813.5838,715.5894 L823.5838,715.5894 L813.5838,705.5894" fill="#FFFFFF" style="stroke:#000000;stroke-width:1;"/><text fill="#000000" font-family="Verdana" font-size="13" font-weight="bold" lengthAdjust="spacing" textLength="179.0801" x="454.41" y="722.6563">Wasser Shader Pipeline:</text><text fill="#000000" font-family="Verdana" font-size="13" lengthAdjust="spacing" textLength="259.0986" x="454.41" y="737.7891">1. Vertices in Clip Space transformieren</text><text fill="#000000" font-family="Verdana" font-size="13" lengthAdjust="spacing" textLength="255.7153" x="454.41" y="752.9219">2. Dudv Textur f&#252;r Verzerrung sampeln</text><text fill="#000000" font-family="Verdana" font-size="13" lengthAdjust="spacing" textLength="289.7769" x="454.41" y="768.0547">3. Reflektions/Refraktions Texturen sampeln</text><text fill="#000000" font-family="Verdana" font-size="13" lengthAdjust="spacing" textLength="177.7979" x="454.41" y="783.1875">4. Fresnel Effekt anwenden</text><text fill="#000000" font-family="Verdana" font-size="13" lengthAdjust="spacing" textLength="232.4258" x="454.41" y="798.3203">5. Spiegelung Highlights berechnen</text><text fill="#000000" font-family="Verdana" font-size="13" lengthAdjust="spacing" textLength="354.1738" x="454.41" y="813.4531">6. Reflektion/Refraktion basierend auf Winkel mischen</text><text fill="#000000" font-family="Verdana" font-size="13" lengthAdjust="spacing" textLength="246.562" x="454.41" y="828.586">7. Mit Wasser Grundfarbe vermischen</text></g><g class="entity" data-entity="GMN5" data-source-line="97" data-uid="ent0006" id="entity_GMN5"><path d="M502.08,936.1094 L502.08,1036.9063 L759.9238,1036.9063 L759.9238,946.1094 L749.9238,936.1094 L502.08,936.1094" fill="#FFFFFF" style="stroke:#000000;stroke-width:1;"/><path d="M749.9238,936.1094 L749.9238,946.1094 L759.9238,946.1094 L749.9238,936.1094" fill="#FFFFFF" style="stroke:#000000;stroke-width:1;"/><text fill="#000000" font-family="Verdana" font-size="13" font-weight="bold" lengthAdjust="spacing" textLength="129.543" x="508.08" y="953.1763">Echtzeit Updates:</text><text fill="#000000" font-family="Verdana" font-size="13" lengthAdjust="spacing" textLength="159.6309" x="508.08" y="968.3091">- 60 FPS Render Schleife</text><text fill="#000000" font-family="Verdana" font-size="13" lengthAdjust="spacing" textLength="162.9253" x="508.08" y="983.4419">- WebSocket Status Sync</text><text fill="#000000" font-family="Verdana" font-size="13" lengthAdjust="spacing" textLength="158.4883" x="508.08" y="998.5747">- Maus/Tastatur Eingabe</text><text fill="#000000" font-family="Verdana" font-size="13" lengthAdjust="spacing" textLength="167.7495" x="508.08" y="1013.7075">- Kamera Orbit Steuerung</text><text fill="#000000" font-family="Verdana" font-size="13" lengthAdjust="spacing" textLength="236.8438" x="508.08" y="1028.8403">- Wasser Eigenschaften &#196;nderungen</text></g><!--link UpdateState to RenderRefraction--><g class="link" data-entity-1="UpdateState" data-entity-2="RenderRefraction" data-source-line="72" data-uid="lnk2" id="link_UpdateState_RenderRefraction"><path d="M206.42,1032.8994 C206.15,1053.2394 205.9296,1071.1899 205.6596,1091.5399" fill="none" id="UpdateState-to-RenderRefraction" style="stroke:#000000;stroke-width:1;"/><polygon fill="#000000" points="205.58,1097.5394,209.699,1088.5932,205.6463,1092.5398,201.6998,1088.4871,205.58,1097.5394" style="stroke:#000000;stroke-width:1;"/></g><!--link RenderRefraction to RenderReflection--><g class="link" data-entity-1="RenderRefraction" data-entity-2="RenderReflection" data-source-line="73" data-uid="lnk3" id="link_RenderRefraction_RenderReflection"><path d="M205.3,1190.3494 C205.43,1209.3894 205.5291,1225.5095 205.6591,1244.5795" fill="none" id="RenderRefraction-to-RenderReflection" style="stroke:#000000;stroke-width:1;"/><polygon fill="#000000" points="205.7,1250.5794,209.6386,1241.5523,205.6659,1245.5795,201.6387,1241.6069,205.7,1250.5794" style="stroke:#000000;stroke-width:1;"/></g><!--link RenderReflection to RenderMain--><g class="link" data-entity-1="RenderReflection" data-entity-2="RenderMain" data-source-line="74" data-uid="lnk4" id="link_RenderReflection_RenderMain"><path d="M215.46,1343.4794 C219.4,1362.3794 222.7732,1378.5661 226.8632,1398.1461" fill="none" id="RenderReflection-to-RenderMain" style="stroke:#000000;stroke-width:1;"/><polygon fill="#000000" points="228.09,1404.0194,230.1652,1394.3916,227.0676,1399.125,222.3343,1396.0274,228.09,1404.0194" style="stroke:#000000;stroke-width:1;"/></g><!--link RenderMain to RenderWater--><g class="link" data-entity-1="RenderMain" data-entity-2="RenderWater" data-source-line="75" data-uid="lnk5" id="link_RenderMain_RenderWater"><path d="M310.3,1403.8694 C339.25,1376.2494 366,1339.5394 366,1298.1594 C366,985.5094 366,985.5094 366,985.5094 C366,938.2694 344.5517,899.2603 314.0917,863.9903" fill="none" id="RenderMain-to-RenderWater" style="stroke:#000000;stroke-width:1;"/><polygon fill="#000000" points="310.17,859.4494,313.0252,868.8753,313.4381,863.2335,319.0798,863.6464,310.17,859.4494" style="stroke:#000000;stroke-width:1;"/></g><!--link RenderWater to UpdateState--><g class="link" data-entity-1="RenderWater" data-entity-2="UpdateState" data-source-line="76" data-uid="lnk6" id="link_RenderWater_UpdateState"><path d="M207,859.5294 C207,887.1494 207,910.5594 207,934.0094" fill="none" id="RenderWater-to-UpdateState" style="stroke:#000000;stroke-width:1;"/><polygon fill="#000000" points="207,940.0094,211,931.0094,207,935.0094,203,931.0094,207,940.0094" style="stroke:#000000;stroke-width:1;"/><text fill="#000000" font-family="Verdana" font-size="13" lengthAdjust="spacing" textLength="103.873" x="208" y="902.1763">N&#228;chster Frame</text></g><!--link *start* to Init--><g class="link" data-entity-1=".start." data-entity-2="Init" data-source-line="79" data-uid="lnk8" id="link_.start._Init"><path d="M413,77.8294 C413,91.1994 413,110.7794 413,132.5694" fill="none" id="*start*-to-Init" style="stroke:#000000;stroke-width:1;"/><polygon fill="#000000" points="413,138.5694,417,129.5694,413,133.5694,409,129.5694,413,138.5694" style="stroke:#000000;stroke-width:1;"/></g><!--link Init to LoadAssets--><g class="link" data-entity-1="Init" data-entity-2="LoadAssets" data-source-line="80" data-uid="lnk9" id="link_Init_LoadAssets"><path d="M413,217.0594 C413,239.7194 413,262.7094 413,287.4594" fill="none" id="Init-to-LoadAssets" style="stroke:#000000;stroke-width:1;"/><polygon fill="#000000" points="413,293.4594,417,284.4594,413,288.4594,409,284.4594,413,293.4594" style="stroke:#000000;stroke-width:1;"/><text fill="#000000" font-family="Verdana" font-size="13" lengthAdjust="spacing" textLength="70.2939" x="414" y="259.8763">Erfolgreich</text></g><!--link LoadAssets to SetupFB--><g class="link" data-entity-1="LoadAssets" data-entity-2="SetupFB" data-source-line="81" data-uid="lnk10" id="link_LoadAssets_SetupFB"><path d="M413,400.1294 C413,424.4794 413,447.1794 413,470.6094" fill="none" id="LoadAssets-to-SetupFB" style="stroke:#000000;stroke-width:1;"/><polygon fill="#000000" points="413,476.6094,417,467.6094,413,471.6094,409,467.6094,413,476.6094" style="stroke:#000000;stroke-width:1;"/><text fill="#000000" font-family="Verdana" font-size="13" lengthAdjust="spacing" textLength="100.5786" x="414" y="443.0163">Assets Geladen</text></g><!--link SetupFB to RenderLoop--><g class="link" data-entity-1="SetupFB" data-entity-2="RenderLoop" data-source-line="82" data-uid="lnk11" id="link_SetupFB_RenderLoop"><path d="M413,569.4594 C413,586.9569 413,607.9944 413,629.7698 C413,632.4918 413,635.2252 413,637.9648 C413,638.6496 413,633.3349 413,634.0205" fill="none" id="SetupFB-to-RenderLoop" style="stroke:#000000;stroke-width:1;"/><polygon fill="#000000" points="413,640.0205,417,631.0205,413,635.0205,409,631.0205,413,640.0205" style="stroke:#000000;stroke-width:1;"/><text fill="#000000" font-family="Verdana" font-size="13" lengthAdjust="spacing" textLength="59.4966" x="414" y="612.1863">FB Bereit</text></g><!--link RenderLoop to *end*--><g class="link" data-entity-1="RenderLoop" data-entity-2=".end." data-source-line="83" data-uid="lnk13" id="link_RenderLoop_.end."><path d="M421.1458,812.5377 C421.2033,812.823 421.261,813.1094 421.3189,813.3967 C422.2454,817.9945 423.225,822.8563 424.2448,827.9175 C426.2845,838.04 428.485,848.9606 430.7425,860.1644 C439.7725,904.9794 448.5297,948.4426 452.7447,969.3576" fill="none" id="RenderLoop-to-*end*" style="stroke:#000000;stroke-width:1;"/><polygon fill="#000000" points="453.93,975.2394,456.0731,965.6265,452.9422,970.3379,448.2308,967.207,453.93,975.2394" style="stroke:#000000;stroke-width:1;"/><text fill="#000000" font-family="Verdana" font-size="13" lengthAdjust="spacing" textLength="102.6924" x="440.62" y="902.1763">Fehler/Beenden</text></g><!--link RenderWater to GMN2--><g class="link" data-entity-1="RenderWater" data-entity-2="GMN2" data-source-line="86" data-uid="lnk4" id="link_RenderWater_GMN2"><path d="M257.04,682.7594 C294.53,629.4094 349.8,575.4694 411.5,596.6194 C474.54,618.2394 533.52,665.5794 575.2,705.5094" fill="none" id="RenderWater-GMN2" style="stroke:#000000;stroke-width:1;stroke-dasharray:7,7;"/></g><!--link GMN5 to UpdateState--><g class="link" data-entity-1="GMN5" data-entity-2="UpdateState" data-source-line="97" data-uid="lnk7" id="link_GMN5_UpdateState"><path d="M556.1,935.6294 C529.34,920.2694 498.19,905.4094 467.5,897.6094 C401.27,880.7694 327.75,910.4794 275.75,939.9894" fill="none" id="GMN5-UpdateState" style="stroke:#000000;stroke-width:1;stroke-dasharray:7,7;"/></g><!--SRC=[bLV1RXit4BtlLqpJYstOafCqAU130JkMd29MB4HoNBGe2cftLajenLsGN3jnaLi-9P-Hct-iC-Ikbf9MGkgB9SuySkRnpN3qayrmYL3cGgh8BAGgXHPBc8buCTT5fP8tHLve-7de_WAF15DHvNPOA5kxdBg_ABBIvWXtEBkwXZjXKSEqieMM8eSJ-80gGItL7CQon5mgX3yhOuLAJ2B5d7PUHX5zjmZF_1Q_Asa9Aur4ZUeP2EEMuDy8_8SpsjQxlgDWy9C5rCPYdgCANJwUt_GliRGP3FG3IeghKdDKa8jamr7YGrbesaOgBUFCaldBAgXpOz0Qk6QK2-Qw44czo245NtcpIKQEsXy21nzHKu3zeHRp9IfxkDD_h0l71SAYM9OoTxblUqyfsqetIS11KYNtnw0AlHJvCH09KdMSCKAJeMam3tn5_v0051u3VTIY4tGrleLnbQOKN4jlImkbjCIPjmzMl3c29cYhSdZXs6a-dpaff3akh2oKWH0Utjw6lnR_mtygCQK4Lnm5rxdXw3nWpBf6rkkYKAcSLzgptYRfnGkJECjHfkYoyslNHL5IWhHnxJgXVvM1yuMjrhLxMoRaC75Up0YihN0ujvb-97s22B6TdkyeNYrW9AoMdtx0_qxGVVBzaEvDd8cKkFW1s0MgoZwIcSfMp0XoJwVg6TSG0xu4QRTtL1EZ0fASCNP6d_dMyhvhdacLr05sujxaiYnTOs4f0mdtaULTARvHd_dXRlJK2z_L1cWV-cxl2LTMenkX7h0EROEAMjxTLEJOIKMplAz2kgW8SJkeUFe-sqL5YER-rsZAb1BdcEyvQmTn8HDlHLLQGo5W1nCZ1eSSk0NUsS7svxtozRNU7v8icowLuqhG6ywUWOB8IFEdRt667HVUxbpdLxl0mOAllc7ui0ioedTHddXry2ti44XTZTkK-4SpvCIl12MyyKnmHQxEs0boLxJ5OUisfavQijxkiT-AWANZ5TG92ZLQ5uG_0WwcWp-cjny6pmzt0LTrtWqyxGPUqYEt0_6Y6_7UFOYKJha9U7cuZx1R9LE2cbK5DSdUI_lqpHwJED4efASMRTpR4-rDcj8Ma3vzrt2kv5AuyY41Ofof_PSse8PBHrzIzyLuWK1FGuDnOWgRzSd9RrlzAkfeOMj-TJ577VNT-h6sepMXjpONShIU05lNdv7tN6c6RQwY-LNzw-XlvyYJL-J6B_wsDdSCT5haSyqvHu61_TeNl5wyGZ_ADOOsGlSwdm6jNV0hPgDWcRqu438ZFUkwVu6-a29LKE1QpZCBHRgHwz7HHY7Mm-pPqH5Pd_U09pqPqvHLDmkOb296i5eemvfgNjiNlJKzEuKGbbvR7a_1Y6Nfs-_BNbXg_UtguJ9TUV_IQxG90-g62niseLSzYiRrTJxYBMMOSvPcJP2lm_E2u-YdWHyL4X1L2dTIBUYGfQHvmk5-xS68RhAcvugoI58U5hX5DLuCPdPhZdDC7SM1O1p50nhMt2Ja3SQJUmAlJs4udi36DEPCz3jWKb2PMAW7iCbd5JlBI5IcFnNSUoitel8euopr57MZPv9XMBbV1dwxhe7fwIkVwtuyh3Bv3m00]--></g></svg>